STARTFONT 2.3
FONT -FontForge-Rajdhani-Book-R-Normal--28-280-72-72-P-171-ISO10646-1
SIZE 28 72 72  2
FONTBOUNDINGBOX 69 35 -12 -10
COMMENT "Generated by fontforge, http://fontforge.sourceforge.net"
COMMENT "Copyright (c) 2014 Indian Type Foundry (info@indiantypefoundry.com)"
STARTPROPERTIES 41
FOUNDRY "FontForge"
FAMILY_NAME "Rajdhani"
WEIGHT_NAME "Book"
SLANT "R"
SETWIDTH_NAME "Normal"
ADD_STYLE_NAME ""
PIXEL_SIZE 28
POINT_SIZE 280
RESOLUTION_X 72
RESOLUTION_Y 72
SPACING "P"
AVERAGE_WIDTH 171
CHARSET_REGISTRY "ISO10646"
CHARSET_ENCODING "1"
FONTNAME_REGISTRY ""
CHARSET_COLLECTIONS "ISO8859-2 ISO8859-9 ISO8859-4 ISO10646-1"
BITS_PER_PIXEL 2
FONT_NAME "Rajdhani-Regular"
FACE_NAME "Rajdhani Regular"
COPYRIGHT "Copyright (c) 2014 Indian Type Foundry (info@indiantypefoundry.com)"
FONT_VERSION "1.201;PS 1.0;hotconv 1.0.78;makeotf.lib2.5.61930; ttfautohint (v1.1) -l 7 -r 28 -G 50 -x 13 -D latn -f deva -w G"
FONT_ASCENT 22
FONT_DESCENT 6
UNDERLINE_POSITION -3
UNDERLINE_THICKNESS 2
X_HEIGHT 13
CAP_HEIGHT 17
DEFAULT_CHAR 3
RAW_ASCENT 800
RAW_DESCENT 200
NORM_SPACE 7
RELATIVE_WEIGHT 40
RELATIVE_SETWIDTH 50
SUPERSCRIPT_X 0
SUPERSCRIPT_Y 9
SUPERSCRIPT_SIZE 16
SUBSCRIPT_X 0
SUBSCRIPT_Y 2
SUBSCRIPT_SIZE 16
AVG_LOWERCASE_WIDTH 126
AVG_UPPERCASE_WIDTH 145
ENDPROPERTIES
CHARS 1043
STARTCHAR NULL.dup1
ENCODING 0
SWIDTH 0 0
DWIDTH 0 0
BBX 1 1 0 0
BITMAP
00
ENDCHAR
STARTCHAR CR
ENCODING 13
SWIDTH 0 0
DWIDTH 0 0
BBX 1 1 0 0
BITMAP
00
ENDCHAR
STARTCHAR space
ENCODING 32
SWIDTH 267 0
DWIDTH 7 0
BBX 1 1 0 0
BITMAP
00
ENDCHAR
STARTCHAR exclam
ENCODING 33
SWIDTH 237 0
DWIDTH 7 0
BBX 2 18 2 0
BITMAP
70
70
70
70
70
70
70
70
70
70
70
60
00
00
70
70
70
70
ENDCHAR
STARTCHAR quotedbl
ENCODING 34
SWIDTH 330 0
DWIDTH 9 0
BBX 7 6 1 12
BITMAP
7034
7034
3024
3024
3024
2020
ENDCHAR
STARTCHAR numbersign
ENCODING 35
SWIDTH 677 0
DWIDTH 19 0
BBX 17 18 1 0
BITMAP
0003401800
0007002800
000A003400
0009007000
000D00A000
0BFFFFFF40
016955D500
003401C000
0070028000
00A0034000
0090070000
00C00A0000
7FFFFFF800
16955D5000
0340180000
0700280000
0A00340000
0900700000
ENDCHAR
STARTCHAR dollar
ENCODING 36
SWIDTH 504 0
DWIDTH 14 0
BBX 11 24 2 -3
BITMAP
001000
007000
007000
1BFE40
7956D0
E000B0
D00070
D00070
D00000
E00000
B40000
2FFF40
0056E0
0000B0
000070
400074
D00074
D00070
A000B0
7956D0
1BFE40
007000
007000
001000
ENDCHAR
STARTCHAR percent
ENCODING 37
SWIDTH 717 0
DWIDTH 20 0
BBX 18 18 1 0
BITMAP
1BE400D000
756C01C000
6009024000
A00A070000
A00A0A0000
A0090C0000
741D180000
2FF4340000
0140700000
0000900000
0001C1BE40
00028341D0
00030600A0
000A060060
000D060060
00180700A0
00240395D0
007001BF40
ENDCHAR
STARTCHAR ampersand
ENCODING 38
SWIDTH 597 0
DWIDTH 17 0
BBX 13 18 2 0
BITMAP
01FE4000
0B96E000
0D007000
1C007400
1C003400
1C001000
0D000000
07000000
2F800000
B9E00000
E07FFFC0
D01E5540
D0074000
D001D000
D000B000
A000BC00
7956DA00
1BFE4380
ENDCHAR
STARTCHAR quotesingle
ENCODING 39
SWIDTH 186 0
DWIDTH 5 0
BBX 2 5 2 13
BITMAP
D0
D0
C0
C0
80
ENDCHAR
STARTCHAR parenleft
ENCODING 40
SWIDTH 283 0
DWIDTH 8 0
BBX 5 21 1 -3
BITMAP
07C0
2D40
3400
7000
7000
7000
7000
7000
7000
7000
7000
7000
7000
7000
7000
7000
7000
7400
2D00
0BC0
0040
ENDCHAR
STARTCHAR parenright
ENCODING 41
SWIDTH 283 0
DWIDTH 8 0
BBX 5 21 1 -3
BITMAP
7900
1B40
0280
01C0
01C0
01C0
01C0
01C0
01C0
01C0
01C0
01C0
01C0
01C0
01C0
01C0
01C0
02C0
0740
7D00
1000
ENDCHAR
STARTCHAR asterisk
ENCODING 42
SWIDTH 406 0
DWIDTH 11 0
BBX 8 8 2 10
BITMAP
0340
0340
9209
AAB9
0140
0C90
2874
1010
ENDCHAR
STARTCHAR plus
ENCODING 43
SWIDTH 523 0
DWIDTH 15 0
BBX 11 11 2 3
BITMAP
007000
007000
007000
007000
007000
FFFFF8
557550
007000
007000
007000
007000
ENDCHAR
STARTCHAR comma
ENCODING 44
SWIDTH 191 0
DWIDTH 5 0
BBX 2 7 2 -3
BITMAP
D0
D0
D0
D0
C0
80
40
ENDCHAR
STARTCHAR hyphen
ENCODING 45
SWIDTH 312 0
DWIDTH 9 0
BBX 7 2 1 7
BITMAP
FFF8
1550
ENDCHAR
STARTCHAR period
ENCODING 46
SWIDTH 191 0
DWIDTH 5 0
BBX 2 4 2 0
BITMAP
D0
D0
D0
D0
ENDCHAR
STARTCHAR slash
ENCODING 47
SWIDTH 396 0
DWIDTH 11 0
BBX 9 18 1 0
BITMAP
000340
000700
000E00
001D00
002C00
003800
007400
00B000
00D000
01C000
028000
034000
070000
0A0000
0D0000
1C0000
380000
740000
ENDCHAR
STARTCHAR zero
ENCODING 48
SWIDTH 514 0
DWIDTH 14 0
BBX 11 18 2 0
BITMAP
1BFF80
7955E0
E00074
D00034
D00038
D00038
D00038
D00038
D00038
D00038
D00038
D00038
D00038
D00038
D00034
E00074
7955E0
1BFF80
ENDCHAR
STARTCHAR one
ENCODING 49
SWIDTH 317 0
DWIDTH 9 0
BBX 6 18 1 0
BITMAP
02D0
1FE0
B4E0
80E0
00E0
00E0
00E0
00E0
00E0
00E0
00E0
00E0
00E0
00E0
00E0
00E0
00E0
00D0
ENDCHAR
STARTCHAR two
ENCODING 50
SWIDTH 478 0
DWIDTH 13 0
BBX 11 18 1 0
BITMAP
0BFF80
2D55B0
740034
700028
700028
600028
000034
0000B0
0007C0
001E00
00B400
02D000
1E0000
380000
740000
740000
755554
7FFFF8
ENDCHAR
STARTCHAR three
ENCODING 51
SWIDTH 496 0
DWIDTH 14 0
BBX 11 18 1 0
BITMAP
07FF90
1E55B4
380028
74001C
70001C
20001C
00001C
000028
000074
003FD0
0015B4
00002C
00001C
70001C
74001C
34002C
2E55B4
06FF90
ENDCHAR
STARTCHAR four
ENCODING 52
SWIDTH 520 0
DWIDTH 15 0
BBX 13 18 1 0
BITMAP
0001F400
0002B400
00077400
000D7400
002C7400
00747400
00A07400
01C07400
03407400
0B007400
1D007400
28007400
70007400
BFFFFF80
15557500
00007400
00007400
00003400
ENDCHAR
STARTCHAR five
ENCODING 53
SWIDTH 482 0
DWIDTH 14 0
BBX 11 18 1 0
BITMAP
3FFFF8
355550
340000
340000
340000
340000
340000
36FF90
3D55B4
240028
00002C
00001C
00001C
74001C
34002C
380028
1E55B4
07FF90
ENDCHAR
STARTCHAR six
ENCODING 54
SWIDTH 497 0
DWIDTH 14 0
BBX 11 18 1 0
BITMAP
0BFFF4
2E5550
340000
700000
700000
700000
700000
7FFFD0
7555B4
70002C
70001C
70001C
70001C
70001C
70001C
34002C
2E55B4
0BFF90
ENDCHAR
STARTCHAR seven
ENCODING 55
SWIDTH 380 0
DWIDTH 11 0
BBX 10 18 0 0
BITMAP
BFFFF0
1555B0
0000E0
0001D0
0002C0
000340
000700
000A00
000D00
002C00
003800
007400
00B000
00D000
01C000
028000
034000
0B0000
ENDCHAR
STARTCHAR eight
ENCODING 56
SWIDTH 519 0
DWIDTH 15 0
BBX 11 18 2 0
BITMAP
1BFF80
7955F0
E00034
D00028
D00028
D00028
D00028
E00034
7401B0
2FFFC0
7955B0
E00034
D00028
D00028
D00028
E00038
B955B0
1BFF80
ENDCHAR
STARTCHAR nine
ENCODING 57
SWIDTH 497 0
DWIDTH 14 0
BBX 11 18 1 0
BITMAP
0BFF90
2E55B4
740028
70001C
70001C
70001C
70001C
70001C
74001C
2D001C
0BFFFC
00555C
00001C
00001C
00001C
000028
0555B4
2FFF90
ENDCHAR
STARTCHAR colon
ENCODING 58
SWIDTH 191 0
DWIDTH 5 0
BBX 2 14 2 0
BITMAP
D0
D0
D0
D0
00
00
00
00
00
00
D0
D0
D0
D0
ENDCHAR
STARTCHAR semicolon
ENCODING 59
SWIDTH 191 0
DWIDTH 5 0
BBX 2 17 2 -3
BITMAP
D0
D0
D0
D0
00
00
00
00
00
00
D0
D0
D0
D0
C0
80
40
ENDCHAR
STARTCHAR less
ENCODING 60
SWIDTH 513 0
DWIDTH 14 0
BBX 11 10 2 4
BITMAP
000014
0006F4
00BE40
1B9000
E40000
F40000
1B9000
007E40
0006F4
000014
ENDCHAR
STARTCHAR equal
ENCODING 61
SWIDTH 531 0
DWIDTH 15 0
BBX 11 7 2 5
BITMAP
FFFFF8
555550
000000
000000
000000
FFFFF8
555550
ENDCHAR
STARTCHAR greater
ENCODING 62
SWIDTH 531 0
DWIDTH 15 0
BBX 11 10 2 4
BITMAP
900000
BE0000
06E400
002F90
0001B8
0001B8
006F90
06E400
BD0000
900000
ENDCHAR
STARTCHAR question
ENCODING 63
SWIDTH 473 0
DWIDTH 13 0
BBX 10 18 2 0
BITMAP
1BFD00
795B80
A001C0
D001D0
D000D0
4001C0
000380
001E00
003800
00A000
00E000
00D000
000000
000000
00E000
00E000
00E000
00E000
ENDCHAR
STARTCHAR at
ENCODING 64
SWIDTH 753 0
DWIDTH 21 0
BBX 17 19 2 -2
BITMAP
006FFFF800
07D5555B00
1E00000280
3800000180
700BFF4180
A039574180
9070024180
90A0024180
90A0024180
90A0024180
90A0024180
90B0034280
A0381B8740
701FF6FD00
3400405000
1D00000000
0790000000
01BFFF8000
0001550000
ENDCHAR
STARTCHAR A
ENCODING 65
SWIDTH 533 0
DWIDTH 15 0
BBX 13 18 1 0
BITMAP
002E0000
003F0000
00774000
00A38000
00D2C000
01D1D000
02C0D000
0380A000
07407000
0B003400
0E002800
1D001C00
1FFFFD00
29555A00
34000700
70000340
A0000280
D00001C0
ENDCHAR
STARTCHAR B
ENCODING 66
SWIDTH 546 0
DWIDTH 15 0
BBX 12 18 2 0
BITMAP
BFFF90
B555B4
A0002C
A0001C
A0001C
A0001C
A0002C
A00074
BFFFD0
B555B4
A0001C
A0000D
A0000D
A0000D
A0000D
A0001C
B555B8
BFFFD0
ENDCHAR
STARTCHAR C
ENCODING 67
SWIDTH 542 0
DWIDTH 15 0
BBX 12 18 2 0
BITMAP
1BFFE0
795578
B0001D
E0000D
E0000D
E00009
E00000
E00000
E00000
E00000
E00000
E00000
E00009
E0000D
E0000D
B0001D
795578
1BFFE0
ENDCHAR
STARTCHAR D
ENCODING 68
SWIDTH 557 0
DWIDTH 16 0
BBX 12 18 2 0
BITMAP
BFFFE0
B55578
A0001D
A0000D
A0000E
A0000E
A0000E
A0000E
A0000E
A0000E
A0000E
A0000E
A0000E
A0000E
A0000D
A0001D
B55578
BFFFE0
ENDCHAR
STARTCHAR E
ENCODING 69
SWIDTH 481 0
DWIDTH 13 0
BBX 10 18 2 0
BITMAP
BFFFE0
B55540
A00000
A00000
A00000
A00000
A00000
A00000
BFFF80
B55500
A00000
A00000
A00000
A00000
A00000
A00000
B55540
BFFFE0
ENDCHAR
STARTCHAR F
ENCODING 70
SWIDTH 459 0
DWIDTH 13 0
BBX 10 18 2 0
BITMAP
BFFFE0
B55540
A00000
A00000
A00000
A00000
A00000
A00000
A00000
BFFF80
B55500
A00000
A00000
A00000
A00000
A00000
A00000
A00000
ENDCHAR
STARTCHAR G
ENCODING 71
SWIDTH 539 0
DWIDTH 15 0
BBX 11 18 2 0
BITMAP
1BFF90
7955B4
B00028
E0001C
E0001C
E00018
E00000
E00000
E00000
E01FFC
E0056C
E0001C
E0001C
E0001C
E0001C
B00028
7955B4
1BFF90
ENDCHAR
STARTCHAR H
ENCODING 72
SWIDTH 570 0
DWIDTH 16 0
BBX 12 18 2 0
BITMAP
A0000A
A0000A
A0000A
A0000A
A0000A
A0000A
A0000A
A0000E
BFFFFE
B5555E
A0000A
A0000A
A0000A
A0000A
A0000A
A0000A
A0000A
A0000A
ENDCHAR
STARTCHAR I
ENCODING 73
SWIDTH 230 0
DWIDTH 6 0
BBX 2 18 2 0
BITMAP
70
70
70
70
70
70
70
70
70
70
70
70
70
70
70
70
70
70
ENDCHAR
STARTCHAR J
ENCODING 74
SWIDTH 499 0
DWIDTH 14 0
BBX 11 18 1 0
BITMAP
000028
000028
000028
000028
000028
000028
000028
000028
000028
000028
000028
900028
D00028
D00028
E00028
B00038
7955F0
1BFF80
ENDCHAR
STARTCHAR K
ENCODING 75
SWIDTH 530 0
DWIDTH 15 0
BBX 12 18 2 0
BITMAP
A0002C
A00074
A000E0
A00280
A00B00
A01D00
A07800
A0E000
A2F000
A77800
BD1D00
B80B00
B00380
A001D0
A000B0
A00038
A0001D
A0000B
ENDCHAR
STARTCHAR L
ENCODING 76
SWIDTH 451 0
DWIDTH 13 0
BBX 10 18 2 0
BITMAP
A00000
A00000
A00000
A00000
A00000
A00000
A00000
A00000
A00000
A00000
A00000
A00000
A00000
A00000
A00000
A00000
B55550
BFFFF0
ENDCHAR
STARTCHAR M
ENCODING 77
SWIDTH 696 0
DWIDTH 19 0
BBX 15 18 2 0
BITMAP
B800003C
BC0000BC
AD0000EC
AB0001DC
A340029C
A280075C
A1C00A1C
A0A00D1C
A0702C1C
A034341C
A02C701C
A00DA01C
A00BD01C
A007801C
A000001C
A000001C
A000001C
A000001C
ENDCHAR
STARTCHAR N
ENCODING 78
SWIDTH 579 0
DWIDTH 16 0
BBX 12 18 2 0
BITMAP
B0000B
B8000B
BC000B
AE000B
A7400B
A2800B
A0D00B
A0B00B
A0380B
A01D0B
A00A0B
A0074B
A002CB
A000DB
A0007B
A0002F
A0001F
A0000B
ENDCHAR
STARTCHAR O
ENCODING 79
SWIDTH 553 0
DWIDTH 15 0
BBX 12 18 2 0
BITMAP
1BFFE0
7955B8
B0001C
E0000D
E0000D
E0000D
E0000D
E0000D
E0000D
E0000D
E0000D
E0000D
E0000D
E0000D
E0000D
B0001C
7955B8
1BFFE0
ENDCHAR
STARTCHAR P
ENCODING 80
SWIDTH 524 0
DWIDTH 15 0
BBX 11 18 2 0
BITMAP
BFFF90
B555B4
A00028
A0001C
A0001C
A0001C
A0001C
A0001C
A0002C
A00074
BFFFE0
B55500
A00000
A00000
A00000
A00000
A00000
A00000
ENDCHAR
STARTCHAR Q
ENCODING 81
SWIDTH 556 0
DWIDTH 16 0
BBX 12 22 2 -4
BITMAP
1BFFE0
795578
B0001D
E0000D
E0000D
E0000D
E0000D
E0000D
E0000D
E0000D
E0000D
E0000D
E0000D
E0000D
E0000D
B0001D
795578
1BFFE0
000700
000380
0001D0
0000A0
ENDCHAR
STARTCHAR R
ENCODING 82
SWIDTH 534 0
DWIDTH 15 0
BBX 12 18 2 0
BITMAP
BFFF90
B555B4
A00028
A0002C
A0001C
A0001C
A0001C
A0001C
A00028
A000B4
BFFFD0
B55740
A00380
A001D0
A000E0
A00074
A00028
A0001D
ENDCHAR
STARTCHAR S
ENCODING 83
SWIDTH 562 0
DWIDTH 16 0
BBX 12 18 2 0
BITMAP
0BFFE0
3D55B8
B0001D
A0000D
A0000D
A00000
B00000
3D0000
0BE900
006BE0
0000B8
00001D
50000D
A0000D
A0000D
B0001D
3D5578
0BFFE0
ENDCHAR
STARTCHAR T
ENCODING 84
SWIDTH 420 0
DWIDTH 12 0
BBX 12 18 0 0
BITMAP
7FFFFD
157954
002800
002800
002800
002800
002800
002800
002800
002800
002800
002800
002800
002800
002800
002800
002800
002800
ENDCHAR
STARTCHAR U
ENCODING 85
SWIDTH 552 0
DWIDTH 15 0
BBX 12 18 2 0
BITMAP
A0000D
A0001D
A0001D
A0001D
A0001D
A0001D
A0001D
A0001D
A0001D
A0001D
A0001D
A0001D
A0001D
A0001D
A0001D
B0002C
3955B4
0BFFD0
ENDCHAR
STARTCHAR V
ENCODING 86
SWIDTH 500 0
DWIDTH 14 0
BBX 12 18 1 0
BITMAP
D00007
E0000B
B0000E
74001D
34001C
280028
1C0034
0D0070
0A00A0
0700D0
0741C0
0382C0
028380
01C340
00D700
00AA00
007D00
003C00
ENDCHAR
STARTCHAR W
ENCODING 87
SWIDTH 794 0
DWIDTH 22 0
BBX 21 18 1 0
BITMAP
D0003C000740
E0003D000B00
B0007A000B00
7000A7000E00
7400D3000D00
3801C3401D00
2801C2802C00
2C0281C02800
1C0340D03800
0D0700D03400
0E0A00A07000
0A0A0070B000
070D0034A000
075C0028D000
03680029D000
02A4001DC000
02F4000F8000
01F0000B8000
ENDCHAR
STARTCHAR X
ENCODING 88
SWIDTH 504 0
DWIDTH 14 0
BBX 12 18 1 0
BITMAP
B0000A
34001D
1C0038
0E00B0
0740D0
028280
00D740
00BA00
003D00
007E00
00E700
02C380
0341D0
0B00A0
1D0074
28002C
74000D
E0000B
ENDCHAR
STARTCHAR Y
ENCODING 89
SWIDTH 493 0
DWIDTH 14 0
BBX 12 18 1 0
BITMAP
D0000B
B0000D
74002C
2C0034
1D00B0
0B00D0
0742C0
02C340
01DB00
00BD00
007C00
002800
002800
002800
002800
002800
002800
002800
ENDCHAR
STARTCHAR Z
ENCODING 90
SWIDTH 482 0
DWIDTH 14 0
BBX 12 18 1 0
BITMAP
7FFFFC
15557C
000074
0000E0
0002D0
000380
000B00
001D00
003800
00B400
00E000
02C000
074000
0E0000
2D0000
380000
B55554
BFFFFD
ENDCHAR
STARTCHAR bracketleft
ENCODING 91
SWIDTH 287 0
DWIDTH 8 0
BBX 5 21 1 -3
BITMAP
7FC0
7540
7000
7000
7000
7000
7000
7000
7000
7000
7000
7000
7000
7000
7000
7000
7000
7000
7000
7FC0
1540
ENDCHAR
STARTCHAR backslash
ENCODING 92
SWIDTH 396 0
DWIDTH 11 0
BBX 9 18 1 0
BITMAP
740000
380000
1C0000
0D0000
0A0000
070000
034000
028000
01C000
00D000
00B000
007400
003800
002C00
001D00
000E00
000B00
000340
ENDCHAR
STARTCHAR bracketright
ENCODING 93
SWIDTH 287 0
DWIDTH 8 0
BBX 5 21 1 -3
BITMAP
7FC0
15C0
01C0
01C0
01C0
01C0
01C0
01C0
01C0
01C0
01C0
01C0
01C0
01C0
01C0
01C0
01C0
01C0
01C0
7FC0
1540
ENDCHAR
STARTCHAR asciicircum
ENCODING 94
SWIDTH 465 0
DWIDTH 13 0
BBX 10 8 2 10
BITMAP
02E000
077400
0A2C00
1C0D00
380700
700340
D001C0
400050
ENDCHAR
STARTCHAR underscore
ENCODING 95
SWIDTH 372 0
DWIDTH 10 0
BBX 11 2 0 -4
BITMAP
FFFFF4
555550
ENDCHAR
STARTCHAR grave
ENCODING 96
SWIDTH 269 0
DWIDTH 8 0
BBX 4 4 2 15
BITMAP
F0
38
1D
05
ENDCHAR
STARTCHAR a
ENCODING 97
SWIDTH 502 0
DWIDTH 14 0
BBX 11 14 1 0
BITMAP
07FFFC
1E556C
38001C
34001C
74001C
74001C
74001C
74001C
74001C
74001C
34002C
38002C
1E55BC
07FF9C
ENDCHAR
STARTCHAR b
ENCODING 98
SWIDTH 504 0
DWIDTH 14 0
BBX 11 19 2 0
BITMAP
D00000
E00000
E00000
E00000
E00000
E7FF40
E956E0
F00070
E00074
E00034
E00034
E00034
E00034
E00034
E00034
E00074
E00070
E556E0
FFFF40
ENDCHAR
STARTCHAR c
ENCODING 99
SWIDTH 394 0
DWIDTH 11 0
BBX 9 14 1 0
BITMAP
07FFC0
1E5540
380000
340000
740000
740000
740000
740000
740000
740000
340000
380000
1E5540
07FFC0
ENDCHAR
STARTCHAR d
ENCODING 100
SWIDTH 504 0
DWIDTH 14 0
BBX 11 19 1 0
BITMAP
00001C
00001C
00001C
00001C
00001C
07FF5C
1E55AC
38002C
34001C
74001C
74001C
74001C
74001C
74001C
74001C
34001C
38002C
1E55BC
07FF9C
ENDCHAR
STARTCHAR e
ENCODING 101
SWIDTH 492 0
DWIDTH 14 0
BBX 11 14 1 0
BITMAP
07FF90
1E55B4
380028
34001C
74001C
74001C
74001C
7FFFFC
755554
740000
340000
380000
1E5554
07FFFC
ENDCHAR
STARTCHAR f
ENCODING 102
SWIDTH 303 0
DWIDTH 8 0
BBX 7 19 1 0
BITMAP
01BC
0394
0700
0A00
0A00
FFFC
5B54
0A00
0A00
0A00
0A00
0A00
0A00
0A00
0A00
0A00
0A00
0A00
0A00
ENDCHAR
STARTCHAR g
ENCODING 103
SWIDTH 506 0
DWIDTH 14 0
BBX 10 18 2 -4
BITMAP
1BFFF0
7955B0
E00070
D00070
D00070
D00070
D00070
D00070
D00070
D00070
E000B0
B402F0
2FFE70
015070
000070
0000B0
1556D0
7FFE40
ENDCHAR
STARTCHAR h
ENCODING 104
SWIDTH 507 0
DWIDTH 14 0
BBX 11 19 2 0
BITMAP
D00000
E00000
E00000
E00000
E00000
E7FF40
E956E0
F000B0
E00074
E00034
E00034
E00034
E00034
E00034
E00034
E00034
E00034
E00034
D00034
ENDCHAR
STARTCHAR i
ENCODING 105
SWIDTH 210 0
DWIDTH 6 0
BBX 2 19 2 0
BITMAP
A0
A0
A0
00
00
A0
A0
A0
A0
A0
A0
A0
A0
A0
A0
A0
A0
A0
A0
ENDCHAR
STARTCHAR j
ENCODING 106
SWIDTH 210 0
DWIDTH 6 0
BBX 6 23 -2 -4
BITMAP
00A0
00A0
00A0
0000
0000
00A0
00A0
00A0
00A0
00A0
00A0
00A0
00A0
00A0
00A0
00A0
00A0
00A0
00A0
00E0
00D0
17C0
7E00
ENDCHAR
STARTCHAR k
ENCODING 107
SWIDTH 431 0
DWIDTH 12 0
BBX 10 19 2 0
BITMAP
D00000
E00000
E00000
E00000
E00000
E002C0
E00740
E00E00
E02C00
E07400
E0E000
E2C000
E1D000
E0B000
E03800
E01D00
E00B00
E00280
D000E0
ENDCHAR
STARTCHAR l
ENCODING 108
SWIDTH 210 0
DWIDTH 6 0
BBX 2 19 2 0
BITMAP
A0
A0
A0
A0
A0
A0
A0
A0
A0
A0
A0
A0
A0
A0
A0
A0
A0
A0
A0
ENDCHAR
STARTCHAR m
ENCODING 109
SWIDTH 769 0
DWIDTH 22 0
BBX 18 14 2 0
BITMAP
D7FE06FE00
E9579D57C0
F001F001D0
E000E000E0
E000E000E0
E000E000E0
E000E000E0
E000E000E0
E000E000E0
E000E000E0
E000E000E0
E000E000E0
E000E000E0
D000E000E0
ENDCHAR
STARTCHAR n
ENCODING 110
SWIDTH 507 0
DWIDTH 14 0
BBX 11 14 2 0
BITMAP
D7FF40
E956E0
F000B0
E00074
E00034
E00034
E00034
E00034
E00034
E00034
E00034
E00034
E00034
D00034
ENDCHAR
STARTCHAR o
ENCODING 111
SWIDTH 496 0
DWIDTH 14 0
BBX 11 14 1 0
BITMAP
07FF90
1E55B4
38002C
34001C
74001C
74001C
74001C
74001C
74001C
74001C
34001C
38002C
1E55B4
07FF90
ENDCHAR
STARTCHAR p
ENCODING 112
SWIDTH 504 0
DWIDTH 14 0
BBX 11 18 2 -4
BITMAP
D7FF40
E956E0
F00070
E00074
E00034
E00034
E00034
E00034
E00034
E00034
E00074
F00070
F956E0
E7FF40
E00000
E00000
E00000
D00000
ENDCHAR
STARTCHAR q
ENCODING 113
SWIDTH 502 0
DWIDTH 14 0
BBX 11 18 1 -4
BITMAP
07FFFC
1E556C
38001C
34001C
74001C
74001C
74001C
74001C
74001C
74001C
34002C
38003C
1E55BC
07FF5C
00001C
00001C
00001C
00001C
ENDCHAR
STARTCHAR r
ENCODING 114
SWIDTH 313 0
DWIDTH 9 0
BBX 6 14 2 0
BITMAP
D6F0
ED50
F000
E000
E000
E000
E000
E000
E000
E000
E000
E000
E000
D000
ENDCHAR
STARTCHAR s
ENCODING 115
SWIDTH 431 0
DWIDTH 12 0
BBX 10 14 1 0
BITMAP
1BFFC0
795540
700000
B00000
740000
2E4000
06E400
001F40
0002C0
0000D0
0000E0
0000D0
1556C0
7FFE40
ENDCHAR
STARTCHAR t
ENCODING 116
SWIDTH 347 0
DWIDTH 10 0
BBX 9 17 0 0
BITMAP
034000
034000
034000
7FFF40
179500
034000
034000
034000
034000
034000
034000
034000
034000
034000
028000
01E500
006F80
ENDCHAR
STARTCHAR u
ENCODING 117
SWIDTH 507 0
DWIDTH 14 0
BBX 10 14 2 0
BITMAP
D00070
D00070
D00070
D00070
D00070
D00070
D00070
D00070
D00070
D00070
D00070
E000B0
7956F0
1BFE70
ENDCHAR
STARTCHAR v
ENCODING 118
SWIDTH 416 0
DWIDTH 12 0
BBX 11 14 0 0
BITMAP
70001C
340028
280034
1C0070
0D00A0
0A00D0
0701C0
074280
038340
02C700
01CB00
00DA00
00BD00
007C00
ENDCHAR
STARTCHAR w
ENCODING 119
SWIDTH 683 0
DWIDTH 19 0
BBX 19 14 0 0
BITMAP
7000740034
3400B80074
2800AC00B0
1C00DD00E0
1D01C900D0
0E028A01C0
0A03470280
0707034340
0346028700
028A018A00
01CD00CA00
00DC00DD00
00B800BC00
00B4007800
ENDCHAR
STARTCHAR x
ENCODING 120
SWIDTH 413 0
DWIDTH 12 0
BBX 10 14 1 0
BITMAP
E001D0
740280
280740
1D0A00
0B1C00
037800
01F000
02F000
036800
0A1D00
1D0B00
380380
B001C0
D000E0
ENDCHAR
STARTCHAR y
ENCODING 121
SWIDTH 459 0
DWIDTH 13 0
BBX 11 18 1 -4
BITMAP
D0001C
A00028
700034
3400B0
2800E0
1C01D0
0D02C0
0A0380
070740
038B00
02CD00
01EC00
00F800
003400
007000
00E000
16C000
BE0000
ENDCHAR
STARTCHAR z
ENCODING 122
SWIDTH 405 0
DWIDTH 11 0
BBX 10 14 1 0
BITMAP
FFFFC0
5557C0
000740
000E00
002C00
007400
00E000
02D000
078000
0B0000
1D0000
380000
B55540
FFFFD0
ENDCHAR
STARTCHAR braceleft
ENCODING 123
SWIDTH 298 0
DWIDTH 8 0
BBX 6 20 1 -2
BITMAP
01E0
0740
0A00
0D00
0D00
0D00
0D00
0D00
0D00
2C00
F400
6C00
0D00
0D00
0D00
0D00
0D00
0900
0B40
02E0
ENDCHAR
STARTCHAR bar
ENCODING 124
SWIDTH 207 0
DWIDTH 6 0
BBX 2 18 2 0
BITMAP
90
90
90
90
90
90
90
90
90
90
90
90
90
90
90
90
90
90
ENDCHAR
STARTCHAR braceright
ENCODING 125
SWIDTH 298 0
DWIDTH 8 0
BBX 6 21 1 -3
BITMAP
F400
6C00
0D00
0A00
0A00
0A00
0A00
0A00
0A00
0740
02E0
0740
0A00
0A00
0A00
0A00
0A00
0A00
1D00
F800
4000
ENDCHAR
STARTCHAR asciitilde
ENCODING 126
SWIDTH 523 0
DWIDTH 15 0
BBX 11 3 2 7
BITMAP
7F9428
E5AFF4
000040
ENDCHAR
STARTCHAR uni00A0
ENCODING 160
SWIDTH 267 0
DWIDTH 7 0
BBX 1 1 0 0
BITMAP
00
ENDCHAR
STARTCHAR exclamdown
ENCODING 161
SWIDTH 237 0
DWIDTH 7 0
BBX 2 18 2 0
BITMAP
70
70
70
70
00
00
60
70
70
70
70
70
70
70
70
70
70
70
ENDCHAR
STARTCHAR cent
ENCODING 162
SWIDTH 414 0
DWIDTH 12 0
BBX 10 20 1 -3
BITMAP
001C00
001C00
001C00
07FFE0
1E5540
380000
340000
740000
740000
740000
740000
740000
740000
340000
380000
1E5540
07FFE0
001C00
001C00
000400
ENDCHAR
STARTCHAR sterling
ENCODING 163
SWIDTH 528 0
DWIDTH 15 0
BBX 12 18 1 0
BITMAP
01BFE4
07956C
0A000E
0E000A
0D000A
0D0000
0D0000
0D0000
0D0000
FFFF40
5E5500
0D0000
0D0000
0D0000
0D0000
0D0000
6D5555
FFFFFF
ENDCHAR
STARTCHAR yen
ENCODING 165
SWIDTH 499 0
DWIDTH 14 0
BBX 12 18 1 0
BITMAP
E0000B
B0000E
38002C
2C0038
0D00B0
0B00E0
0342C0
02C340
FFD7FF
00BE00
003C00
002800
FFFFFF
556955
002800
002800
002800
002800
ENDCHAR
STARTCHAR brokenbar
ENCODING 166
SWIDTH 201 0
DWIDTH 6 0
BBX 2 18 2 0
BITMAP
90
90
90
90
90
90
90
00
00
00
00
90
90
90
90
90
90
90
ENDCHAR
STARTCHAR section
ENCODING 167
SWIDTH 454 0
DWIDTH 13 0
BBX 10 18 1 0
BITMAP
0BFFC0
2D5540
740000
700000
740000
7D4000
77FE40
7016D0
7000B0
340070
2E4070
06FEB0
0006F0
0000B0
000070
0000B0
1556D0
3FFE40
ENDCHAR
STARTCHAR dieresis
ENCODING 168
SWIDTH 345 0
DWIDTH 10 0
BBX 6 4 2 15
BITMAP
D0A0
D0A0
D0A0
D0A0
ENDCHAR
STARTCHAR copyright
ENCODING 169
SWIDTH 723 0
DWIDTH 20 0
BBX 17 18 2 0
BITMAP
1BFFFFF400
7955555E00
A000000700
D000000300
C01BF40340
C0755D0340
C0A0060340
C090060340
C090000340
C090000340
C090000340
C090060340
C0A0060340
C074190340
D01BF40300
A000000700
7955555E00
1BFFFFF400
ENDCHAR
STARTCHAR guillemotleft
ENCODING 171
SWIDTH 431 0
DWIDTH 12 0
BBX 9 10 2 2
BITMAP
014140
070700
1D1C00
747000
D1C000
D0D000
747400
1D1D00
034700
000100
ENDCHAR
STARTCHAR registered
ENCODING 174
SWIDTH 439 0
DWIDTH 12 0
BBX 9 9 2 10
BITMAP
2FF900
ABE700
C66240
852140
87E140
865240
D41700
7FFD00
055000
ENDCHAR
STARTCHAR macron
ENCODING 175
SWIDTH 358 0
DWIDTH 10 0
BBX 6 2 2 16
BITMAP
FFF0
5550
ENDCHAR
STARTCHAR degree
ENCODING 176
SWIDTH 298 0
DWIDTH 8 0
BBX 4 7 2 12
BITMAP
7E
97
82
82
93
BF
14
ENDCHAR
STARTCHAR plusminus
ENCODING 177
SWIDTH 523 0
DWIDTH 15 0
BBX 11 12 2 2
BITMAP
007000
007000
007000
FFFFF8
557550
007000
007000
007000
000000
000000
FFFFF8
555550
ENDCHAR
STARTCHAR acute
ENCODING 180
SWIDTH 269 0
DWIDTH 8 0
BBX 4 4 2 15
BITMAP
1D
38
A0
40
ENDCHAR
STARTCHAR paragraph
ENCODING 182
SWIDTH 513 0
DWIDTH 14 0
BBX 11 18 1 0
BITMAP
1BFFFC
3FD56C
7FC01C
BFC01C
BFC01C
BFC01C
7FC01C
7FC01C
1BC01C
01C01C
01C01C
01C01C
01C01C
01C01C
01C01C
01C01C
01C01C
01C01C
ENDCHAR
STARTCHAR periodcentered
ENCODING 183
SWIDTH 207 0
DWIDTH 6 0
BBX 2 4 2 7
BITMAP
E0
E0
E0
E0
ENDCHAR
STARTCHAR cedilla
ENCODING 184
SWIDTH 257 0
DWIDTH 7 0
BBX 4 7 2 -6
BITMAP
04
60
F8
09
09
F8
40
ENDCHAR
STARTCHAR guillemotright
ENCODING 187
SWIDTH 431 0
DWIDTH 12 0
BBX 9 10 2 2
BITMAP
414000
D0D000
383400
0E0D00
034340
070700
1D1D00
747400
D0D000
404000
ENDCHAR
STARTCHAR questiondown
ENCODING 191
SWIDTH 473 0
DWIDTH 13 0
BBX 10 18 2 0
BITMAP
01D000
01D000
01D000
01D000
000000
000000
01C000
01C000
02C000
074000
2D0000
740000
E00040
D001D0
D001D0
A001C0
795B80
1BFD00
ENDCHAR
STARTCHAR Agrave
ENCODING 192
SWIDTH 532 0
DWIDTH 15 0
BBX 13 23 1 0
BITMAP
02C00000
00A00000
00340000
00040000
00000000
002E0000
003F0000
00774000
00A38000
00D2C000
01D1D000
02C0D000
0380A000
07407000
0B003400
0E002800
1D001C00
1FFFFD00
29555A00
34000700
70000340
A0000280
D00001C0
ENDCHAR
STARTCHAR Aacute
ENCODING 193
SWIDTH 532 0
DWIDTH 15 0
BBX 13 23 1 0
BITMAP
0001E000
00028000
00070000
00040000
00000000
002E0000
003F0000
00774000
00A38000
00D2C000
01D1D000
02C0D000
0380A000
07407000
0B003400
0E002800
1D001C00
1FFFFD00
29555A00
34000700
70000340
A0000280
D00001C0
ENDCHAR
STARTCHAR Acircumflex
ENCODING 194
SWIDTH 532 0
DWIDTH 15 0
BBX 13 23 1 0
BITMAP
002D0000
00770000
00928000
00404000
00000000
002E0000
003F0000
00774000
00A38000
00D2C000
01D1D000
02C0D000
0380A000
07407000
0B003400
0E002800
1D001C00
1FFFFD00
29555A00
34000700
70000340
A0000280
D00001C0
ENDCHAR
STARTCHAR Atilde
ENCODING 195
SWIDTH 532 0
DWIDTH 15 0
BBX 13 23 1 0
BITMAP
0247C000
02499000
01585000
00A45000
00000000
002E0000
003F0000
00774000
00A38000
00D2C000
01D1D000
02C0D000
0380A000
07407000
0B003400
0E002800
1D001C00
1FFFFD00
29555A00
34000700
70000340
A0000280
D00001C0
ENDCHAR
STARTCHAR Adieresis
ENCODING 196
SWIDTH 532 0
DWIDTH 15 0
BBX 13 23 1 0
BITMAP
01C0D000
02C0D000
02C0D000
01C0D000
00000000
002E0000
003F0000
00774000
00A38000
00D2C000
01D1D000
02C0D000
0380A000
07407000
0B003400
0E002800
1D001C00
1FFFFD00
29555A00
34000700
70000340
A0000280
D00001C0
ENDCHAR
STARTCHAR Aring
ENCODING 197
SWIDTH 532 0
DWIDTH 15 0
BBX 13 24 1 0
BITMAP
007F4000
00968000
00C08000
00918000
007F4000
00040000
002E0000
003F0000
00774000
00A38000
00D2C000
01D1D000
02C0D000
0380A000
07407000
0B003400
0E002800
1D001C00
1FFFFD00
29555A00
34000700
70000340
A0000280
D00001C0
ENDCHAR
STARTCHAR AE
ENCODING 198
SWIDTH 773 0
DWIDTH 22 0
BBX 20 18 0 0
BITMAP
00002FFFFE
00003F5555
0000B70000
0001D70000
0002870000
0007470000
000A070000
001D070000
003807FFFC
0070075554
00E0070000
02C0070000
03FFFF0000
0B555B0000
1D00070000
2800070000
7400075555
A00007FFFE
ENDCHAR
STARTCHAR Ccedilla
ENCODING 199
SWIDTH 542 0
DWIDTH 15 0
BBX 12 24 2 -6
BITMAP
1BFFE0
795578
B0001D
E0000D
E0000D
E00009
E00000
E00000
E00000
E00000
E00000
E00000
E00009
E0000D
E0000D
B0001D
795578
1BFFE0
002400
007800
001600
000700
007E00
001000
ENDCHAR
STARTCHAR Egrave
ENCODING 200
SWIDTH 481 0
DWIDTH 13 0
BBX 10 23 2 0
BITMAP
0B0000
038000
00D000
005000
000000
BFFFE0
B55540
A00000
A00000
A00000
A00000
A00000
A00000
BFFF80
B55500
A00000
A00000
A00000
A00000
A00000
A00000
B55540
BFFFE0
ENDCHAR
STARTCHAR Eacute
ENCODING 201
SWIDTH 481 0
DWIDTH 13 0
BBX 10 23 2 0
BITMAP
000E00
002C00
007400
005000
000000
BFFFE0
B55540
A00000
A00000
A00000
A00000
A00000
A00000
BFFF80
B55500
A00000
A00000
A00000
A00000
A00000
A00000
B55540
BFFFE0
ENDCHAR
STARTCHAR Ecircumflex
ENCODING 202
SWIDTH 481 0
DWIDTH 13 0
BBX 10 23 2 0
BITMAP
00F000
02A800
070D00
050500
000000
BFFFE0
B55540
A00000
A00000
A00000
A00000
A00000
A00000
BFFF80
B55500
A00000
A00000
A00000
A00000
A00000
A00000
B55540
BFFFE0
ENDCHAR
STARTCHAR Edieresis
ENCODING 203
SWIDTH 481 0
DWIDTH 13 0
BBX 10 23 2 0
BITMAP
0D0700
0D0700
0D0700
0D0700
000000
BFFFE0
B55540
A00000
A00000
A00000
A00000
A00000
A00000
BFFF80
B55500
A00000
A00000
A00000
A00000
A00000
A00000
B55540
BFFFE0
ENDCHAR
STARTCHAR Igrave
ENCODING 204
SWIDTH 230 0
DWIDTH 6 0
BBX 4 23 0 0
BITMAP
B0
38
1D
05
00
07
07
07
07
07
07
07
07
07
07
07
07
07
07
07
07
07
07
ENDCHAR
STARTCHAR Iacute
ENCODING 205
SWIDTH 231 0
DWIDTH 6 0
BBX 5 23 2 0
BITMAP
0B40
1D00
2800
1000
0000
7000
7000
7000
7000
7000
7000
7000
7000
7000
7000
7000
7000
7000
7000
7000
7000
7000
7000
ENDCHAR
STARTCHAR Icircumflex
ENCODING 206
SWIDTH 229 0
DWIDTH 6 0
BBX 6 23 0 0
BITMAP
0B40
1980
3490
5010
0000
0700
0700
0700
0700
0700
0700
0700
0700
0700
0700
0700
0700
0700
0700
0700
0700
0700
0700
ENDCHAR
STARTCHAR Idieresis
ENCODING 207
SWIDTH 230 0
DWIDTH 6 0
BBX 7 23 0 0
BITMAP
A030
A074
A074
A030
0000
0700
0700
0700
0700
0700
0700
0700
0700
0700
0700
0700
0700
0700
0700
0700
0700
0700
0700
ENDCHAR
STARTCHAR Eth
ENCODING 208
SWIDTH 514 0
DWIDTH 14 0
BBX 14 18 0 0
BITMAP
0BFFFE00
0B555780
0B0001D0
0B0000E0
0B0000A0
0B0000A0
0B0000A0
0B0000A0
7FFF80A0
1B5500A0
0B0000A0
0B0000A0
0B0000A0
0B0000A0
0B0000E0
0B0001D0
0B555780
0BFFFE00
ENDCHAR
STARTCHAR Ntilde
ENCODING 209
SWIDTH 579 0
DWIDTH 16 0
BBX 12 23 2 0
BITMAP
030B80
031DC0
026480
01F080
000000
B0000B
B8000B
BC000B
AE000B
A7400B
A2800B
A0D00B
A0B00B
A0380B
A01D0B
A00A0B
A0074B
A002CB
A000DB
A0007B
A0002F
A0001F
A0000B
ENDCHAR
STARTCHAR Ograve
ENCODING 210
SWIDTH 553 0
DWIDTH 15 0
BBX 12 23 2 0
BITMAP
078000
01D000
00A000
001000
000000
1BFFE0
7955B8
B0001C
E0000D
E0000D
E0000D
E0000D
E0000D
E0000D
E0000D
E0000D
E0000D
E0000D
E0000D
E0000D
B0001C
7955B8
1BFFE0
ENDCHAR
STARTCHAR Oacute
ENCODING 211
SWIDTH 553 0
DWIDTH 15 0
BBX 12 23 2 0
BITMAP
000780
000E00
001C00
001000
000000
1BFFE0
7955B8
B0001C
E0000D
E0000D
E0000D
E0000D
E0000D
E0000D
E0000D
E0000D
E0000D
E0000D
E0000D
E0000D
B0001C
7955B8
1BFFE0
ENDCHAR
STARTCHAR Ocircumflex
ENCODING 212
SWIDTH 553 0
DWIDTH 15 0
BBX 12 23 2 0
BITMAP
007800
00D900
018700
010140
000000
1BFFE0
7955B8
B0001C
E0000D
E0000D
E0000D
E0000D
E0000D
E0000D
E0000D
E0000D
E0000D
E0000D
E0000D
E0000D
B0001C
7955B8
1BFFE0
ENDCHAR
STARTCHAR Otilde
ENCODING 213
SWIDTH 553 0
DWIDTH 15 0
BBX 12 23 2 0
BITMAP
060F40
062A80
063080
03E080
004000
1BFFE0
7955B8
B0001C
E0000D
E0000D
E0000D
E0000D
E0000D
E0000D
E0000D
E0000D
E0000D
E0000D
E0000D
E0000D
B0001C
7955B8
1BFFE0
ENDCHAR
STARTCHAR Odieresis
ENCODING 214
SWIDTH 553 0
DWIDTH 15 0
BBX 12 23 2 0
BITMAP
070280
070280
070280
070280
000000
1BFFE0
7955B8
B0001C
E0000D
E0000D
E0000D
E0000D
E0000D
E0000D
E0000D
E0000D
E0000D
E0000D
E0000D
E0000D
B0001C
7955B8
1BFFE0
ENDCHAR
STARTCHAR multiply
ENCODING 215
SWIDTH 493 0
DWIDTH 14 0
BBX 9 8 2 5
BITMAP
7402C0
2D0B40
0B6D00
02F400
02F400
0B6D00
2D0B40
7402C0
ENDCHAR
STARTCHAR Oslash
ENCODING 216
SWIDTH 559 0
DWIDTH 16 0
BBX 13 18 1 0
BITMAP
06FFF880
0E555FC0
2C000740
28000F40
38002B40
38007380
3800D380
38028380
38060380
381C0380
38340380
38A00380
39C00380
3B400380
2E000340
2C000740
7E555E00
56FFF800
ENDCHAR
STARTCHAR Ugrave
ENCODING 217
SWIDTH 552 0
DWIDTH 15 0
BBX 12 23 2 0
BITMAP
038000
01D000
007000
001400
000000
A0000D
A0001D
A0001D
A0001D
A0001D
A0001D
A0001D
A0001D
A0001D
A0001D
A0001D
A0001D
A0001D
A0001D
A0001D
B0002C
3955B4
0BFFD0
ENDCHAR
STARTCHAR Uacute
ENCODING 218
SWIDTH 552 0
DWIDTH 15 0
BBX 12 23 2 0
BITMAP
000780
000A00
001C00
001000
000000
A0000D
A0001D
A0001D
A0001D
A0001D
A0001D
A0001D
A0001D
A0001D
A0001D
A0001D
A0001D
A0001D
A0001D
A0001D
B0002C
3955B4
0BFFD0
ENDCHAR
STARTCHAR Ucircumflex
ENCODING 219
SWIDTH 552 0
DWIDTH 15 0
BBX 12 23 2 0
BITMAP
007800
00D900
018700
010140
000000
A0000D
A0001D
A0001D
A0001D
A0001D
A0001D
A0001D
A0001D
A0001D
A0001D
A0001D
A0001D
A0001D
A0001D
A0001D
B0002C
3955B4
0BFFD0
ENDCHAR
STARTCHAR Udieresis
ENCODING 220
SWIDTH 552 0
DWIDTH 15 0
BBX 12 23 2 0
BITMAP
070280
070280
070280
070280
000000
A0000D
A0001D
A0001D
A0001D
A0001D
A0001D
A0001D
A0001D
A0001D
A0001D
A0001D
A0001D
A0001D
A0001D
A0001D
B0002C
3955B4
0BFFD0
ENDCHAR
STARTCHAR Yacute
ENCODING 221
SWIDTH 493 0
DWIDTH 14 0
BBX 12 23 1 0
BITMAP
000380
000B00
001D00
001400
000000
D0000B
B0000D
74002C
2C0034
1D00B0
0B00D0
0742C0
02C340
01DB00
00BD00
007C00
002800
002800
002800
002800
002800
002800
002800
ENDCHAR
STARTCHAR Thorn
ENCODING 222
SWIDTH 501 0
DWIDTH 14 0
BBX 9 18 3 0
BITMAP
A00000
A00000
A00000
A00000
BFF900
A55B40
A002C0
A001C0
A001C0
A001C0
A001C0
A002C0
A00780
BFFE00
A55000
A00000
A00000
A00000
ENDCHAR
STARTCHAR germandbls
ENCODING 223
SWIDTH 540 0
DWIDTH 15 0
BBX 11 18 2 0
BITMAP
1BFF90
3955B4
B00038
A0002C
A0002C
A0002C
A00028
A000B4
A03FD0
A015B4
A00028
A0001C
A0001C
A0001C
A0001C
A0002C
A015B4
A0BF90
ENDCHAR
STARTCHAR agrave
ENCODING 224
SWIDTH 502 0
DWIDTH 14 0
BBX 11 19 1 0
BITMAP
00E000
007400
001C00
000400
000000
07FFFC
1E556C
38001C
34001C
74001C
74001C
74001C
74001C
74001C
74001C
34002C
38002C
1E55BC
07FF9C
ENDCHAR
STARTCHAR aacute
ENCODING 225
SWIDTH 502 0
DWIDTH 14 0
BBX 11 19 1 0
BITMAP
0002D0
000740
000D00
000400
000000
07FFFC
1E556C
38001C
34001C
74001C
74001C
74001C
74001C
74001C
74001C
34002C
38002C
1E55BC
07FF9C
ENDCHAR
STARTCHAR acircumflex
ENCODING 226
SWIDTH 502 0
DWIDTH 14 0
BBX 11 19 1 0
BITMAP
002D00
007700
00D280
004040
000000
07FFFC
1E556C
38001C
34001C
74001C
74001C
74001C
74001C
74001C
74001C
34002C
38002C
1E55BC
07FF9C
ENDCHAR
STARTCHAR atilde
ENCODING 227
SWIDTH 504 0
DWIDTH 14 0
BBX 11 19 1 0
BITMAP
0147D0
018DA0
00B460
000000
000000
07FFFC
1E556C
38001C
34001C
74001C
74001C
74001C
74001C
74001C
74001C
34002C
38002C
1E55BC
07FF9C
ENDCHAR
STARTCHAR adieresis
ENCODING 228
SWIDTH 502 0
DWIDTH 14 0
BBX 11 19 1 0
BITMAP
01C0D0
01C0D0
01C0D0
01C0D0
000000
07FFFC
1E556C
38001C
34001C
74001C
74001C
74001C
74001C
74001C
74001C
34002C
38002C
1E55BC
07FF9C
ENDCHAR
STARTCHAR aring
ENCODING 229
SWIDTH 502 0
DWIDTH 14 0
BBX 11 20 1 0
BITMAP
00BE00
00D640
008140
008240
00BF00
001400
07FFFC
1E556C
38001C
34001C
74001C
74001C
74001C
74001C
74001C
74001C
34002C
38002C
1E55BC
07FF9C
ENDCHAR
STARTCHAR ae
ENCODING 230
SWIDTH 795 0
DWIDTH 22 0
BBX 20 14 1 0
BITMAP
0BFF81FFE0
0555BB5578
00003D000D
00002C000D
00002C0009
00002C0009
07FFFC0009
2D002FFFFD
34002D5554
74002C0000
74002C0000
34003D0000
2E55AB5554
06FF82FFFD
ENDCHAR
STARTCHAR ccedilla
ENCODING 231
SWIDTH 394 0
DWIDTH 11 0
BBX 9 20 1 -6
BITMAP
07FFC0
1E5540
380000
340000
740000
740000
740000
740000
740000
740000
340000
380000
1E5540
07FFC0
002400
00B800
001A00
000600
007D00
001000
ENDCHAR
STARTCHAR egrave
ENCODING 232
SWIDTH 492 0
DWIDTH 14 0
BBX 11 19 1 0
BITMAP
02C000
00E000
003400
000400
000000
07FF90
1E55B4
380028
34001C
74001C
74001C
74001C
7FFFFC
755554
740000
340000
380000
1E5554
07FFFC
ENDCHAR
STARTCHAR eacute
ENCODING 233
SWIDTH 492 0
DWIDTH 14 0
BBX 11 19 1 0
BITMAP
000780
000E00
002800
001000
000000
07FF90
1E55B4
380028
34001C
74001C
74001C
74001C
7FFFFC
755554
740000
340000
380000
1E5554
07FFFC
ENDCHAR
STARTCHAR ecircumflex
ENCODING 234
SWIDTH 492 0
DWIDTH 14 0
BBX 11 19 1 0
BITMAP
003C00
009A00
01C340
010040
000000
07FF90
1E55B4
380028
34001C
74001C
74001C
74001C
7FFFFC
755554
740000
340000
380000
1E5554
07FFFC
ENDCHAR
STARTCHAR edieresis
ENCODING 235
SWIDTH 492 0
DWIDTH 14 0
BBX 11 19 1 0
BITMAP
0341C0
0341C0
0341C0
0341C0
000000
07FF90
1E55B4
380028
34001C
74001C
74001C
74001C
7FFFFC
755554
740000
340000
380000
1E5554
07FFFC
ENDCHAR
STARTCHAR igrave
ENCODING 236
SWIDTH 210 0
DWIDTH 6 0
BBX 4 19 0 0
BITMAP
E0
74
1C
04
00
0A
0A
0A
0A
0A
0A
0A
0A
0A
0A
0A
0A
0A
0A
ENDCHAR
STARTCHAR iacute
ENCODING 237
SWIDTH 208 0
DWIDTH 6 0
BBX 4 19 2 0
BITMAP
0F
2C
74
50
00
A0
A0
A0
A0
A0
A0
A0
A0
A0
A0
A0
A0
A0
A0
ENDCHAR
STARTCHAR icircumflex
ENCODING 238
SWIDTH 210 0
DWIDTH 6 0
BBX 6 19 0 0
BITMAP
0F00
2680
70D0
4050
0000
0A00
0A00
0A00
0A00
0A00
0A00
0A00
0A00
0A00
0A00
0A00
0A00
0A00
0A00
ENDCHAR
STARTCHAR idieresis
ENCODING 239
SWIDTH 210 0
DWIDTH 6 0
BBX 6 19 0 0
BITMAP
D070
D070
D070
D070
0000
0A00
0A00
0A00
0A00
0A00
0A00
0A00
0A00
0A00
0A00
0A00
0A00
0A00
0A00
ENDCHAR
STARTCHAR eth
ENCODING 240
SWIDTH 488 0
DWIDTH 14 0
BBX 11 19 1 0
BITMAP
034060
01D2D0
00BA00
003C00
01EA00
074280
0500E0
000034
07FFA8
2E55BC
38003C
34002C
74002C
74002C
74002C
34002C
380028
2E55B4
07FF90
ENDCHAR
STARTCHAR ntilde
ENCODING 241
SWIDTH 507 0
DWIDTH 14 0
BBX 11 19 2 0
BITMAP
0C2E00
0C6700
0BD200
010000
000000
D7FF40
E956E0
F000B0
E00074
E00034
E00034
E00034
E00034
E00034
E00034
E00034
E00034
E00034
D00034
ENDCHAR
STARTCHAR ograve
ENCODING 242
SWIDTH 496 0
DWIDTH 14 0
BBX 11 19 1 0
BITMAP
038000
01D000
007000
001000
000000
07FF90
1E55B4
38002C
34001C
74001C
74001C
74001C
74001C
74001C
74001C
34001C
38002C
1E55B4
07FF90
ENDCHAR
STARTCHAR oacute
ENCODING 243
SWIDTH 496 0
DWIDTH 14 0
BBX 11 19 1 0
BITMAP
0002C0
000B00
001D00
001400
000000
07FF90
1E55B4
38002C
34001C
74001C
74001C
74001C
74001C
74001C
74001C
34001C
38002C
1E55B4
07FF90
ENDCHAR
STARTCHAR ocircumflex
ENCODING 244
SWIDTH 496 0
DWIDTH 14 0
BBX 11 19 1 0
BITMAP
003C00
009A00
018340
010140
000000
07FF90
1E55B4
38002C
34001C
74001C
74001C
74001C
74001C
74001C
74001C
34001C
38002C
1E55B4
07FF90
ENDCHAR
STARTCHAR otilde
ENCODING 245
SWIDTH 496 0
DWIDTH 14 0
BBX 11 19 1 0
BITMAP
020F40
0329C0
03F0C0
004000
000000
07FF90
1E55B4
38002C
34001C
74001C
74001C
74001C
74001C
74001C
74001C
34001C
38002C
1E55B4
07FF90
ENDCHAR
STARTCHAR odieresis
ENCODING 246
SWIDTH 496 0
DWIDTH 14 0
BBX 11 19 1 0
BITMAP
0341C0
0341C0
0341C0
0341C0
000000
07FF90
1E55B4
38002C
34001C
74001C
74001C
74001C
74001C
74001C
74001C
34001C
38002C
1E55B4
07FF90
ENDCHAR
STARTCHAR divide
ENCODING 247
SWIDTH 510 0
DWIDTH 14 0
BBX 11 10 2 4
BITMAP
006000
006000
000000
000000
FFFFF4
555550
000000
000000
006000
006000
ENDCHAR
STARTCHAR oslash
ENCODING 248
SWIDTH 521 0
DWIDTH 15 0
BBX 13 14 1 0
BITMAP
06FFE000
0E557A80
2C001E00
28002D00
3800AD00
38028D00
380A0D00
38280D00
38E00D00
3B800D00
2E000D00
3C001D00
EE557800
46FFE000
ENDCHAR
STARTCHAR ugrave
ENCODING 249
SWIDTH 507 0
DWIDTH 14 0
BBX 10 19 2 0
BITMAP
0F0000
038000
01D000
001000
000000
D00070
D00070
D00070
D00070
D00070
D00070
D00070
D00070
D00070
D00070
D00070
E000B0
7956F0
1BFE70
ENDCHAR
STARTCHAR uacute
ENCODING 250
SWIDTH 507 0
DWIDTH 14 0
BBX 10 19 2 0
BITMAP
000B00
001D00
003400
001000
000000
D00070
D00070
D00070
D00070
D00070
D00070
D00070
D00070
D00070
D00070
D00070
E000B0
7956F0
1BFE70
ENDCHAR
STARTCHAR ucircumflex
ENCODING 251
SWIDTH 507 0
DWIDTH 14 0
BBX 10 19 2 0
BITMAP
00F000
029800
070D00
050100
000000
D00070
D00070
D00070
D00070
D00070
D00070
D00070
D00070
D00070
D00070
D00070
E000B0
7956F0
1BFE70
ENDCHAR
STARTCHAR udieresis
ENCODING 252
SWIDTH 507 0
DWIDTH 14 0
BBX 10 19 2 0
BITMAP
0D0700
0D0700
0D0700
0D0700
000000
D00070
D00070
D00070
D00070
D00070
D00070
D00070
D00070
D00070
D00070
D00070
E000B0
7956F0
1BFE70
ENDCHAR
STARTCHAR yacute
ENCODING 253
SWIDTH 459 0
DWIDTH 13 0
BBX 11 23 1 -4
BITMAP
000740
000E00
002800
001000
000000
D0001C
A00028
700034
3400B0
2800E0
1C01D0
0D02C0
0A0380
070740
038B00
02CD00
01EC00
00F800
003400
007000
00E000
16C000
BE0000
ENDCHAR
STARTCHAR thorn
ENCODING 254
SWIDTH 508 0
DWIDTH 14 0
BBX 11 23 2 -4
BITMAP
A00000
A00000
A00000
A00000
A00000
A6FF80
AD55E0
B00074
A00034
A00034
A00034
A00034
A00034
A00034
A00034
A00034
B00074
BD55E0
A7FF80
A00000
A00000
A00000
A00000
ENDCHAR
STARTCHAR ydieresis
ENCODING 255
SWIDTH 459 0
DWIDTH 13 0
BBX 11 23 1 -4
BITMAP
0A0340
0B0340
0B0340
0A0340
000000
D0001C
A00028
700034
3400B0
2800E0
1C01D0
0D02C0
0A0380
070740
038B00
02CD00
01EC00
00F800
003400
007000
00E000
16C000
BE0000
ENDCHAR
STARTCHAR Amacron
ENCODING 256
SWIDTH 532 0
DWIDTH 15 0
BBX 13 22 1 0
BITMAP
02FFE000
00554000
00000000
00000000
002E0000
003F0000
00774000
00A38000
00D2C000
01D1D000
02C0D000
0380A000
07407000
0B003400
0E002800
1D001C00
1FFFFD00
29555A00
34000700
70000340
A0000280
D00001C0
ENDCHAR
STARTCHAR amacron
ENCODING 257
SWIDTH 502 0
DWIDTH 14 0
BBX 11 18 1 0
BITMAP
01FFF0
005550
000000
000000
07FFFC
1E556C
38001C
34001C
74001C
74001C
74001C
74001C
74001C
74001C
34002C
38002C
1E55BC
07FF9C
ENDCHAR
STARTCHAR Abreve
ENCODING 258
SWIDTH 532 0
DWIDTH 15 0
BBX 13 23 1 0
BITMAP
01809000
0180C000
00D1C000
006E4000
00000000
002E0000
003F0000
00774000
00A38000
00D2C000
01D1D000
02C0D000
0380A000
07407000
0B003400
0E002800
1D001C00
1FFFFD00
29555A00
34000700
70000340
A0000280
D00001C0
ENDCHAR
STARTCHAR abreve
ENCODING 259
SWIDTH 502 0
DWIDTH 14 0
BBX 11 19 1 0
BITMAP
018090
00C0C0
006E40
000000
000000
07FFFC
1E556C
38001C
34001C
74001C
74001C
74001C
74001C
74001C
74001C
34002C
38002C
1E55BC
07FF9C
ENDCHAR
STARTCHAR Aogonek
ENCODING 260
SWIDTH 532 0
DWIDTH 15 0
BBX 13 22 1 -4
BITMAP
002E0000
003F0000
00774000
00A38000
00D2C000
01D1D000
02C0D000
0380A000
07407000
0B003400
0E002800
1D001C00
1FFFFD00
29555A00
34000700
70000340
A0000280
D00002C0
00000600
00000800
00001F40
00000400
ENDCHAR
STARTCHAR aogonek
ENCODING 261
SWIDTH 502 0
DWIDTH 14 0
BBX 11 18 1 -4
BITMAP
07FFFC
1E556C
38001C
34001C
74001C
74001C
74001C
74001C
74001C
74001C
34002C
38002C
1E55BC
07FFAC
000060
000080
0001F4
000040
ENDCHAR
STARTCHAR Cacute
ENCODING 262
SWIDTH 542 0
DWIDTH 15 0
BBX 12 23 2 0
BITMAP
000780
000A00
001C00
001000
000000
1BFFE0
795578
B0001D
E0000D
E0000D
E00009
E00000
E00000
E00000
E00000
E00000
E00000
E00009
E0000D
E0000D
B0001D
795578
1BFFE0
ENDCHAR
STARTCHAR cacute
ENCODING 263
SWIDTH 394 0
DWIDTH 11 0
BBX 9 19 1 0
BITMAP
000B40
001D00
003400
001000
000000
07FFC0
1E5540
380000
340000
740000
740000
740000
740000
740000
740000
340000
380000
1E5540
07FFC0
ENDCHAR
STARTCHAR Cdotaccent
ENCODING 266
SWIDTH 542 0
DWIDTH 15 0
BBX 12 23 2 0
BITMAP
003400
003400
003400
000000
000000
1BFFE0
795578
B0001D
E0000D
E0000D
E00009
E00000
E00000
E00000
E00000
E00000
E00000
E00009
E0000D
E0000D
B0001D
795578
1BFFE0
ENDCHAR
STARTCHAR cdotaccent
ENCODING 267
SWIDTH 394 0
DWIDTH 11 0
BBX 9 19 1 0
BITMAP
007000
007000
007000
000000
000000
07FFC0
1E5540
380000
340000
740000
740000
740000
740000
740000
740000
340000
380000
1E5540
07FFC0
ENDCHAR
STARTCHAR Ccaron
ENCODING 268
SWIDTH 542 0
DWIDTH 15 0
BBX 12 23 2 0
BITMAP
024340
00C600
00AC00
001400
000000
1BFFE0
795578
B0001D
E0000D
E0000D
E00009
E00000
E00000
E00000
E00000
E00000
E00000
E00009
E0000D
E0000D
B0001D
795578
1BFFE0
ENDCHAR
STARTCHAR ccaron
ENCODING 269
SWIDTH 394 0
DWIDTH 11 0
BBX 9 19 1 0
BITMAP
034300
01C900
00A800
001000
000000
07FFC0
1E5540
380000
340000
740000
740000
740000
740000
740000
740000
340000
380000
1E5540
07FFC0
ENDCHAR
STARTCHAR Dcaron
ENCODING 270
SWIDTH 557 0
DWIDTH 16 0
BBX 12 23 2 0
BITMAP
024340
01CA00
00AC00
001400
000000
BFFFE0
B55578
A0001D
A0000D
A0000E
A0000E
A0000E
A0000E
A0000E
A0000E
A0000E
A0000E
A0000E
A0000E
A0000D
A0001D
B55578
BFFFE0
ENDCHAR
STARTCHAR dcaron
ENCODING 271
SWIDTH 534 0
DWIDTH 15 0
BBX 14 19 1 0
BITMAP
00001C70
00001C70
00001C70
00001C70
00001C60
07FE5C50
1FFFEC50
3D007C00
34002C00
74001C00
74001C00
74001C00
74001C00
74001C00
74001C00
34001C00
38002C00
1E55BC00
07FF9C00
ENDCHAR
STARTCHAR Dcroat
ENCODING 272
SWIDTH 514 0
DWIDTH 14 0
BBX 14 18 0 0
BITMAP
0BFFFE00
0B555780
0B0001D0
0B0000E0
0B0000A0
0B0000A0
0B0000A0
7FFF80A0
1B5500A0
0B0000A0
0B0000A0
0B0000A0
0B0000A0
0B0000A0
0B0000E0
0B0001D0
0B555780
0BFFFE00
ENDCHAR
STARTCHAR dcroat
ENCODING 273
SWIDTH 539 0
DWIDTH 15 0
BBX 14 19 1 0
BITMAP
00001C00
00001C00
00001C00
007FFFD0
00156D40
00001C00
00001C00
07FF9C00
2E55BC00
38002C00
34001C00
74001C00
74001C00
74001C00
74001C00
34001C00
38002C00
1E55BC00
07FF9C00
ENDCHAR
STARTCHAR Emacron
ENCODING 274
SWIDTH 481 0
DWIDTH 13 0
BBX 10 22 2 0
BITMAP
0FFF00
055500
000000
000000
BFFFE0
B55540
A00000
A00000
A00000
A00000
A00000
A00000
BFFF80
B55500
A00000
A00000
A00000
A00000
A00000
A00000
B55540
BFFFE0
ENDCHAR
STARTCHAR emacron
ENCODING 275
SWIDTH 492 0
DWIDTH 14 0
BBX 11 18 1 0
BITMAP
03FFC0
015540
000000
000000
07FF90
1E55B4
380028
34001C
74001C
74001C
74001C
7FFFFC
755554
740000
340000
380000
1E5554
07FFFC
ENDCHAR
STARTCHAR Ebreve
ENCODING 276
SWIDTH 481 0
DWIDTH 13 0
BBX 10 23 2 0
BITMAP
0C0600
0C0600
0A0900
02E400
000000
BFFFE0
B55540
A00000
A00000
A00000
A00000
A00000
A00000
BFFF80
B55500
A00000
A00000
A00000
A00000
A00000
A00000
B55540
BFFFE0
ENDCHAR
STARTCHAR ebreve
ENCODING 277
SWIDTH 492 0
DWIDTH 14 0
BBX 11 19 1 0
BITMAP
030180
024240
00BE00
000000
000000
07FF90
1E55B4
380028
34001C
74001C
74001C
74001C
7FFFFC
755554
740000
340000
380000
1E5554
07FFFC
ENDCHAR
STARTCHAR Edotaccent
ENCODING 278
SWIDTH 496 0
DWIDTH 14 0
BBX 10 23 2 0
BITMAP
00A000
00A000
00A000
000000
000000
BFFFE0
B55540
A00000
A00000
A00000
A00000
A00000
A00000
BFFF80
B55500
A00000
A00000
A00000
A00000
A00000
A00000
B55540
BFFFE0
ENDCHAR
STARTCHAR edotaccent
ENCODING 279
SWIDTH 492 0
DWIDTH 14 0
BBX 11 19 1 0
BITMAP
002800
002800
002800
000000
000000
07FF90
1E55B4
380028
34001C
74001C
74001C
74001C
7FFFFC
755554
740000
340000
380000
1E5554
07FFFC
ENDCHAR
STARTCHAR Eogonek
ENCODING 280
SWIDTH 481 0
DWIDTH 13 0
BBX 10 22 2 -4
BITMAP
BFFFE0
B55540
A00000
A00000
A00000
A00000
A00000
A00000
BFFF80
B55500
A00000
A00000
A00000
A00000
A00000
A00000
B55540
BFFFE0
000600
001800
002F00
000400
ENDCHAR
STARTCHAR eogonek
ENCODING 281
SWIDTH 492 0
DWIDTH 14 0
BBX 11 18 1 -4
BITMAP
07FF90
1E55B4
380028
34001C
74001C
74001C
74001C
7FFFFC
755554
740000
340000
380000
1E5554
07FFFC
000180
000200
0007C0
000100
ENDCHAR
STARTCHAR Ecaron
ENCODING 282
SWIDTH 481 0
DWIDTH 13 0
BBX 10 23 2 0
BITMAP
060A00
035C00
01E400
005000
000000
BFFFE0
B55540
A00000
A00000
A00000
A00000
A00000
A00000
BFFF80
B55500
A00000
A00000
A00000
A00000
A00000
A00000
B55540
BFFFE0
ENDCHAR
STARTCHAR ecaron
ENCODING 283
SWIDTH 492 0
DWIDTH 14 0
BBX 11 19 1 0
BITMAP
018240
00D700
007D00
001400
000000
07FF90
1E55B4
380028
34001C
74001C
74001C
74001C
7FFFFC
755554
740000
340000
380000
1E5554
07FFFC
ENDCHAR
STARTCHAR Gcircumflex
ENCODING 284
SWIDTH 539 0
DWIDTH 15 0
BBX 11 23 2 0
BITMAP
007800
00DD00
028600
010100
000000
1BFF90
7955B4
B00028
E0001C
E0001C
E00018
E00000
E00000
E00000
E01FFC
E0056C
E0001C
E0001C
E0001C
E0001C
B00028
7955B4
1BFF90
ENDCHAR
STARTCHAR gcircumflex
ENCODING 285
SWIDTH 506 0
DWIDTH 14 0
BBX 10 23 2 -4
BITMAP
007800
00CD00
024600
010100
000000
1BFFF0
7955B0
E00070
D00070
D00070
D00070
D00070
D00070
D00070
D00070
E000B0
B402F0
2FFE70
015070
000070
0000B0
1556D0
7FFE40
ENDCHAR
STARTCHAR Gbreve
ENCODING 286
SWIDTH 539 0
DWIDTH 15 0
BBX 11 23 2 0
BITMAP
060240
030240
034700
01B900
000000
1BFF90
7955B4
B00028
E0001C
E0001C
E00018
E00000
E00000
E00000
E01FFC
E0056C
E0001C
E0001C
E0001C
E0001C
B00028
7955B4
1BFF90
ENDCHAR
STARTCHAR gbreve
ENCODING 287
SWIDTH 506 0
DWIDTH 14 0
BBX 10 23 2 -4
BITMAP
030180
024240
01BA00
000000
000000
1BFFF0
7955B0
E00070
D00070
D00070
D00070
D00070
D00070
D00070
D00070
E000B0
B402F0
2FFE70
015070
000070
0000B0
1556D0
7FFE40
ENDCHAR
STARTCHAR Gdotaccent
ENCODING 288
SWIDTH 539 0
DWIDTH 15 0
BBX 11 23 2 0
BITMAP
003400
007400
003400
000000
000000
1BFF90
7955B4
B00028
E0001C
E0001C
E00018
E00000
E00000
E00000
E01FFC
E0056C
E0001C
E0001C
E0001C
E0001C
B00028
7955B4
1BFF90
ENDCHAR
STARTCHAR gdotaccent
ENCODING 289
SWIDTH 506 0
DWIDTH 14 0
BBX 10 23 2 -4
BITMAP
003400
003400
003400
000000
000000
1BFFF0
7955B0
E00070
D00070
D00070
D00070
D00070
D00070
D00070
D00070
E000B0
B402F0
2FFE70
015070
000070
0000B0
1556D0
7FFE40
ENDCHAR
STARTCHAR uni0122
ENCODING 290
SWIDTH 539 0
DWIDTH 15 0
BBX 11 25 2 -7
BITMAP
1BFF90
7955B4
B00028
E0001C
E0001C
E00018
E00000
E00000
E00000
E01FFC
E0056C
E0001C
E0001C
E0001C
E0001C
B00028
7955B4
1BFF90
000000
002800
002800
002800
002400
002000
002000
ENDCHAR
STARTCHAR uni0123
ENCODING 291
SWIDTH 506 0
DWIDTH 14 0
BBX 10 25 2 -4
BITMAP
001400
001400
002400
003400
003400
003400
000000
1BFFF0
7955B0
E00070
D00070
D00070
D00070
D00070
D00070
D00070
D00070
E000B0
B402F0
2FFE70
015070
000070
0000B0
1556D0
7FFE40
ENDCHAR
STARTCHAR hcircumflex
ENCODING 293
SWIDTH 507 0
DWIDTH 14 0
BBX 11 21 2 0
BITMAP
007800
00DD00
D18600
E20200
E00000
E00000
E00000
E7FF40
E956E0
F000B0
E00074
E00034
E00034
E00034
E00034
E00034
E00034
E00034
E00034
E00034
D00034
ENDCHAR
STARTCHAR Hbar
ENCODING 294
SWIDTH 523 0
DWIDTH 15 0
BBX 16 18 0 0
BITMAP
070000A0
0B0000A0
0B0000A0
0B0000A0
7FFFFFFD
1B5555A4
0B0000A0
0B0000A0
0B0000A0
0BFFFFE0
0B5555A0
0B0000A0
0B0000A0
0B0000A0
0B0000A0
0B0000A0
0B0000A0
070000A0
ENDCHAR
STARTCHAR hbar
ENCODING 295
SWIDTH 544 0
DWIDTH 15 0
BBX 14 19 0 0
BITMAP
03400000
03400000
03800000
7FFFE000
17954000
03400000
03400000
035FFD00
03E55B80
03C001C0
038001D0
034000D0
034000D0
034000D0
034000D0
034000D0
034000D0
034000D0
034000D0
ENDCHAR
STARTCHAR Itilde
ENCODING 296
SWIDTH 230 0
DWIDTH 6 0
BBX 7 23 0 0
BITMAP
82E0
8370
9A24
7C24
0000
0700
0700
0700
0700
0700
0700
0700
0700
0700
0700
0700
0700
0700
0700
0700
0700
0700
0700
ENDCHAR
STARTCHAR itilde
ENCODING 297
SWIDTH 210 0
DWIDTH 6 0
BBX 6 19 0 0
BITMAP
82D0
CA70
BC30
1000
0000
0A00
0A00
0A00
0A00
0A00
0A00
0A00
0A00
0A00
0A00
0A00
0A00
0A00
0A00
ENDCHAR
STARTCHAR Imacron
ENCODING 298
SWIDTH 230 0
DWIDTH 6 0
BBX 7 22 0 0
BITMAP
FFF4
5550
0000
0000
0700
0700
0700
0700
0700
0700
0700
0700
0700
0700
0700
0700
0700
0700
0700
0700
0700
0700
ENDCHAR
STARTCHAR imacron
ENCODING 299
SWIDTH 208 0
DWIDTH 6 0
BBX 7 18 -1 0
BITMAP
7FFC
1554
0000
0000
0280
0280
0280
0280
0280
0280
0280
0280
0280
0280
0280
0280
0280
0280
ENDCHAR
STARTCHAR Ibreve
ENCODING 300
SWIDTH 231 0
DWIDTH 6 0
BBX 6 23 0 0
BITMAP
9030
6030
7060
1B80
0000
0700
0700
0700
0700
0700
0700
0700
0700
0700
0700
0700
0700
0700
0700
0700
0700
0700
0700
ENDCHAR
STARTCHAR ibreve
ENCODING 301
SWIDTH 211 0
DWIDTH 6 0
BBX 6 19 0 0
BITMAP
9060
A0A0
2F80
0000
0000
0A00
0A00
0A00
0A00
0A00
0A00
0A00
0A00
0A00
0A00
0A00
0A00
0A00
0A00
ENDCHAR
STARTCHAR Iogonek
ENCODING 302
SWIDTH 230 0
DWIDTH 6 0
BBX 3 21 1 -3
BITMAP
1C
1C
1C
1C
1C
1C
1C
1C
1C
1C
1C
1C
1C
1C
1C
1C
1C
1C
20
90
F8
ENDCHAR
STARTCHAR iogonek
ENCODING 303
SWIDTH 210 0
DWIDTH 6 0
BBX 4 23 0 -4
BITMAP
0A
0A
0A
00
00
0A
0A
0A
0A
0A
0A
0A
0A
0A
0A
0A
0A
0A
0A
18
20
7D
10
ENDCHAR
STARTCHAR Idotaccent
ENCODING 304
SWIDTH 230 0
DWIDTH 6 0
BBX 2 22 2 0
BITMAP
70
70
70
00
70
70
70
70
70
70
70
70
70
70
70
70
70
70
70
70
70
70
ENDCHAR
STARTCHAR dotlessi
ENCODING 305
SWIDTH 212 0
DWIDTH 6 0
BBX 2 14 2 0
BITMAP
A0
A0
A0
A0
A0
A0
A0
A0
A0
A0
A0
A0
A0
A0
ENDCHAR
STARTCHAR IJ
ENCODING 306
SWIDTH 721 0
DWIDTH 20 0
BBX 16 18 2 0
BITMAP
70000007
70000007
70000007
70000007
70000007
70000007
70000007
70000007
70000007
70000007
70000007
70140007
70280007
70280007
702C0007
701D000A
700F556D
7002FFE4
ENDCHAR
STARTCHAR ij
ENCODING 307
SWIDTH 419 0
DWIDTH 12 0
BBX 8 23 2 -4
BITMAP
A00D
A00D
A00D
0000
0000
A00D
A00D
A00D
A00D
A00D
A00D
A00D
A00D
A00D
A00D
A00D
A00D
A00D
A00D
000D
001D
0178
0BE0
ENDCHAR
STARTCHAR Jcircumflex
ENCODING 308
SWIDTH 494 0
DWIDTH 14 0
BBX 13 23 1 0
BITMAP
00003800
0000AA00
0001C340
00014140
00000000
00002800
00002800
00002800
00002800
00002800
00002800
00002800
00002800
00002800
00002800
00002800
90002800
D0002800
D0002800
E0002800
B0003800
7955F000
1BFF8000
ENDCHAR
STARTCHAR jcircumflex
ENCODING 309
SWIDTH 209 0
DWIDTH 6 0
BBX 8 23 -2 -4
BITMAP
00F0
0268
060D
0405
0000
00A0
00A0
00A0
00A0
00A0
00A0
00A0
00A0
00A0
00A0
00A0
00A0
00A0
00A0
00E0
00D0
17C0
7E00
ENDCHAR
STARTCHAR uni0136
ENCODING 310
SWIDTH 530 0
DWIDTH 15 0
BBX 12 25 2 -7
BITMAP
A0002C
A00074
A000E0
A00280
A00B00
A01D00
A07800
A0E000
A2F000
A77800
BD1D00
B80B00
B00380
A001D0
A000B0
A00038
A0001D
A0000B
000000
002C00
002C00
002800
002800
002400
001000
ENDCHAR
STARTCHAR uni0137
ENCODING 311
SWIDTH 431 0
DWIDTH 12 0
BBX 10 26 2 -7
BITMAP
D00000
E00000
E00000
E00000
E00000
E002C0
E00740
E00E00
E02C00
E07400
E0E000
E2C000
E1D000
E0B000
E03800
E01D00
E00B00
E00280
D000E0
000000
00D000
00D000
00D000
00C000
008000
004000
ENDCHAR
STARTCHAR Lacute
ENCODING 313
SWIDTH 451 0
DWIDTH 13 0
BBX 10 23 2 0
BITMAP
0B0000
1D0000
340000
100000
000000
A00000
A00000
A00000
A00000
A00000
A00000
A00000
A00000
A00000
A00000
A00000
A00000
A00000
A00000
A00000
A00000
B55550
BFFFF0
ENDCHAR
STARTCHAR lacute
ENCODING 314
SWIDTH 207 0
DWIDTH 6 0
BBX 4 24 2 0
BITMAP
0F
2C
34
50
00
A0
A0
A0
A0
A0
A0
A0
A0
A0
A0
A0
A0
A0
A0
A0
A0
A0
A0
A0
ENDCHAR
STARTCHAR uni013B
ENCODING 315
SWIDTH 451 0
DWIDTH 13 0
BBX 10 25 2 -7
BITMAP
A00000
A00000
A00000
A00000
A00000
A00000
A00000
A00000
A00000
A00000
A00000
A00000
A00000
A00000
A00000
A00000
B55550
BFFFF0
000000
00B000
00B000
00A000
00A000
009000
004000
ENDCHAR
STARTCHAR uni013C
ENCODING 316
SWIDTH 211 0
DWIDTH 6 0
BBX 2 26 2 -7
BITMAP
A0
A0
A0
A0
A0
A0
A0
A0
A0
A0
A0
A0
A0
A0
A0
A0
A0
A0
A0
00
A0
A0
A0
90
80
80
ENDCHAR
STARTCHAR Lcaron
ENCODING 317
SWIDTH 451 0
DWIDTH 13 0
BBX 10 18 2 0
BITMAP
A00700
A00700
A00700
A00700
A00600
A00500
A00400
A00000
A00000
A00000
A00000
A00000
A00000
A00000
A00000
A00000
B55550
BFFFF0
ENDCHAR
STARTCHAR lcaron
ENCODING 318
SWIDTH 274 0
DWIDTH 8 0
BBX 6 19 2 0
BITMAP
A1D0
A1D0
A1D0
A1C0
A180
A180
A140
A000
A000
A000
A000
A000
A000
A000
A000
A000
A000
A000
A000
ENDCHAR
STARTCHAR Ldot
ENCODING 319
SWIDTH 500 0
DWIDTH 14 0
BBX 10 18 2 0
BITMAP
A00000
B00000
B00000
B00000
B00000
B00000
B00000
B01D00
B01D00
B01D00
B01D00
B00000
B00000
B00000
B00000
B00000
B55550
BFFFF0
ENDCHAR
STARTCHAR ldot
ENCODING 320
SWIDTH 314 0
DWIDTH 9 0
BBX 6 19 2 0
BITMAP
A000
A000
A000
A000
A000
A000
A000
A000
A0E0
A0E0
A0E0
A0E0
A000
A000
A000
A000
A000
A000
A000
ENDCHAR
STARTCHAR Lslash
ENCODING 321
SWIDTH 504 0
DWIDTH 14 0
BBX 12 18 0 0
BITMAP
070000
070000
070000
070000
071C00
07F400
1B4000
7F0000
570000
070000
070000
070000
070000
070000
070000
070000
075555
07FFFF
ENDCHAR
STARTCHAR lslash
ENCODING 322
SWIDTH 296 0
DWIDTH 8 0
BBX 8 19 0 0
BITMAP
0280
02C0
02C0
02C0
02C0
02C5
02ED
02E0
1FC0
76C0
02C0
02C0
02C0
02C0
02C0
02C0
02C0
02C0
0280
ENDCHAR
STARTCHAR Nacute
ENCODING 323
SWIDTH 579 0
DWIDTH 16 0
BBX 12 23 2 0
BITMAP
0001D0
000380
000A00
000400
000000
B0000B
B8000B
BC000B
AE000B
A7400B
A2800B
A0D00B
A0B00B
A0380B
A01D0B
A00A0B
A0074B
A002CB
A000DB
A0007B
A0002F
A0001F
A0000B
ENDCHAR
STARTCHAR nacute
ENCODING 324
SWIDTH 507 0
DWIDTH 14 0
BBX 11 19 2 0
BITMAP
000B40
001D00
003400
001000
000000
D7FF40
E956E0
F000B0
E00074
E00034
E00034
E00034
E00034
E00034
E00034
E00034
E00034
E00034
D00034
ENDCHAR
STARTCHAR uni0145
ENCODING 325
SWIDTH 579 0
DWIDTH 16 0
BBX 12 25 2 -7
BITMAP
B0000B
B8000B
BC000B
AE000B
A7400B
A2800B
A0D00B
A0B00B
A0380B
A01D0B
A00A0B
A0074B
A002CB
A000DB
A0007B
A0002F
A0001F
A0000B
000000
002C00
002C00
002800
002800
002400
001000
ENDCHAR
STARTCHAR uni0146
ENCODING 326
SWIDTH 505 0
DWIDTH 14 0
BBX 11 21 2 -7
BITMAP
D7FF40
E956E0
F000B0
E00074
E00034
E00034
E00034
E00034
E00034
E00034
E00034
E00034
E00034
D00034
000000
00B000
00B000
00A000
00A000
009000
004000
ENDCHAR
STARTCHAR Ncaron
ENCODING 327
SWIDTH 579 0
DWIDTH 16 0
BBX 12 23 2 0
BITMAP
018280
009300
003900
001400
000000
B0000B
B8000B
BC000B
AE000B
A7400B
A2800B
A0D00B
A0B00B
A0380B
A01D0B
A00A0B
A0074B
A002CB
A000DB
A0007B
A0002F
A0001F
A0000B
ENDCHAR
STARTCHAR ncaron
ENCODING 328
SWIDTH 507 0
DWIDTH 14 0
BBX 11 19 2 0
BITMAP
070A00
024C00
00E400
005000
000000
D7FF40
E956E0
F000B0
E00074
E00034
E00034
E00034
E00034
E00034
E00034
E00034
E00034
E00034
D00034
ENDCHAR
STARTCHAR Eng
ENCODING 330
SWIDTH 519 0
DWIDTH 15 0
BBX 12 22 2 -4
BITMAP
B00007
B8000B
BD000B
BA000B
B7400B
B2C00B
B0D00B
B0700B
B0380B
B01D0B
B00A0B
B0034B
B002CB
B000EB
B0007B
B0002F
B0001F
A0000B
00000B
00000E
00016D
0003E4
ENDCHAR
STARTCHAR eng
ENCODING 331
SWIDTH 507 0
DWIDTH 14 0
BBX 11 18 2 -4
BITMAP
D7FF40
E956E0
F000B0
E00074
E00034
E00034
E00034
E00034
E00034
E00034
E00034
E00034
E00034
D00034
000074
0000B0
0016E0
002F40
ENDCHAR
STARTCHAR Omacron
ENCODING 332
SWIDTH 553 0
DWIDTH 15 0
BBX 12 22 2 0
BITMAP
07FFC0
015540
000000
000000
1BFFE0
7955B8
B0001C
E0000D
E0000D
E0000D
E0000D
E0000D
E0000D
E0000D
E0000D
E0000D
E0000D
E0000D
E0000D
B0001C
7955B8
1BFFE0
ENDCHAR
STARTCHAR omacron
ENCODING 333
SWIDTH 496 0
DWIDTH 14 0
BBX 11 18 1 0
BITMAP
07FFC0
015540
000000
000000
07FF90
1E55B4
38002C
34001C
74001C
74001C
74001C
74001C
74001C
74001C
34001C
38002C
1E55B4
07FF90
ENDCHAR
STARTCHAR Obreve
ENCODING 334
SWIDTH 553 0
DWIDTH 15 0
BBX 12 23 2 0
BITMAP
030180
030240
024300
00B900
000000
1BFFE0
7955B8
B0001C
E0000D
E0000D
E0000D
E0000D
E0000D
E0000D
E0000D
E0000D
E0000D
E0000D
E0000D
E0000D
B0001C
7955B8
1BFFE0
ENDCHAR
STARTCHAR obreve
ENCODING 335
SWIDTH 496 0
DWIDTH 14 0
BBX 11 19 1 0
BITMAP
024180
028280
00BE00
000000
000000
07FF90
1E55B4
38002C
34001C
74001C
74001C
74001C
74001C
74001C
74001C
34001C
38002C
1E55B4
07FF90
ENDCHAR
STARTCHAR Ohungarumlaut
ENCODING 336
SWIDTH 553 0
DWIDTH 15 0
BBX 12 23 2 0
BITMAP
002870
0070D0
00D180
018300
000000
1BFFE0
7955B8
B0001C
E0000D
E0000D
E0000D
E0000D
E0000D
E0000D
E0000D
E0000D
E0000D
E0000D
E0000D
E0000D
B0001C
7955B8
1BFFE0
ENDCHAR
STARTCHAR ohungarumlaut
ENCODING 337
SWIDTH 496 0
DWIDTH 14 0
BBX 11 19 1 0
BITMAP
001C34
0034A0
00A0C0
00C240
000000
07FF90
1E55B4
38002C
34001C
74001C
74001C
74001C
74001C
74001C
74001C
34001C
38002C
1E55B4
07FF90
ENDCHAR
STARTCHAR OE
ENCODING 338
SWIDTH 775 0
DWIDTH 22 0
BBX 18 18 2 0
BITMAP
1BFFFFFFE0
7955B55540
B000A00000
E000A00000
E000A00000
E000A00000
E000A00000
E000A00000
E000BFFF80
E000B55500
E000A00000
E000A00000
E000A00000
E000A00000
E000A00000
B000A00000
7955B55540
1BFFFFFFE0
ENDCHAR
STARTCHAR oe
ENCODING 339
SWIDTH 812 0
DWIDTH 23 0
BBX 20 14 1 0
BITMAP
07FF91BFE4
1E55B7956D
38002D000E
34001D000B
74001C0007
74001C0007
74001C0007
74001FFFFF
74001D5555
74001C0000
34001C0000
38002D0000
1E55BB5554
07FF91BFFE
ENDCHAR
STARTCHAR Racute
ENCODING 340
SWIDTH 534 0
DWIDTH 15 0
BBX 12 23 2 0
BITMAP
000E00
002C00
007400
005000
000000
BFFF90
B555B4
A00028
A0002C
A0001C
A0001C
A0001C
A0001C
A00028
A000B4
BFFFD0
B55740
A00380
A001D0
A000E0
A00074
A00028
A0001D
ENDCHAR
STARTCHAR racute
ENCODING 341
SWIDTH 313 0
DWIDTH 9 0
BBX 6 19 2 0
BITMAP
02D0
0740
0D00
0400
0000
D6F0
ED50
F000
E000
E000
E000
E000
E000
E000
E000
E000
E000
E000
D000
ENDCHAR
STARTCHAR uni0156
ENCODING 342
SWIDTH 534 0
DWIDTH 15 0
BBX 12 25 2 -7
BITMAP
BFFF90
B555B4
A00028
A0002C
A0001C
A0001C
A0001C
A0001C
A00028
A000B4
BFFFD0
B55740
A00380
A001D0
A000E0
A00074
A00028
A0001D
000000
007400
007400
007000
007000
006000
005000
ENDCHAR
STARTCHAR uni0157
ENCODING 343
SWIDTH 313 0
DWIDTH 9 0
BBX 6 21 2 -7
BITMAP
D6F0
ED50
F000
E000
E000
E000
E000
E000
E000
E000
E000
E000
E000
D000
0000
E000
E000
D000
D000
C000
8000
ENDCHAR
STARTCHAR Rcaron
ENCODING 344
SWIDTH 534 0
DWIDTH 15 0
BBX 12 23 2 0
BITMAP
060A00
025C00
01E400
005000
000000
BFFF90
B555B4
A00028
A0002C
A0001C
A0001C
A0001C
A0001C
A00028
A000B4
BFFFD0
B55740
A00380
A001D0
A000E0
A00074
A00028
A0001D
ENDCHAR
STARTCHAR rcaron
ENCODING 345
SWIDTH 313 0
DWIDTH 9 0
BBX 6 19 2 0
BITMAP
A090
3580
1B00
0500
0000
D6F0
ED50
F000
E000
E000
E000
E000
E000
E000
E000
E000
E000
E000
D000
ENDCHAR
STARTCHAR Sacute
ENCODING 346
SWIDTH 562 0
DWIDTH 16 0
BBX 12 23 2 0
BITMAP
000780
000A00
001C00
001000
000000
0BFFE0
3D55B8
B0001D
A0000D
A0000D
A00000
B00000
3D0000
0BE900
006BE0
0000B8
00001D
50000D
A0000D
A0000D
B0001D
3D5578
0BFFE0
ENDCHAR
STARTCHAR sacute
ENCODING 347
SWIDTH 427 0
DWIDTH 12 0
BBX 10 19 1 0
BITMAP
001D00
003800
00A000
004000
000000
1BFFC0
795540
700000
B00000
740000
2E4000
06E400
001F40
0002C0
0000D0
0000E0
0000D0
1556C0
7FFE40
ENDCHAR
STARTCHAR Scircumflex
ENCODING 348
SWIDTH 562 0
DWIDTH 16 0
BBX 12 23 2 0
BITMAP
003800
009900
01C300
014140
000000
0BFFE0
3D55B8
B0001D
A0000D
A0000D
A00000
B00000
3D0000
0BE900
006BE0
0000B8
00001D
50000D
A0000D
A0000D
B0001D
3D5578
0BFFE0
ENDCHAR
STARTCHAR scircumflex
ENCODING 349
SWIDTH 427 0
DWIDTH 12 0
BBX 10 19 1 0
BITMAP
00E000
026800
060D00
040500
000000
1BFFC0
795540
700000
B00000
740000
2E4000
06E400
001F40
0002C0
0000D0
0000E0
0000D0
1556C0
7FFE40
ENDCHAR
STARTCHAR uni015E
ENCODING 350
SWIDTH 562 0
DWIDTH 16 0
BBX 12 24 2 -6
BITMAP
0BFFE0
3D55B8
B0001D
A0000D
A0000D
A00000
B00000
3D0000
0BE900
006BE0
0000B8
00001D
50000D
A0000D
A0000D
B0001D
3D5578
0BFFE0
002400
007D00
001700
000300
007E00
001000
ENDCHAR
STARTCHAR uni015F
ENCODING 351
SWIDTH 427 0
DWIDTH 12 0
BBX 10 20 1 -6
BITMAP
1BFFC0
795540
700000
B00000
740000
2E0000
06E400
001F40
0002C0
0000D0
0000E0
0000D0
1556C0
7FFE40
00A000
01F400
005C00
001C00
01F800
004000
ENDCHAR
STARTCHAR Scaron
ENCODING 352
SWIDTH 562 0
DWIDTH 16 0
BBX 12 23 2 0
BITMAP
028240
00C600
006C00
001400
000000
0BFFE0
3D55B8
B0001D
A0000D
A0000D
A00000
B00000
3D0000
0BE900
006BE0
0000B8
00001D
50000D
A0000D
A0000D
B0001D
3D5578
0BFFE0
ENDCHAR
STARTCHAR scaron
ENCODING 353
SWIDTH 427 0
DWIDTH 12 0
BBX 10 19 1 0
BITMAP
0A0900
035800
01B000
005000
000000
1BFFC0
795540
700000
B00000
740000
2E4000
06E400
001F40
0002C0
0000D0
0000E0
0000D0
1556C0
7FFE40
ENDCHAR
STARTCHAR uni0162
ENCODING 354
SWIDTH 420 0
DWIDTH 12 0
BBX 12 25 0 -7
BITMAP
7FFFFD
157954
002800
002800
002800
002800
002800
002800
002800
002800
002800
002800
002800
002800
002800
002800
002800
002800
000000
002800
003800
003800
003400
002000
001000
ENDCHAR
STARTCHAR uni0163
ENCODING 355
SWIDTH 347 0
DWIDTH 10 0
BBX 9 24 0 -7
BITMAP
034000
034000
034000
7FFF40
179500
034000
034000
034000
034000
034000
034000
034000
034000
034000
028000
01E500
006F80
000000
003800
003800
003400
003000
002000
001000
ENDCHAR
STARTCHAR Tcaron
ENCODING 356
SWIDTH 420 0
DWIDTH 12 0
BBX 12 23 0 0
BITMAP
028240
00D600
006D00
001400
000000
7FFFFD
157954
002800
002800
002800
002800
002800
002800
002800
002800
002800
002800
002800
002800
002800
002800
002800
002800
ENDCHAR
STARTCHAR tcaron
ENCODING 357
SWIDTH 396 0
DWIDTH 11 0
BBX 11 18 0 0
BITMAP
00002C
03402C
03402C
034028
7FFF64
179524
034020
034000
034000
034000
034000
034000
034000
034000
034000
028000
01E500
006F80
ENDCHAR
STARTCHAR Tbar
ENCODING 358
SWIDTH 501 0
DWIDTH 14 0
BBX 12 18 0 0
BITMAP
7FFFFD
156954
002800
002800
002800
002800
002800
002800
0FFFF4
056950
002800
002800
002800
002800
002800
002800
002800
002800
ENDCHAR
STARTCHAR tbar
ENCODING 359
SWIDTH 350 0
DWIDTH 10 0
BBX 9 17 0 0
BITMAP
034000
034000
034000
7FFF40
179500
034000
034000
034000
7FFF40
179500
034000
034000
034000
038000
028000
01E500
006F80
ENDCHAR
STARTCHAR Utilde
ENCODING 360
SWIDTH 552 0
DWIDTH 15 0
BBX 12 23 2 0
BITMAP
060F40
062A80
063080
03E080
004000
A0000D
A0001D
A0001D
A0001D
A0001D
A0001D
A0001D
A0001D
A0001D
A0001D
A0001D
A0001D
A0001D
A0001D
A0001D
B0002C
3955B4
0BFFD0
ENDCHAR
STARTCHAR utilde
ENCODING 361
SWIDTH 507 0
DWIDTH 14 0
BBX 10 19 2 0
BITMAP
082E00
0CA700
0BC300
010000
000000
D00070
D00070
D00070
D00070
D00070
D00070
D00070
D00070
D00070
D00070
D00070
E000B0
7956F0
1BFE70
ENDCHAR
STARTCHAR Umacron
ENCODING 362
SWIDTH 552 0
DWIDTH 15 0
BBX 12 22 2 0
BITMAP
07FFC0
015540
000000
000000
A0000D
A0001D
A0001D
A0001D
A0001D
A0001D
A0001D
A0001D
A0001D
A0001D
A0001D
A0001D
A0001D
A0001D
A0001D
B0002C
3955B4
0BFFD0
ENDCHAR
STARTCHAR umacron
ENCODING 363
SWIDTH 507 0
DWIDTH 14 0
BBX 10 18 2 0
BITMAP
0FFF00
055500
000000
000000
D00070
D00070
D00070
D00070
D00070
D00070
D00070
D00070
D00070
D00070
D00070
E000B0
7956F0
1BFE70
ENDCHAR
STARTCHAR Ubreve
ENCODING 364
SWIDTH 552 0
DWIDTH 15 0
BBX 12 23 2 0
BITMAP
030180
030240
024300
00B900
000000
A0000D
A0001D
A0001D
A0001D
A0001D
A0001D
A0001D
A0001D
A0001D
A0001D
A0001D
A0001D
A0001D
A0001D
A0001D
B0002C
3955B4
0BFFD0
ENDCHAR
STARTCHAR ubreve
ENCODING 365
SWIDTH 507 0
DWIDTH 14 0
BBX 10 19 2 0
BITMAP
090200
090600
060900
02F800
000000
D00070
D00070
D00070
D00070
D00070
D00070
D00070
D00070
D00070
D00070
D00070
E000B0
7956F0
1BFE70
ENDCHAR
STARTCHAR Uring
ENCODING 366
SWIDTH 552 0
DWIDTH 15 0
BBX 12 24 2 0
BITMAP
00BD00
019700
024300
028700
01FE00
001000
A0000D
A0001D
A0001D
A0001D
A0001D
A0001D
A0001D
A0001D
A0001D
A0001D
A0001D
A0001D
A0001D
A0001D
A0001D
B0002C
3955B4
0BFFD0
ENDCHAR
STARTCHAR uring
ENCODING 367
SWIDTH 507 0
DWIDTH 14 0
BBX 10 20 2 0
BITMAP
07F400
095800
080800
091800
07F400
004000
D00070
D00070
D00070
D00070
D00070
D00070
D00070
D00070
D00070
D00070
D00070
E000B0
7956F0
1BFE70
ENDCHAR
STARTCHAR Uhungarumlaut
ENCODING 368
SWIDTH 552 0
DWIDTH 15 0
BBX 12 23 2 0
BITMAP
003870
0070D0
00D280
018300
000000
A0000D
A0001D
A0001D
A0001D
A0001D
A0001D
A0001D
A0001D
A0001D
A0001D
A0001D
A0001D
A0001D
A0001D
A0001D
B0002C
3955B4
0BFFD0
ENDCHAR
STARTCHAR uhungarumlaut
ENCODING 369
SWIDTH 507 0
DWIDTH 14 0
BBX 10 19 2 0
BITMAP
0070D0
00D280
028340
030900
000000
D00070
D00070
D00070
D00070
D00070
D00070
D00070
D00070
D00070
D00070
D00070
E000B0
7956F0
1BFE70
ENDCHAR
STARTCHAR Uogonek
ENCODING 370
SWIDTH 552 0
DWIDTH 15 0
BBX 12 21 2 -3
BITMAP
A0000D
A0001D
A0001D
A0001D
A0001D
A0001D
A0001D
A0001D
A0001D
A0001D
A0001D
A0001D
A0001D
A0001D
A0001D
B0002C
3955B4
0BFFD0
002400
006000
00BC00
ENDCHAR
STARTCHAR uogonek
ENCODING 371
SWIDTH 503 0
DWIDTH 14 0
BBX 10 17 2 -3
BITMAP
D00070
D00070
D00070
D00070
D00070
D00070
D00070
D00070
D00070
D00070
D00070
E000B0
7956F0
1BFE70
000080
000240
0003D0
ENDCHAR
STARTCHAR Wcircumflex
ENCODING 372
SWIDTH 795 0
DWIDTH 22 0
BBX 21 23 1 0
BITMAP
00002C000000
000066000000
0000C3400000
000141400000
000000000000
D0003C000740
E0003D000B00
B0007A000B00
7000A7000E00
7400D3000D00
3801C3401D00
2801C2802C00
2C0281C02800
1C0340D03800
0D0700D03400
0E0A00A07000
0A0A0070B000
070D0034A000
075C0028D000
03680029D000
02A4001DC000
02F4000F8000
01F0000B8000
ENDCHAR
STARTCHAR wcircumflex
ENCODING 373
SWIDTH 682 0
DWIDTH 19 0
BBX 19 19 0 0
BITMAP
0000780000
0000CD0000
0002460000
0001010000
0000000000
7000740034
3400B80074
2800AC00B0
1C00DD00E0
1D01C900D0
0E028A01C0
0A03470280
0707034340
0346028700
028A018A00
01CD00CA00
00DC00DD00
00B800BC00
00B4007800
ENDCHAR
STARTCHAR Ycircumflex
ENCODING 374
SWIDTH 493 0
DWIDTH 14 0
BBX 12 23 1 0
BITMAP
003800
009900
01C300
014140
000000
D0000B
B0000D
74002C
2C0034
1D00B0
0B00D0
0742C0
02C340
01DB00
00BD00
007C00
002800
002800
002800
002800
002800
002800
002800
ENDCHAR
STARTCHAR ycircumflex
ENCODING 375
SWIDTH 459 0
DWIDTH 13 0
BBX 11 23 1 -4
BITMAP
007800
00DD00
028700
010100
000000
D0001C
A00028
700034
3400B0
2800E0
1C01D0
0D02C0
0A0380
070740
038B00
02CD00
01EC00
00F800
003400
007000
00E000
16C000
BE0000
ENDCHAR
STARTCHAR Ydieresis
ENCODING 376
SWIDTH 493 0
DWIDTH 14 0
BBX 12 23 1 0
BITMAP
0341C0
0342C0
0342C0
0341C0
000000
D0000B
B0000D
74002C
2C0034
1D00B0
0B00D0
0742C0
02C340
01DB00
00BD00
007C00
002800
002800
002800
002800
002800
002800
002800
ENDCHAR
STARTCHAR Zacute
ENCODING 377
SWIDTH 482 0
DWIDTH 14 0
BBX 12 23 1 0
BITMAP
0002C0
000740
000D00
001400
000000
7FFFFC
15557C
000074
0000E0
0002D0
000380
000B00
001D00
003800
00B400
00E000
02C000
074000
0E0000
2D0000
380000
B55554
BFFFFD
ENDCHAR
STARTCHAR zacute
ENCODING 378
SWIDTH 405 0
DWIDTH 11 0
BBX 10 19 1 0
BITMAP
000B40
001D00
003400
001000
000000
FFFFC0
5557C0
000740
000E00
002C00
007400
00E000
02D000
078000
0B0000
1D0000
380000
B55540
FFFFD0
ENDCHAR
STARTCHAR Zdotaccent
ENCODING 379
SWIDTH 482 0
DWIDTH 14 0
BBX 12 23 1 0
BITMAP
001C00
001C00
001C00
000000
000000
7FFFFC
15557C
000074
0000E0
0002D0
000380
000B00
001D00
003800
00B400
00E000
02C000
074000
0E0000
2D0000
380000
B55554
BFFFFD
ENDCHAR
STARTCHAR zdotaccent
ENCODING 380
SWIDTH 405 0
DWIDTH 11 0
BBX 10 19 1 0
BITMAP
007000
00B000
007000
000000
000000
FFFFC0
5557C0
000740
000E00
002C00
007400
00E000
02D000
078000
0B0000
1D0000
380000
B55540
FFFFD0
ENDCHAR
STARTCHAR Zcaron
ENCODING 381
SWIDTH 482 0
DWIDTH 14 0
BBX 12 23 1 0
BITMAP
01C180
009300
003A00
001400
000000
7FFFFC
15557C
000074
0000E0
0002D0
000380
000B00
001D00
003800
00B400
00E000
02C000
074000
0E0000
2D0000
380000
B55554
BFFFFD
ENDCHAR
STARTCHAR zcaron
ENCODING 382
SWIDTH 405 0
DWIDTH 11 0
BBX 10 19 1 0
BITMAP
070600
028C00
00E400
001000
000000
FFFFC0
5557C0
000740
000E00
002C00
007400
00E000
02D000
078000
0B0000
1D0000
380000
B55540
FFFFD0
ENDCHAR
STARTCHAR florin
ENCODING 402
SWIDTH 494 0
DWIDTH 14 0
BBX 14 23 0 -4
BITMAP
00000BD0
00003940
0000A000
0000D000
0001C000
0002C000
00028000
00034000
00FFFE00
005B5400
000A0000
000E0000
000D0000
001C0000
001C0000
00280000
00340000
00340000
00700000
00A00000
00D00000
17800000
7E000000
ENDCHAR
STARTCHAR AEacute
ENCODING 508
SWIDTH 773 0
DWIDTH 22 0
BBX 20 23 0 0
BITMAP
0000003800
000000B000
000001C000
0000014000
0000000000
00002FFFFE
00003F5555
0000B70000
0001D70000
0002870000
0007470000
000A070000
001D070000
003807FFFC
0070075554
00E0070000
02C0070000
03FFFF0000
0B555B0000
1D00070000
2800070000
7400075555
A00007FFFE
ENDCHAR
STARTCHAR aeacute
ENCODING 509
SWIDTH 795 0
DWIDTH 22 0
BBX 20 19 1 0
BITMAP
000001D000
0000034000
00000A0000
0000040000
0000000000
0BFF81FFE0
0555BB5578
00003D000D
00002C000D
00002C0009
00002C0009
07FFFC0009
2D002FFFFD
34002D5554
74002C0000
74002C0000
34003D0000
2E55AB5554
06FF82FFFD
ENDCHAR
STARTCHAR Oslashacute
ENCODING 510
SWIDTH 558 0
DWIDTH 16 0
BBX 13 23 1 0
BITMAP
0001E000
00028000
00070000
00040000
00000000
06FFF880
0E555FC0
2C000740
28000F40
38002B40
38007380
3800D380
38028380
38060380
381C0380
38340380
38A00380
39C00380
3B400380
2E000340
2C000740
7E555E00
56FFF800
ENDCHAR
STARTCHAR oslashacute
ENCODING 511
SWIDTH 521 0
DWIDTH 15 0
BBX 13 19 1 0
BITMAP
0001D000
00038000
000A0000
00040000
00000000
06FFE000
0E557A80
2C001E00
28002D00
3800AD00
38028D00
380A0D00
38280D00
38E00D00
3B800D00
2E000D00
3C001D00
EE557800
46FFE000
ENDCHAR
STARTCHAR uni0218
ENCODING 536
SWIDTH 562 0
DWIDTH 16 0
BBX 12 25 2 -7
BITMAP
0BFFE0
3D55B8
B0001D
A0000D
A0000D
A00000
B00000
3D0000
0BE900
006BE0
0000B8
00001D
50000D
A0000D
A0000D
B0001D
3D5578
0BFFE0
000000
002C00
002C00
002800
002800
002400
001000
ENDCHAR
STARTCHAR uni0219
ENCODING 537
SWIDTH 427 0
DWIDTH 12 0
BBX 10 21 1 -7
BITMAP
1BFFC0
795540
700000
B00000
740000
2E4000
06E400
001F40
0002C0
0000D0
0000E0
0000D0
1556C0
7FFE40
000000
007000
007000
007000
006000
005000
004000
ENDCHAR
STARTCHAR circumflex
ENCODING 710
SWIDTH 326 0
DWIDTH 9 0
BBX 5 4 2 15
BITMAP
1E00
3740
A180
4040
ENDCHAR
STARTCHAR caron
ENCODING 711
SWIDTH 326 0
DWIDTH 9 0
BBX 5 4 2 15
BITMAP
D0C0
6240
2B00
0400
ENDCHAR
STARTCHAR uni02C9
ENCODING 713
SWIDTH 358 0
DWIDTH 10 0
BBX 6 2 2 16
BITMAP
FFF0
5550
ENDCHAR
STARTCHAR breve
ENCODING 728
SWIDTH 332 0
DWIDTH 9 0
BBX 6 4 2 15
BITMAP
C090
C090
90C0
2E40
ENDCHAR
STARTCHAR dotaccent
ENCODING 729
SWIDTH 183 0
DWIDTH 5 0
BBX 2 3 2 16
BITMAP
D0
D0
D0
ENDCHAR
STARTCHAR ring
ENCODING 730
SWIDTH 297 0
DWIDTH 8 0
BBX 5 6 1 14
BITMAP
3F40
65C0
9080
90C0
7F80
0400
ENDCHAR
STARTCHAR ogonek
ENCODING 731
SWIDTH 243 0
DWIDTH 7 0
BBX 3 4 2 -3
BITMAP
04
20
90
F8
ENDCHAR
STARTCHAR tilde
ENCODING 732
SWIDTH 369 0
DWIDTH 10 0
BBX 6 5 2 14
BITMAP
82D0
8660
CD20
B830
1000
ENDCHAR
STARTCHAR hungarumlaut
ENCODING 733
SWIDTH 377 0
DWIDTH 11 0
BBX 7 4 2 15
BITMAP
1C34
34A0
60D0
C280
ENDCHAR
STARTCHAR Mu
ENCODING 924
SWIDTH 527 0
DWIDTH 15 0
BBX 11 19 2 -4
BITMAP
500010
A00034
A00034
A00034
A00034
A00034
A00034
A00034
A00034
A00034
A00034
A00034
B00074
B901F4
ABFF74
A05000
A00000
A00000
A00000
ENDCHAR
STARTCHAR Pi
ENCODING 928
SWIDTH 605 0
DWIDTH 17 0
BBX 15 18 1 0
BITMAP
FFFFFFFC
17955B50
03800B00
03800B00
03800B00
03800B00
03800B00
03800B00
03800B00
03800B00
03800B00
03800B00
03800B00
03800B00
03800B00
03800B00
03800B00
03800B00
ENDCHAR
STARTCHAR Sigma
ENCODING 931
SWIDTH 481 0
DWIDTH 13 0
BBX 11 19 1 -1
BITMAP
7FFFF8
395550
2C0000
0E0000
074000
02C000
00E000
007400
003800
002C00
007400
00A000
01D000
038000
0B0000
1D0000
380000
7FFFF8
155550
ENDCHAR
STARTCHAR uni0901
ENCODING 2305
SWIDTH 0 0
DWIDTH 0 0
BBX 10 6 -8 19
BITMAP
00A000
504080
A000D0
7402C0
1FFF40
005000
ENDCHAR
STARTCHAR uni0902
ENCODING 2306
SWIDTH 0 0
DWIDTH 0 0
BBX 2 2 -4 21
BITMAP
D0
40
ENDCHAR
STARTCHAR uni0903
ENCODING 2307
SWIDTH 247 0
DWIDTH 7 0
BBX 3 11 2 2
BITMAP
74
10
00
00
00
00
00
00
00
74
10
ENDCHAR
STARTCHAR uni0905
ENCODING 2309
SWIDTH 598 0
DWIDTH 17 0
BBX 16 19 1 -1
BITMAP
3FE400FF
156C01D5
000E01D0
000A01D0
000B01D0
000A01D0
000A01D0
002D01D0
1FF401D0
056C01D0
000BFFD0
000B55D0
000B01D0
000A01D0
000A01D0
002D01D0
FFF401D0
550001D0
00000040
ENDCHAR
STARTCHAR uni0906
ENCODING 2310
SWIDTH 828 0
DWIDTH 23 0
BBX 23 19 1 -1
BITMAP
3FE000FFFFF8
156C01D55A50
000E01C00A00
000A01C00A00
000A01C00A00
000A01C00A00
000A01C00A00
002C01C00A00
1FF401C00A00
056C01C00A00
000FFFC00A00
000A55C00A00
000A01C00A00
000A01C00A00
000E01C00A00
002D01C00A00
FFF401C00A00
550001C00A00
000000400000
ENDCHAR
STARTCHAR uni0907
ENCODING 2311
SWIDTH 478 0
DWIDTH 13 0
BBX 15 19 -1 -1
BITMAP
7FFFFFF8
15555B50
00000A00
00000A00
00BFFE00
02D55400
03400000
03400000
03400000
02D00000
00BFFD00
00055B40
00000280
03400280
03400280
03D00740
03BFFE00
03454000
03400000
ENDCHAR
STARTCHAR uni0908
ENCODING 2312
SWIDTH 478 0
DWIDTH 13 0
BBX 15 26 -1 -1
BITMAP
00001BE0
00007940
0000A000
0000D000
0000D000
0000D000
0000A000
7FFFFFF8
15555B50
00000A00
00000A00
00BFFE00
02D55400
03400000
03400000
03400000
02D00000
00BFFD00
00055B40
00000280
03400280
03400280
03D00740
03BFFE00
03454000
03400000
ENDCHAR
STARTCHAR uni0909
ENCODING 2313
SWIDTH 471 0
DWIDTH 13 0
BBX 15 19 -1 -1
BITMAP
7FFFFFF8
15556D50
00000B00
00000700
00000700
00000700
00000700
00001E00
000BF800
00015D00
00000700
00000340
0A000340
0A000340
0A000340
07000700
03901E00
01BFF800
00054000
ENDCHAR
STARTCHAR uni090A
ENCODING 2314
SWIDTH 661 0
DWIDTH 19 0
BBX 20 19 -1 -1
BITMAP
7FFFFFFFFF
15556D5555
00000A0000
0000070000
0000070000
0000070000
0000070000
00001E0000
000BFD0000
00015FFF80
00000755B0
0000034034
0A00034028
0A00034028
0A00034028
0700070034
03901E01B0
01BFF80FD0
0005400400
ENDCHAR
STARTCHAR uni090B
ENCODING 2315
SWIDTH 753 0
DWIDTH 21 0
BBX 23 19 -1 -1
BITMAP
7FFFFFFFFFF4
155557555550
000003400000
000003400000
000003400000
000003400000
007FE7402F00
02D55F41E700
034007478700
0740076D0700
070003F40700
02000780BF00
00001F42D000
0000B7434000
0002D3434000
001E03434000
007803429000
02D00340BF40
010001000500
ENDCHAR
STARTCHAR uni090C
ENCODING 2316
SWIDTH 676 0
DWIDTH 19 0
BBX 21 25 -1 -7
BITMAP
7FFFFFFFFF40
15555555E500
00000000D000
00000000D000
00000000D000
006F82FDD000
01E5BB57D000
02802D01D000
03402C00D000
03401C00D000
03401C00D000
03401C00D000
03400400D000
03400000D000
02800000D000
01D00000D000
00BF8000D000
0005001BD000
000000394000
000000700000
000000A00000
000000700100
000000781B40
0000001FF900
000000004000
ENDCHAR
STARTCHAR uni090D
ENCODING 2317
SWIDTH 521 0
DWIDTH 15 0
BBX 16 25 -1 0
BITMAP
00A001C0
00A001C0
00740780
002FFE00
00015000
00000000
00000000
7FFFFFFF
16D555B5
01C000A0
01C000A0
01C000A0
01C000A0
01C000A0
01C000E0
01C002D0
01C0BF40
01C01000
01C00000
01C00000
01C00000
01D00000
00B40000
002FFFC0
00015540
ENDCHAR
STARTCHAR uni090E
ENCODING 2318
SWIDTH 522 0
DWIDTH 15 0
BBX 16 25 -1 0
BITMAP
00070000
00070000
00038000
0001B800
00001F40
000001D0
000000A0
7FFFFFFF
16D555B5
01C000A0
01C000A0
01C000A0
01C000A0
01C000A0
01C000E0
01C002D0
01C0BF40
01C01000
01C00000
01C00000
01C00000
01D00000
00B40000
002FFFC0
00015540
ENDCHAR
STARTCHAR uni090F
ENCODING 2319
SWIDTH 526 0
DWIDTH 15 0
BBX 16 18 -1 0
BITMAP
7FFFFFFF
16D555B5
01C000A0
01C000A0
01C000A0
01C000A0
01C000A0
01C000E0
01C002D0
01C0BF40
01C01000
01C00000
01C00000
01C00000
01D00000
00B40000
002FFFC0
00015540
ENDCHAR
STARTCHAR uni0910
ENCODING 2320
SWIDTH 526 0
DWIDTH 15 0
BBX 16 25 -1 0
BITMAP
0000D000
0000B000
00002800
00000D00
00000700
00000280
00000090
7FFFFFFF
16D555B5
01C000A0
01C000A0
01C000A0
01C000A0
01C000A0
01C000E0
01C002D0
01C0BF40
01C01000
01C00000
01C00000
01C00000
01D00000
00B40000
002FFFC0
00015540
ENDCHAR
STARTCHAR uni0911
ENCODING 2321
SWIDTH 829 0
DWIDTH 23 0
BBX 23 25 1 -1
BITMAP
000001800200
000001C00300
000000D00B00
0000007FFD00
000000014000
000000000000
3FE400FFFFF8
156C01D55A50
000E01D00A00
000A01D00A00
000B01D00A00
000A01D00A00
000A01D00A00
002D01D00A00
1FF401D00A00
056C01D00A00
000BFFD00A00
000B55D00A00
000B01D00A00
000A01D00A00
000A01D00A00
002D01D00A00
FFF401D00A00
550001D00A00
000000400000
ENDCHAR
STARTCHAR uni0912
ENCODING 2322
SWIDTH 828 0
DWIDTH 23 0
BBX 23 26 1 -1
BITMAP
000000A00000
000000700000
000000380000
0000001F4000
00000001F400
000000002D00
000000000A00
3FE400FFFFF8
156C01D55A50
000E01D00A00
000A01D00A00
000B01D00A00
000A01D00A00
000A01D00A00
002D01D00A00
1FF401D00A00
056C01D00A00
000BFFD00A00
000B55D00A00
000B01D00A00
000A01D00A00
000A01D00A00
002D01D00A00
FFF401D00A00
550001D00A00
000000400000
ENDCHAR
STARTCHAR uni0913
ENCODING 2323
SWIDTH 829 0
DWIDTH 23 0
BBX 23 26 1 -1
BITMAP
0000001D0000
0000000B0000
000000038000
00000001D000
00000000B000
000000002800
000000000D00
3FE400FFFFF8
156C01D55A50
000E01D00A00
000A01D00A00
000B01D00A00
000A01D00A00
000A01D00A00
002D01D00A00
1FF401D00A00
056C01D00A00
000BFFD00A00
000B55D00A00
000B01D00A00
000A01D00A00
000A01D00A00
002D01D00A00
FFF401D00A00
550001D00A00
000000400000
ENDCHAR
STARTCHAR uni0914
ENCODING 2324
SWIDTH 829 0
DWIDTH 23 0
BBX 23 26 1 -1
BITMAP
0000001C0A00
0000000E0A00
000000074A00
00000002CA00
00000000AA00
000000003A00
000000001E00
3FE400FFFFF8
156C01D55A50
000E01D00A00
000A01D00A00
000B01D00A00
000A01D00A00
000A01D00A00
002D01D00A00
1FF401D00A00
056C01D00A00
000BFFD00A00
000B55D00A00
000B01D00A00
000A01D00A00
000A01D00A00
002D01D00A00
FFF401D00A00
550001D00A00
000000400000
ENDCHAR
STARTCHAR uni0915
ENCODING 2325
SWIDTH 725 0
DWIDTH 20 0
BBX 22 18 -1 0
BITMAP
7FFFFFFFFFE0
15555B555540
00000A000000
00000A000000
007F4A7FE000
02E50BD57800
03400B400D00
07000B000E00
07000A000A00
07000A000A00
07000A000A00
07000A000A00
03400A000D00
02D02E006C00
00BFEA0FE400
00050A050000
00000A000000
00000A000000
ENDCHAR
STARTCHAR uni0916
ENCODING 2326
SWIDTH 696 0
DWIDTH 19 0
BBX 21 19 -1 -1
BITMAP
7FFFFFFFFFC0
15575555B540
000740007000
000740007000
000740007000
000741F87000
000707907000
00070A007000
001E0D007000
0FF80D007000
0B400D007000
07400E00B000
01C00741F000
00A002FE7000
003400107000
001C00007000
000A00007000
000340007000
000000001000
ENDCHAR
STARTCHAR uni0917
ENCODING 2327
SWIDTH 494 0
DWIDTH 14 0
BBX 16 19 -1 -1
BITMAP
7FFFFFFD
15755754
00700340
00700340
00700340
00700340
00700340
00700340
00700340
01E00340
1F800340
04000340
00000340
00000340
00000340
00000340
00000340
00000340
00000100
ENDCHAR
STARTCHAR uni0918
ENCODING 2328
SWIDTH 559 0
DWIDTH 16 0
BBX 17 18 -1 0
BITMAP
7FFFFFFFC0
16D5557540
0280007000
0340007000
0340007000
0380007000
01D0007000
00BF807000
01D5007000
0380007000
0340007000
0340007000
038000B000
02D001F000
00BFFF7000
0001507000
0000007000
0000002000
ENDCHAR
STARTCHAR uni0919
ENCODING 2329
SWIDTH 505 0
DWIDTH 14 0
BBX 16 19 -1 -1
BITMAP
7FFFFFFE
15555A54
00000A00
00000A00
00000A00
00BFFE00
02D55400
03800000
03400074
02D00010
00BFF900
00055B00
00000340
00000280
03400280
03400340
02900B40
00BFFD00
00054000
ENDCHAR
STARTCHAR uni091A
ENCODING 2330
SWIDTH 563 0
DWIDTH 16 0
BBX 17 19 -1 -1
BITMAP
7FFFFFFFC0
1555557540
0000003400
0000003400
0000003400
0000003400
1FFFF03400
0579503400
00A0003400
00D0003400
00D0003400
00D0007400
00E0007400
007401F400
002FFF7400
0001503400
0000003400
0000003400
0000001000
ENDCHAR
STARTCHAR uni091B
ENCODING 2331
SWIDTH 581 0
DWIDTH 16 0
BBX 18 18 -1 0
BITMAP
7FFFFFFFE0
15E5557940
0280003400
0380003400
0380003400
0380003400
02800BF400
01D0017800
007F401C00
01E5000D00
0280000D00
0380000D00
0380000D00
0380000D00
0280001C00
01D0007800
007FFFE000
0001550000
ENDCHAR
STARTCHAR uni091C
ENCODING 2332
SWIDTH 547 0
DWIDTH 15 0
BBX 17 18 -1 0
BITMAP
7FFFFFFF80
155555A500
000000A000
000000A000
000000A000
000000A000
03FFFFE000
015B55A000
000380A000
000280A000
000280A000
000280A000
000280A000
000280A000
000B40A000
0FFD00A000
054000A000
000000A000
ENDCHAR
STARTCHAR uni091D
ENCODING 2333
SWIDTH 664 0
DWIDTH 19 0
BBX 20 19 -1 -1
BITMAP
7FFFFFFFFF
15556D56D5
00002801C0
00002801C0
00BFF801C0
02D55001C0
03800001C0
03400001C0
03400001C0
02D00001C0
00BFFFFFC0
00055D55C0
00000A01C0
03400A01C0
03400A01C0
03901D01C0
03BFF801C0
03450001C0
0340000040
ENDCHAR
STARTCHAR uni091E
ENCODING 2334
SWIDTH 592 0
DWIDTH 17 0
BBX 18 19 -1 -1
BITMAP
7FFFFFFFF0
1555556D50
0000001C00
0000001C00
0000001C00
07FE001C00
0157801C00
0001C01C00
0000D01C00
0000FFFC00
0000D55C00
0000C01C00
0001C01C00
0007801C00
0BFE001C00
0150001C00
0000001C00
0000001C00
0000000400
ENDCHAR
STARTCHAR uni091F
ENCODING 2335
SWIDTH 485 0
DWIDTH 14 0
BBX 15 18 -1 0
BITMAP
7FFFFFFC
15555A54
00000A00
00000A00
00000A00
006FFE00
01E55400
02800000
03400000
03400000
03400000
03400080
034000D0
034001C0
038001C0
01D00740
007FFE00
00055000
ENDCHAR
STARTCHAR uni0920
ENCODING 2336
SWIDTH 512 0
DWIDTH 14 0
BBX 16 18 -1 0
BITMAP
7FFFFFFE
15555B54
00000700
00000700
00001A00
006FFD00
01E55B40
038002C0
034001C0
034000D0
034000D0
034000D0
034000D0
034001D0
038001C0
01D00780
00BFFE00
00055000
ENDCHAR
STARTCHAR uni0921
ENCODING 2337
SWIDTH 475 0
DWIDTH 13 0
BBX 15 19 -1 -1
BITMAP
7FFFFFF8
15555A50
00000A00
00000A00
00000A00
00BFFE00
02D55400
03400000
03400000
02900000
00BFF900
00055B00
00000340
01000280
03400280
03400340
02D00B40
00BFFD00
00054000
ENDCHAR
STARTCHAR uni0922
ENCODING 2338
SWIDTH 485 0
DWIDTH 14 0
BBX 15 18 -1 0
BITMAP
7FFFFFFC
15555B54
00000A00
00000A00
00000A00
006FFE00
01E55400
02800000
03400000
03407E40
0340E6C0
0341C0C0
0341C0D0
034040D0
028001C0
01D00680
007FFE00
00055000
ENDCHAR
STARTCHAR uni0923
ENCODING 2339
SWIDTH 681 0
DWIDTH 19 0
BBX 21 18 -1 0
BITMAP
7FFFFFFFFF40
16955E55E500
02800D00A000
02800D00A000
02800D00A000
02800D00A000
02800D00A000
02800D00A000
02800D00A000
02800D00A000
02C01D00A000
01E06C00A000
007FE000A000
00010000A000
00000000A000
00000000A000
00000000A000
00000000A000
ENDCHAR
STARTCHAR uni0924
ENCODING 2340
SWIDTH 496 0
DWIDTH 14 0
BBX 16 19 -1 -1
BITMAP
7FFFFFFD
15555754
00000340
00000340
00000340
00000340
007FFF40
02D55740
03800340
03400340
03400340
03400340
03400340
03400340
03400340
03400340
02D00340
00BE0340
00040100
ENDCHAR
STARTCHAR uni0925
ENCODING 2341
SWIDTH 593 0
DWIDTH 17 0
BBX 16 19 1 -1
BITMAP
06F801FF
0E5E01D5
1C0701C0
280341C0
280341C0
000341C0
000701C0
001E01C0
7FF801C0
754001C0
700001C0
700001C0
340002C0
2D001BC0
07FFF9C0
001541C0
000001C0
000001C0
00000040
ENDCHAR
STARTCHAR uni0926
ENCODING 2342
SWIDTH 489 0
DWIDTH 14 0
BBX 15 18 -1 0
BITMAP
7FFFFFFC
15555754
00000740
00000740
00000740
007FFF00
01E55400
03800000
03400000
03400000
03400000
03400280
03800280
02D00780
00BFFA80
00054280
00000280
00000280
ENDCHAR
STARTCHAR uni0927
ENCODING 2343
SWIDTH 560 0
DWIDTH 16 0
BBX 17 19 -1 -1
BITMAP
7FFD0FFFC0
16D4057540
0280007000
0340007000
0340007000
0380007000
01D0007000
00BF807000
01E5007000
0280007000
0340007000
0340007000
0340007000
028000B000
01D001F000
00BFFF7000
0005507000
0000007000
0000001000
ENDCHAR
STARTCHAR uni0928
ENCODING 2344
SWIDTH 473 0
DWIDTH 13 0
BBX 15 18 -1 0
BITMAP
7FFFFFF8
15555A50
00000A00
00000A00
00000A00
00000A00
00000A00
02FFFE00
07555A00
0A000A00
0A000A00
07000A00
01000A00
00000A00
00000A00
00000A00
00000A00
00000A00
ENDCHAR
STARTCHAR uni0928093C
ENCODING 2345
SWIDTH 473 0
DWIDTH 13 0
BBX 15 18 -1 0
BITMAP
7FFFFFF8
15555A50
00000A00
00000A00
00000A00
00000A00
00000A00
02FFFE00
07555A00
0A000A00
0A000A00
07000A00
01000A00
00000A00
00000A00
00000A00
00000A00
00380500
ENDCHAR
STARTCHAR uni092A
ENCODING 2346
SWIDTH 503 0
DWIDTH 14 0
BBX 16 18 -1 0
BITMAP
7FFFFFFD
16955794
02800280
02800280
02800280
02800280
02800280
02800280
02800280
02800380
02C00380
00E01B80
007FFA80
00014280
00000280
00000280
00000280
00000280
ENDCHAR
STARTCHAR uni092B
ENCODING 2347
SWIDTH 739 0
DWIDTH 21 0
BBX 22 19 -1 -1
BITMAP
7FFFFFFFFFF0
169557555550
028003400000
028003400000
0280036FE400
028003E56D00
028003800A00
028003400700
028007400700
02C007400700
01E01F400700
007FF7400700
000103400A00
000003402D00
0000034BF400
000003410000
000003400000
000003400000
000001000000
ENDCHAR
STARTCHAR uni092C
ENCODING 2348
SWIDTH 491 0
DWIDTH 14 0
BBX 15 19 -1 -1
BITMAP
7FFFFFFC
15555754
00000740
00000740
007F8740
01E50740
03E00740
07680740
070A0740
07028740
0700A740
07003B40
03400F40
02D01F40
00BFF740
00050740
00000740
00000740
00000100
ENDCHAR
STARTCHAR uni092D
ENCODING 2349
SWIDTH 491 0
DWIDTH 14 0
BBX 15 19 -1 -1
BITMAP
7900FFFC
1B005754
03400740
02800740
02800740
02800740
02800740
02800740
02FFFF40
02955740
02800740
02800740
02400740
00000740
00000740
00000740
00000740
00000740
00000100
ENDCHAR
STARTCHAR uni092E
ENCODING 2350
SWIDTH 490 0
DWIDTH 14 0
BBX 15 19 -1 -1
BITMAP
7FFFFFFC
17955754
02800700
02800700
02800700
02800700
02800700
02800700
02FFFF00
02955700
02800700
02800700
02400700
00000700
00000700
00000700
00000700
00000700
00000100
ENDCHAR
STARTCHAR uni092F
ENCODING 2351
SWIDTH 564 0
DWIDTH 16 0
BBX 17 19 -1 -1
BITMAP
7FFFFFFFC0
155A557540
0003403400
0003403400
0003403400
0003403400
000B003400
03FD003400
0340003400
0340003400
0340003400
0340007400
028000B400
01E402F400
007FFF7400
0001503400
0000003400
0000003400
0000001000
ENDCHAR
STARTCHAR uni0930
ENCODING 2352
SWIDTH 337 0
DWIDTH 9 0
BBX 11 18 -1 0
BITMAP
7FFFF8
155754
000740
000740
000740
000740
000700
000700
001E00
0FF800
0F4000
074000
01C000
00A000
007400
001C00
000A00
000340
ENDCHAR
STARTCHAR uni0930093C
ENCODING 2353
SWIDTH 347 0
DWIDTH 10 0
BBX 11 20 -1 -2
BITMAP
7FFFFC
155794
000340
000340
000340
000340
000340
000340
000B00
0BFD00
0B4000
038000
01D000
00B000
003800
001D00
000A00
000340
2C0140
040000
ENDCHAR
STARTCHAR uni0932
ENCODING 2354
SWIDTH 676 0
DWIDTH 19 0
BBX 21 19 -1 -1
BITMAP
7FFFFFFFFF40
15555555E500
00000000D000
00000000D000
00000000D000
006F82FDD000
01E5BB57D000
02802C01D000
03402C00D000
03401800D000
03401800D000
03401800D000
03400400D000
03400000D000
02800000D000
01D00000D000
00BF8000D000
00050000D000
000000004000
ENDCHAR
STARTCHAR uni0933
ENCODING 2355
SWIDTH 672 0
DWIDTH 19 0
BBX 21 18 -1 0
BITMAP
7FFFFFFFFF40
155555795500
000000240000
000000240000
000000240000
007F91BE0000
01E5BB56C000
03802D00E000
03401C00A000
03401C006000
03401C006000
03401C006000
03401C006000
03401C00A000
03402D00A000
02D07B42D000
00BFD2FF4000
000400100000
ENDCHAR
STARTCHAR uni0933093C
ENCODING 2356
SWIDTH 672 0
DWIDTH 19 0
BBX 21 20 -1 -2
BITMAP
7FFFFFFFFF40
155555795500
000000240000
000000240000
000000240000
007F91BE0000
01E5BB56C000
03802D00E000
03401C00A000
03401C006000
03401C006000
03401C006000
03401C006000
03401C00A000
03402D00A000
02D07B42D000
00BFD2FF4000
000500100000
000E00000000
000400000000
ENDCHAR
STARTCHAR uni0935
ENCODING 2357
SWIDTH 484 0
DWIDTH 14 0
BBX 15 19 -1 -1
BITMAP
7FFFFFFC
15555B54
00000700
00000700
007F8700
01E50700
03800700
07400700
07000700
07000700
07000700
07400700
03400B00
02D01F00
00BFF700
00050700
00000700
00000700
00000100
ENDCHAR
STARTCHAR uni0936
ENCODING 2358
SWIDTH 614 0
DWIDTH 17 0
BBX 17 18 1 0
BITMAP
06F800BF80
1D5A00A500
280340A000
340340A000
340340A000
140340A000
000340A000
000740A000
001B00A000
BFF800A000
B54000A000
380000A000
1D0000A000
0B0000A000
038000A000
01D000A000
00B000A000
003800A000
ENDCHAR
STARTCHAR uni0937
ENCODING 2359
SWIDTH 505 0
DWIDTH 14 0
BBX 16 18 -1 0
BITMAP
7FFFFFFE
16D55694
02E00280
02A40280
028D0280
02874280
0281C280
0280A280
02802A80
02800F80
02C00780
00E01B80
007FFA80
00014280
00000280
00000280
00000280
00000280
ENDCHAR
STARTCHAR uni0938
ENCODING 2360
SWIDTH 575 0
DWIDTH 16 0
BBX 18 19 -1 -1
BITMAP
7FFFFFFFD0
155E557940
000A002800
000A002800
000A002800
000A002800
000A002800
000D002800
002C003800
0FFFFFF800
0B55557800
0740002800
02C0002800
00D0002800
0070002800
0038002800
001D002800
000A002800
0001000000
ENDCHAR
STARTCHAR uni0939
ENCODING 2361
SWIDTH 481 0
DWIDTH 13 0
BBX 15 20 -1 -2
BITMAP
7FFFFFF8
15555B54
00000700
00000700
007FFF00
01E55400
02800000
02800000
02800000
01D00000
007FF900
00E55B00
02800340
03800340
03400240
03400000
02800000
01E00000
007FFF00
00015500
ENDCHAR
STARTCHAR uni093C
ENCODING 2364
SWIDTH 0 0
DWIDTH 0 0
BBX 2 2 -5 -3
BITMAP
70
10
ENDCHAR
STARTCHAR uni093D
ENCODING 2365
SWIDTH 529 0
DWIDTH 15 0
BBX 11 19 2 -1
BITMAP
06FFD0
0E5540
1C0000
2C0000
1C0000
1D0000
0B4000
02E400
007E00
000BD0
0001F0
000074
000034
000034
500034
740074
1E01A0
06FF90
001400
ENDCHAR
STARTCHAR uni093E
ENCODING 2366
SWIDTH 231 0
DWIDTH 6 0
BBX 8 19 -1 -1
BITMAP
7FFF
16D5
01C0
01C0
01C0
01C0
01C0
01C0
01C0
01C0
01C0
01C0
01C0
01C0
01C0
01C0
01C0
01C0
0040
ENDCHAR
STARTCHAR uni093F
ENCODING 2367
SWIDTH 231 0
DWIDTH 6 0
BBX 19 26 -1 -1
BITMAP
002FFFFF80
00B55555B0
01C0000034
01C0000034
01C0000028
01C0000000
01C0000000
7FFF000000
16D5000000
01C0000000
01C0000000
01C0000000
01C0000000
01C0000000
01C0000000
01C0000000
01C0000000
01C0000000
01C0000000
01C0000000
01C0000000
01C0000000
01C0000000
01C0000000
01C0000000
0040000000
ENDCHAR
STARTCHAR uni0940
ENCODING 2368
SWIDTH 231 0
DWIDTH 6 0
BBX 11 26 -4 -1
BITMAP
1BE400
796D00
A00A00
D00700
D00700
000700
000700
01FFFC
005B54
000700
000700
000700
000700
000700
000700
000700
000700
000700
000700
000700
000700
000700
000700
000700
000700
000100
ENDCHAR
STARTCHAR uni0941
ENCODING 2369
SWIDTH 0 0
DWIDTH 0 0
BBX 11 7 -10 -7
BITMAP
000FE0
500174
A00028
340018
1C0028
0B5574
01BFD0
ENDCHAR
STARTCHAR uni0942
ENCODING 2370
SWIDTH 0 0
DWIDTH 0 0
BBX 11 7 -8 -7
BITMAP
1BFD00
295780
3001D0
7000B0
700034
394028
1BD004
ENDCHAR
STARTCHAR uni0943
ENCODING 2371
SWIDTH 0 0
DWIDTH 0 0
BBX 9 7 -8 -7
BITMAP
1FD000
794000
A00000
A00000
700180
395B40
1BF800
ENDCHAR
STARTCHAR uni0945
ENCODING 2373
SWIDTH 0 0
DWIDTH 0 0
BBX 9 5 -8 19
BITMAP
600080
7001C0
340280
1FFF40
005000
ENDCHAR
STARTCHAR uni0946
ENCODING 2374
SWIDTH 0 0
DWIDTH 0 0
BBX 8 9 -10 16
BITMAP
9000
A000
7400
1E40
02E0
002C
000D
001F
0005
ENDCHAR
STARTCHAR uni0947
ENCODING 2375
SWIDTH 0 0
DWIDTH 0 0
BBX 7 9 -9 16
BITMAP
7000
3800
1D00
0B00
0380
01D0
00B0
002C
0004
ENDCHAR
STARTCHAR uni0948
ENCODING 2376
SWIDTH 0 0
DWIDTH 0 0
BBX 7 9 -9 16
BITMAP
A034
3434
2C34
0E24
0764
02E4
00B4
003C
0004
ENDCHAR
STARTCHAR uni0949
ENCODING 2377
SWIDTH 231 0
DWIDTH 6 0
BBX 9 25 -1 -1
BITMAP
800240
D00240
A00740
2FFD00
014000
000000
7FFF00
16D500
01C000
01C000
01C000
01C000
01C000
01C000
01C000
01C000
01C000
01C000
01C000
01C000
01C000
01C000
01C000
01C000
004000
ENDCHAR
STARTCHAR uni094A
ENCODING 2378
SWIDTH 231 0
DWIDTH 6 0
BBX 11 26 -4 -1
BITMAP
700000
740000
380000
0B8000
01F400
001E00
000B00
01FFFC
005B54
000700
000700
000700
000700
000700
000700
000700
000700
000700
000700
000700
000700
000700
000700
000700
000700
000100
ENDCHAR
STARTCHAR uni094B
ENCODING 2379
SWIDTH 231 0
DWIDTH 6 0
BBX 9 26 -2 -1
BITMAP
E00000
740000
2C0000
0E0000
074000
028000
00A000
1FFFC0
05B540
007000
007000
007000
007000
007000
007000
007000
007000
007000
007000
007000
007000
007000
007000
007000
007000
001000
ENDCHAR
STARTCHAR uni094C
ENCODING 2380
SWIDTH 231 0
DWIDTH 6 0
BBX 10 26 -3 -1
BITMAP
741C00
2C1C00
0E1C00
075C00
01DC00
00AC00
002C00
07FFF0
016D50
001C00
001C00
001C00
001C00
001C00
001C00
001C00
001C00
001C00
001C00
001C00
001C00
001C00
001C00
001C00
001C00
000400
ENDCHAR
STARTCHAR uni094D
ENCODING 2381
SWIDTH 0 0
DWIDTH 0 0
BBX 4 5 -4 -6
BITMAP
50
70
28
1D
0B
ENDCHAR
STARTCHAR uni0950
ENCODING 2384
SWIDTH 847 0
DWIDTH 24 0
BBX 21 23 1 0
BITMAP
000000280000
000000000000
000000000000
000000000100
000000000B00
07FE002FF900
015780054000
0001D0000000
0000E0000000
0000A0000000
0000E02FF800
0000D0055E00
0006C0000740
01FF00000340
005780000340
0000FFF00340
0000E5740340
7000A0340340
7000A0340340
7400D0340340
2D06C0290B00
0BFE400BFD00
005000004000
ENDCHAR
STARTCHAR uni0951
ENCODING 2385
SWIDTH 0 0
DWIDTH 0 0
BBX 2 5 -4 20
BITMAP
D0
D0
D0
D0
D0
ENDCHAR
STARTCHAR uni0952
ENCODING 2386
SWIDTH 0 0
DWIDTH 0 0
BBX 10 2 -12 -4
BITMAP
BFFFD0
155540
ENDCHAR
STARTCHAR uni0953
ENCODING 2387
SWIDTH 0 0
DWIDTH 0 0
BBX 4 6 -7 19
BITMAP
D0
70
28
1D
0B
01
ENDCHAR
STARTCHAR uni0954
ENCODING 2388
SWIDTH 0 0
DWIDTH 0 0
BBX 5 6 -4 19
BITMAP
0340
0B00
1D00
3800
B000
5000
ENDCHAR
STARTCHAR uni0915093C
ENCODING 2392
SWIDTH 725 0
DWIDTH 20 0
BBX 22 20 -1 -2
BITMAP
7FFFFFFFFFE0
15555B555540
00000A000000
00000A000000
007F4A7FE000
02E50BD57800
03400B400D00
07000B000E00
07000A000A00
07000A000A00
07000A000A00
07000A000A00
03400A000D00
02D02E006C00
00BFEA0FE400
00050A050000
00000A000000
00000A000000
003800000000
001000000000
ENDCHAR
STARTCHAR uni0916093C
ENCODING 2393
SWIDTH 696 0
DWIDTH 19 0
BBX 21 19 -1 -1
BITMAP
7FFFFFFFFFC0
15575555B540
000740007000
000740007000
000740007000
000741F87000
000707907000
00070A007000
001E0D007000
0FF80D007000
0B400D007000
07400E00B000
01C00741F000
00A002FE7000
003400107000
001C00007000
000A00007000
000340007000
0A0000001000
ENDCHAR
STARTCHAR uni0917093C
ENCODING 2394
SWIDTH 494 0
DWIDTH 14 0
BBX 16 20 -1 -2
BITMAP
7FFFFFFD
15755754
00700340
00700340
00700340
00700340
00700340
00700340
00700340
01E00340
1F800340
04000340
00000340
00000340
00000340
00000340
00000340
00000340
01D00100
00400000
ENDCHAR
STARTCHAR uni091C093C
ENCODING 2395
SWIDTH 547 0
DWIDTH 15 0
BBX 17 19 -1 -1
BITMAP
7FFFFFFF80
155555A500
000000A000
000000A000
000000A000
000000A000
03FFFFE000
015B55A000
000380A000
000280A000
000280A000
000280A000
000280A000
000280A000
000B40A000
0FFD00A000
054000A000
000000A000
02C0000000
ENDCHAR
STARTCHAR uni0921093C
ENCODING 2396
SWIDTH 475 0
DWIDTH 13 0
BBX 15 22 -1 -4
BITMAP
7FFFFFF8
15555A50
00000A00
00000A00
00000A00
00BFFE00
02D55400
03400000
03400000
02900000
00BFF900
00055B00
00000340
01000280
03400280
03400340
02D00B40
00BFFD00
00054000
00000000
00038000
00010000
ENDCHAR
STARTCHAR uni0922093C
ENCODING 2397
SWIDTH 485 0
DWIDTH 14 0
BBX 15 20 -1 -2
BITMAP
7FFFFFFC
15555B54
00000A00
00000A00
00000A00
006FFE00
01E55400
02800000
03400000
03407E40
0340E6C0
0341C0C0
0341C0D0
034040D0
028001C0
01D00680
007FFE00
00055000
00000000
00028000
ENDCHAR
STARTCHAR uni092B093C
ENCODING 2398
SWIDTH 739 0
DWIDTH 21 0
BBX 22 20 -1 -2
BITMAP
7FFFFFFFFFF0
169557555550
028003400000
028003400000
0280036FE400
028003E56D00
028003800A00
028003400700
028007400700
02C007400700
01E01F400700
007FF7400700
000103400A00
000003402D00
0000034BF400
000003410000
000003400000
000003400000
007401000000
001000000000
ENDCHAR
STARTCHAR uni092F093C
ENCODING 2399
SWIDTH 564 0
DWIDTH 16 0
BBX 17 20 -1 -2
BITMAP
7FFFFFFFC0
155A557540
0003403400
0003403400
0003403400
0003403400
000B003400
03FD003400
0340003400
0340003400
0340003400
0340007400
028000B400
01E402F400
007FFF7400
0001503400
0000003400
0000003400
00D0001000
0040000000
ENDCHAR
STARTCHAR uni0960
ENCODING 2400
SWIDTH 753 0
DWIDTH 21 0
BBX 23 22 -1 -4
BITMAP
7FFFFFFFFFF4
155557555550
000003400000
000003400000
000003400000
000003400000
007FE7402F00
02D55F41E700
0340074B8700
0740076D0700
070003E0BF00
01000782D400
00002F434000
0000B7434000
000783429000
001E0340FF40
00B40342D500
028003434000
000000034000
000000029000
00000001FF80
000000000500
ENDCHAR
STARTCHAR uni0961
ENCODING 2401
SWIDTH 676 0
DWIDTH 19 0
BBX 21 25 -1 -7
BITMAP
7FFFFFFFFF40
15555555E500
00000000D000
00000000D000
00000000D000
006F82FDD000
01E5BB57D000
02802C01D000
03402C00D000
03401800D000
03401800D000
03401800D000
03400000D000
0340001FD000
028000794000
01D000A00000
00BF80A00000
000500740000
0000002FE000
000000794000
000000A00000
000000A00000
000000740000
0000002FF000
000000005000
ENDCHAR
STARTCHAR uni0964
ENCODING 2404
SWIDTH 286 0
DWIDTH 8 0
BBX 2 18 4 0
BITMAP
D0
D0
D0
D0
D0
D0
D0
D0
D0
D0
D0
D0
D0
D0
D0
D0
D0
D0
ENDCHAR
STARTCHAR uni0965
ENCODING 2405
SWIDTH 518 0
DWIDTH 15 0
BBX 8 18 4 0
BITMAP
D00A
D00B
D00B
D00B
D00B
D00B
D00B
D00B
D00B
D00B
D00B
D00B
D00B
D00B
D00B
D00B
D00B
D006
ENDCHAR
STARTCHAR uni0966
ENCODING 2406
SWIDTH 519 0
DWIDTH 15 0
BBX 11 19 2 -1
BITMAP
1BFF80
7955E0
E00034
D00038
D00028
D00028
D00028
D00028
D00028
D00028
D00028
D00028
D00028
D00028
D00038
E00034
7401B0
2FFF90
015400
ENDCHAR
STARTCHAR uni0967
ENCODING 2407
SWIDTH 288 0
DWIDTH 8 0
BBX 6 19 0 0
BITMAP
0050
06F0
2EB0
B4B0
40B0
00B0
00B0
00B0
00B0
00B0
00B0
00B0
00B0
00B0
00B0
00B0
00B0
00B0
0070
ENDCHAR
STARTCHAR uni0968
ENCODING 2408
SWIDTH 453 0
DWIDTH 13 0
BBX 11 19 1 -1
BITMAP
0BFF80
3D55E0
700074
A00034
A00038
500034
000074
0000A0
000780
001E00
00B400
02D000
1E0000
380000
700000
700000
700000
7FFFF8
155550
ENDCHAR
STARTCHAR uni0969
ENCODING 2409
SWIDTH 489 0
DWIDTH 14 0
BBX 11 19 1 -1
BITMAP
0BFF80
2D55B0
700038
700028
700028
000028
000028
0000B0
007FC0
0015A0
000034
000028
500028
700028
700028
700038
3900B0
0BFFD0
005400
ENDCHAR
STARTCHAR uni096A
ENCODING 2410
SWIDTH 453 0
DWIDTH 13 0
BBX 13 19 0 0
BITMAP
0000A400
0001F400
00037400
000A3400
001D3400
00283400
00703400
00E03400
01C03400
03403400
0B003400
1D003400
28003400
74003400
BFFFFF80
15557500
00003400
00003400
00003400
ENDCHAR
STARTCHAR uni096B
ENCODING 2411
SWIDTH 480 0
DWIDTH 13 0
BBX 10 19 2 -1
BITMAP
FFFFE0
D55540
D00000
D00000
D00000
D00000
D00000
DBFE40
F556D0
9000A0
000070
000070
000070
D00070
D00070
E000A0
B401D0
2FFF40
015400
ENDCHAR
STARTCHAR uni096C
ENCODING 2412
SWIDTH 495 0
DWIDTH 14 0
BBX 11 19 2 -1
BITMAP
1BFFE0
795540
E00000
D00000
D00000
D00000
D00000
DBFF80
E955E0
E00070
D00034
D00034
D00034
D00034
D00034
E00074
7401E0
2FFF80
015400
ENDCHAR
STARTCHAR uni096D
ENCODING 2413
SWIDTH 380 0
DWIDTH 11 0
BBX 10 18 0 1
BITMAP
BFFFF0
1555B0
0000E0
0001D0
0002C0
000380
000700
000A00
000D00
001C00
003800
007400
00B000
00E000
01D000
028000
034000
070000
ENDCHAR
STARTCHAR uni096E
ENCODING 2414
SWIDTH 523 0
DWIDTH 15 0
BBX 11 19 2 -1
BITMAP
1BFF80
7955B0
E00038
D00028
D00028
D00028
E00038
7400B0
1FFFD0
7955A0
A00034
D00028
D00028
D00028
D00028
E00034
7400B0
1FFFD0
015400
ENDCHAR
STARTCHAR uni096F
ENCODING 2415
SWIDTH 493 0
DWIDTH 14 0
BBX 11 19 1 -1
BITMAP
0BFF90
2D55B0
700038
B00028
A0002C
A0002C
A0002C
A0002C
70002C
39002C
1BFFFC
00556C
00002C
00002C
000028
000028
0000B4
2FFFD0
055400
ENDCHAR
STARTCHAR uni0970
ENCODING 2416
SWIDTH 391 0
DWIDTH 11 0
BBX 9 10 1 3
BITMAP
1BF900
795B00
A00380
E00280
D00280
E00280
A00280
780B40
1FFD00
004000
ENDCHAR
STARTCHAR uni0972
ENCODING 2418
SWIDTH 598 0
DWIDTH 17 0
BBX 17 25 1 -1
BITMAP
0000900180
0000A00280
0000740740
00002FFE00
0000015000
0000000000
3FE400FF00
156C01D500
000E01D000
000A01D000
000B01D000
000A01D000
000A01D000
002D01D000
1FF401D000
056C01D000
000BFFD000
000B55D000
000B01D000
000A01D000
000A01D000
002D01D000
FFF401D000
550001D000
0000004000
ENDCHAR
STARTCHAR Wgrave
ENCODING 7808
SWIDTH 795 0
DWIDTH 22 0
BBX 21 23 1 0
BITMAP
000380000000
0001D0000000
000070000000
000014000000
000000000000
D0003C000740
E0003D000B00
B0007A000B00
7000A7000E00
7400D3000D00
3801C3401D00
2801C2802C00
2C0281C02800
1C0340D03800
0D0700D03400
0E0A00A07000
0A0A0070B000
070D0034A000
075C0028D000
03680029D000
02A4001DC000
02F4000F8000
01F0000B8000
ENDCHAR
STARTCHAR wgrave
ENCODING 7809
SWIDTH 682 0
DWIDTH 19 0
BBX 19 19 0 0
BITMAP
000B400000
0002C00000
0000A00000
0000100000
0000000000
7000740034
3400B80074
2800AC00B0
1C00DD00E0
1D01C900D0
0E028A01C0
0A03470280
0707034340
0346028700
028A018A00
01CD00CA00
00DC00DD00
00B800BC00
00B4007800
ENDCHAR
STARTCHAR Wacute
ENCODING 7810
SWIDTH 795 0
DWIDTH 22 0
BBX 21 23 1 0
BITMAP
000002D00000
000007400000
00000A000000
000004000000
000000000000
D0003C000740
E0003D000B00
B0007A000B00
7000A7000E00
7400D3000D00
3801C3401D00
2801C2802C00
2C0281C02800
1C0340D03800
0D0700D03400
0E0A00A07000
0A0A0070B000
070D0034A000
075C0028D000
03680029D000
02A4001DC000
02F4000F8000
01F0000B8000
ENDCHAR
STARTCHAR wacute
ENCODING 7811
SWIDTH 682 0
DWIDTH 19 0
BBX 19 19 0 0
BITMAP
0000078000
00000A0000
0000180000
0000100000
0000000000
7000740034
3400B80074
2800AC00B0
1C00DD00E0
1D01C900D0
0E028A01C0
0A03470280
0707034340
0346028700
028A018A00
01CD00CA00
00DC00DD00
00B800BC00
00B4007800
ENDCHAR
STARTCHAR Wdieresis
ENCODING 7812
SWIDTH 795 0
DWIDTH 22 0
BBX 21 23 1 0
BITMAP
000341C00000
000381C00000
000381C00000
000341C00000
000000000000
D0003C000740
E0003D000B00
B0007A000B00
7000A7000E00
7400D3000D00
3801C3401D00
2801C2802C00
2C0281C02800
1C0340D03800
0D0700D03400
0E0A00A07000
0A0A0070B000
070D0034A000
075C0028D000
03680029D000
02A4001DC000
02F4000F8000
01F0000B8000
ENDCHAR
STARTCHAR wdieresis
ENCODING 7813
SWIDTH 682 0
DWIDTH 19 0
BBX 19 19 0 0
BITMAP
0007034000
0007038000
0007038000
0007024000
0000000000
7000740034
3400B80074
2800AC00B0
1C00DD00E0
1D01C900D0
0E028A01C0
0A03470280
0707034340
0346028700
028A018A00
01CD00CA00
00DC00DD00
00B800BC00
00B4007800
ENDCHAR
STARTCHAR uni1E9E
ENCODING 7838
SWIDTH 542 0
DWIDTH 15 0
BBX 12 18 2 0
BITMAP
0BFFFC
3D556C
B00034
A000B0
A000D0
A002C0
A00340
A00700
A00BE4
A0016C
A0000D
A0000E
A0000A
A0000A
A0000E
A0000D
A0157C
A03FE0
ENDCHAR
STARTCHAR Ygrave
ENCODING 7922
SWIDTH 493 0
DWIDTH 14 0
BBX 12 23 1 0
BITMAP
038000
01D000
007000
001400
000000
D0000B
B0000D
74002C
2C0034
1D00B0
0B00D0
0742C0
02C340
01DB00
00BD00
007C00
002800
002800
002800
002800
002800
002800
002800
ENDCHAR
STARTCHAR ygrave
ENCODING 7923
SWIDTH 459 0
DWIDTH 13 0
BBX 11 23 1 -4
BITMAP
038000
01D000
007000
001000
000000
D0001C
A00028
700034
3400B0
2800E0
1C01D0
0D02C0
0A0380
070740
038B00
02CD00
01EC00
00F800
003400
007000
00E000
16C000
BE0000
ENDCHAR
STARTCHAR uni200B
ENCODING 8203
SWIDTH 0 0
DWIDTH 0 0
BBX 1 1 0 0
BITMAP
00
ENDCHAR
STARTCHAR uni200C
ENCODING 8204
SWIDTH 0 0
DWIDTH 0 0
BBX 2 29 -1 -6
BITMAP
50
A0
A0
A0
A0
A0
A0
A0
A0
A0
A0
A0
A0
A0
A0
A0
A0
A0
A0
A0
A0
A0
A0
A0
A0
A0
A0
A0
A0
ENDCHAR
STARTCHAR uni200D
ENCODING 8205
SWIDTH 0 0
DWIDTH 0 0
BBX 8 29 -4 -6
BITMAP
1004
782D
1EB4
07D0
0BE0
2EB8
769D
0280
0280
0280
0280
0280
0280
0280
0280
0280
0280
0280
0280
0280
0280
0280
0280
0280
0280
0280
0280
0280
0280
ENDCHAR
STARTCHAR endash
ENCODING 8211
SWIDTH 408 0
DWIDTH 11 0
BBX 10 2 1 7
BITMAP
FFFFD0
155540
ENDCHAR
STARTCHAR emdash
ENCODING 8212
SWIDTH 537 0
DWIDTH 15 0
BBX 13 2 1 7
BITMAP
FFFFFFC0
15555540
ENDCHAR
STARTCHAR quoteleft
ENCODING 8216
SWIDTH 179 0
DWIDTH 5 0
BBX 3 6 1 11
BITMAP
14
24
34
74
74
74
ENDCHAR
STARTCHAR quoteright
ENCODING 8217
SWIDTH 179 0
DWIDTH 5 0
BBX 3 6 1 12
BITMAP
74
74
74
70
60
50
ENDCHAR
STARTCHAR quotesinglbase
ENCODING 8218
SWIDTH 187 0
DWIDTH 5 0
BBX 2 7 2 -3
BITMAP
D0
D0
D0
D0
C0
80
40
ENDCHAR
STARTCHAR quotedblleft
ENCODING 8220
SWIDTH 329 0
DWIDTH 9 0
BBX 7 7 1 11
BITMAP
0004
1414
2424
3424
7434
7434
7434
ENDCHAR
STARTCHAR quotedblright
ENCODING 8221
SWIDTH 329 0
DWIDTH 9 0
BBX 7 7 1 11
BITMAP
7434
7434
7434
7034
6030
5020
0010
ENDCHAR
STARTCHAR quotedblbase
ENCODING 8222
SWIDTH 337 0
DWIDTH 9 0
BBX 6 7 2 -3
BITMAP
D0E0
D0E0
D0E0
C0D0
C0C0
8080
4080
ENDCHAR
STARTCHAR dagger
ENCODING 8224
SWIDTH 427 0
DWIDTH 12 0
BBX 10 18 1 0
BITMAP
00A000
00A000
00A000
00A000
009000
BFFFE0
00A000
00A000
00A000
00A000
00A000
00A000
00A000
00A000
00A000
009000
009000
005000
ENDCHAR
STARTCHAR daggerdbl
ENCODING 8225
SWIDTH 427 0
DWIDTH 12 0
BBX 10 18 1 0
BITMAP
00A000
00A000
00A000
00A000
009000
BFFFE0
00A000
00A000
00A000
00A000
00A000
00A000
BFFFE0
15A540
00A000
00A000
00A000
00A000
ENDCHAR
STARTCHAR bullet
ENCODING 8226
SWIDTH 273 0
DWIDTH 8 0
BBX 3 5 2 6
BITMAP
7C
7C
7C
7C
7C
ENDCHAR
STARTCHAR ellipsis
ENCODING 8230
SWIDTH 591 0
DWIDTH 17 0
BBX 13 4 2 0
BITMAP
D01C0380
D02C0380
D02C0380
D01C0380
ENDCHAR
STARTCHAR perthousand
ENCODING 8240
SWIDTH 1027 0
DWIDTH 29 0
BBX 27 18 1 0
BITMAP
1BE40090000000
756C01C0000000
60090240000000
A00A0700000000
A00A0A00000000
A0090C00000000
741D1800000000
2FF43400000000
01407000000000
00009000000000
0001C1BE402F90
00028341D0E074
00030600A1C018
000A060061C018
000D060061C018
00180700A1C018
00240395D0E574
007001BF406FE0
ENDCHAR
STARTCHAR guilsinglleft
ENCODING 8249
SWIDTH 290 0
DWIDTH 8 0
BBX 5 9 2 3
BITMAP
0140
0700
1D00
7400
D000
D000
7400
1D00
0340
ENDCHAR
STARTCHAR guilsinglright
ENCODING 8250
SWIDTH 290 0
DWIDTH 8 0
BBX 5 10 2 2
BITMAP
4000
D000
3800
0E00
0340
0700
1D00
7400
D000
4000
ENDCHAR
STARTCHAR fraction
ENCODING 8260
SWIDTH 117 0
DWIDTH 3 0
BBX 15 18 -6 0
BITMAP
00000028
000000A0
000001C0
00000340
00000A00
00001C00
00007400
0000D000
00028000
00070000
001D0000
00340000
00A00000
01C00000
03400000
0A000000
28000000
70000000
ENDCHAR
STARTCHAR Euro
ENCODING 8364
SWIDTH 523 0
DWIDTH 15 0
BBX 12 18 1 0
BITMAP
01BFE0
07956C
0A000D
0E000A
0D000A
0D0000
0D0000
FFFF40
5E5500
0D0000
FFFF40
5E5500
0D0000
0D000A
0E000A
0A000E
07956C
01BFE0
ENDCHAR
STARTCHAR uni20B9
ENCODING 8377
SWIDTH 414 0
DWIDTH 12 0
BBX 10 19 1 -1
BITMAP
FFFFE0
55B540
003400
002800
FFFFE0
156940
002800
003400
00B000
FFD000
B40000
380000
1D0000
0B0000
028000
01D000
007400
002800
000400
ENDCHAR
STARTCHAR trademark
ENCODING 8482
SWIDTH 591 0
DWIDTH 17 0
BBX 13 8 2 12
BITMAP
55400000
FFCA0280
0C0B4380
0C098980
0C099980
0C097580
0C090180
08040080
ENDCHAR
STARTCHAR uni2126
ENCODING 8486
SWIDTH 629 0
DWIDTH 18 0
BBX 16 19 1 -1
BITMAP
01FFFE40
0B9556D0
0D0000A0
1C0000B0
1C000070
1C000070
1C000070
1C000070
1C000070
1C000070
1C000070
1C000070
1C000070
1C000070
1C0000A0
0D0000A0
074002C0
FFF83FFD
15501554
ENDCHAR
STARTCHAR partialdiff
ENCODING 8706
SWIDTH 481 0
DWIDTH 13 0
BBX 11 19 1 -1
BITMAP
07E400
016F40
0001D0
0000A0
000034
000024
07FF68
2E55F8
380038
740028
700028
700028
700028
700028
700028
340038
2D00B4
0BFFD0
005400
ENDCHAR
STARTCHAR uni2206
ENCODING 8710
SWIDTH 594 0
DWIDTH 17 0
BBX 15 20 1 -1
BITMAP
00010000
000B4000
001E8000
002DD000
0038E000
0070B000
00A03400
00D02800
01C01C00
02800D00
03400A00
07000700
0A000340
1D000280
2C0001D0
380000E0
740000B0
B0000074
FFFFFFF8
55555550
ENDCHAR
STARTCHAR minus
ENCODING 8722
SWIDTH 523 0
DWIDTH 15 0
BBX 11 2 2 8
BITMAP
FFFFF8
555550
ENDCHAR
STARTCHAR approxequal
ENCODING 8776
SWIDTH 523 0
DWIDTH 15 0
BBX 11 6 2 6
BITMAP
BFFFF8
555540
000000
000000
7F9428
E5AFF4
ENDCHAR
STARTCHAR notequal
ENCODING 8800
SWIDTH 523 0
DWIDTH 15 0
BBX 11 13 2 3
BITMAP
000100
000600
000900
000D00
FFFFF8
556950
003000
006000
009000
FFFFF8
569550
024000
030000
ENDCHAR
STARTCHAR lessequal
ENCODING 8804
SWIDTH 523 0
DWIDTH 15 0
BBX 11 12 2 3
BITMAP
000014
0016F4
06F940
BE4000
F40000
1BE400
006F90
0001B8
000000
000000
FFFFF8
555550
ENDCHAR
STARTCHAR greaterequal
ENCODING 8805
SWIDTH 523 0
DWIDTH 15 0
BBX 11 12 2 3
BITMAP
900000
BE4000
06F900
0016E4
0001B8
006F90
1BE400
E90000
000000
000000
FFFFF8
555550
ENDCHAR
STARTCHAR uni25CC
ENCODING 9676
SWIDTH 701 0
DWIDTH 20 0
BBX 16 17 2 1
BITMAP
000B0900
028F5F00
07C61E64
038000B8
00000074
78000000
BC00000E
6400001F
6000000A
F4000000
B400001D
0900002E
1F000019
1E0001D0
0074A2E0
00B8F590
0064B000
ENDCHAR
STARTCHAR commaaccent
ENCODING 63171
SWIDTH 0 0
DWIDTH 0 0
BBX 2 6 5 -7
BITMAP
70
70
70
60
50
40
ENDCHAR
STARTCHAR .notdef
ENCODING -1
SWIDTH 600 0
DWIDTH 17 0
BBX 11 18 3 -1
BITMAP
BFFFF4
A55574
A00034
A00034
A00034
A00034
A00034
A00034
A00034
A00034
A00034
A00034
A00034
A00034
A00034
A00034
BFFFF4
155550
ENDCHAR
STARTCHAR .null
ENCODING -1
SWIDTH 0 0
DWIDTH 0 0
BBX 1 1 0 0
BITMAP
00
ENDCHAR
STARTCHAR nonmarkingreturn
ENCODING -1
SWIDTH 333 0
DWIDTH 9 0
BBX 1 1 0 0
BITMAP
00
ENDCHAR
STARTCHAR uni0915094D
ENCODING -1
SWIDTH 519 0
DWIDTH 15 0
BBX 19 18 -1 0
BITMAP
7FFFFFFFFC
15555B5554
00000A0000
00000A0000
007F4A7FE0
02E50BD578
03400B4008
07000B0000
07000A0000
07000A0000
07000A0000
07000A0000
03400A0000
02D02E0000
00BFEA0000
00050A0000
00000A0000
00000A0000
ENDCHAR
STARTCHAR uni0916094D
ENCODING -1
SWIDTH 468 0
DWIDTH 13 0
BBX 18 18 -1 0
BITMAP
7FFFFFFFC0
1557555540
0007400000
0007400000
0007400000
000741F800
0007079000
00070A0000
001E0D0000
0FF80D0000
0B400D0000
03400E0000
01C00741D0
00A002FF40
0034001000
001C000000
000A000000
0003400000
ENDCHAR
STARTCHAR uni0917094D
ENCODING -1
SWIDTH 264 0
DWIDTH 7 0
BBX 9 12 -1 6
BITMAP
7FFF80
157500
007000
007000
007000
007000
007000
007000
007000
01E000
1F8000
040000
ENDCHAR
STARTCHAR uni0918094D
ENCODING -1
SWIDTH 321 0
DWIDTH 9 0
BBX 14 16 -1 2
BITMAP
7FFFFFD0
16D55540
02800000
03400000
03400000
03800000
01D00000
00BF8000
01D50000
03800000
03400000
03400000
03800040
02D002D0
00BFFF40
00015000
ENDCHAR
STARTCHAR uni0919094D
ENCODING -1
SWIDTH 505 0
DWIDTH 14 0
BBX 16 25 -1 -7
BITMAP
7FFFFFFE
15555A54
00000A00
00000A00
00000A00
00BFFE00
02D55400
03800000
03400074
02D00010
00BFF900
00055B00
00000340
00000280
03400280
03400340
02900B40
00BFFD00
00054000
00010000
00028000
0000E000
00007400
00002C00
00000400
ENDCHAR
STARTCHAR uni091A094D
ENCODING -1
SWIDTH 330 0
DWIDTH 9 0
BBX 14 16 -1 2
BITMAP
7FFFFFE0
15555540
00000000
00000000
00000000
00000000
1FFFF000
05795000
00A00000
00D00000
00D00000
00D00000
00E00050
007401D0
002FFF40
00015000
ENDCHAR
STARTCHAR uni091B094D
ENCODING -1
SWIDTH 581 0
DWIDTH 16 0
BBX 18 18 -1 0
BITMAP
7FFFFFFFE0
15E5555540
0280000000
0380000000
03800BE000
0380017800
0280001C00
01D0000D00
007F400D00
01E5000D00
0280000D00
0380000D00
0380000D00
0380001D00
0280001C00
01D0007800
007FFFE000
0001550000
ENDCHAR
STARTCHAR uni091C094D
ENCODING -1
SWIDTH 309 0
DWIDTH 9 0
BBX 13 17 -1 1
BITMAP
7FFFFF80
15555500
00000000
00000000
00000000
00000000
03FFFF80
015B5500
00038000
00028000
00028000
00028000
00028000
00028000
000B4000
0FFD0000
05400000
ENDCHAR
STARTCHAR uni091D094D
ENCODING -1
SWIDTH 432 0
DWIDTH 12 0
BBX 16 19 -1 -1
BITMAP
7FFFFFFF
15556D55
00002800
00002800
00BFF800
02D55000
03400000
03400000
02D00000
00BFFFFF
00055D55
00000A00
03400A00
03400A00
03901D00
03BFF800
03450000
03400000
03400000
ENDCHAR
STARTCHAR uni091E094D
ENCODING -1
SWIDTH 359 0
DWIDTH 10 0
BBX 14 16 -1 2
BITMAP
7FFFFFF0
15555550
00000000
00000000
00000000
07FE0000
01578000
0001C000
0000D000
0000FFF0
0000D540
0000C000
0001C000
00078000
0BFE0000
01500000
ENDCHAR
STARTCHAR uni091F094D
ENCODING -1
SWIDTH 485 0
DWIDTH 14 0
BBX 15 24 -1 -6
BITMAP
7FFFFFFC
15555A54
00000A00
00000A00
00000A00
006FFE00
01E55400
02800000
03400000
03400000
03400000
03400080
034000D0
034001C0
038001C0
01D00740
007FFE00
00055000
00000000
00018000
0000D000
00007000
00002800
00000900
ENDCHAR
STARTCHAR uni0920094D
ENCODING -1
SWIDTH 512 0
DWIDTH 14 0
BBX 16 24 -1 -6
BITMAP
7FFFFFFE
15555B54
00000700
00000700
00001A00
006FFD00
01E55B40
038002C0
034001C0
034000D0
034000D0
034000D0
034000D0
034001D0
038001C0
01D00780
00BFFE00
00055000
00000000
00028000
0001D000
0000B000
00003800
00001800
ENDCHAR
STARTCHAR uni0921094D
ENCODING -1
SWIDTH 475 0
DWIDTH 13 0
BBX 15 25 -1 -7
BITMAP
7FFFFFF8
15555A50
00000A00
00000A00
00000A00
00BFFE00
02D55400
03400000
03400000
02900000
00BFF900
00055B00
00000340
01000280
03400280
03400340
02D00B40
00BFFD00
00054000
00014000
0001C000
0000A000
00007400
00002C00
00000400
ENDCHAR
STARTCHAR uni0922094D
ENCODING -1
SWIDTH 485 0
DWIDTH 14 0
BBX 15 24 -1 -6
BITMAP
7FFFFFFC
15555B54
00000A00
00000A00
00000A00
006FFE00
01E55400
02800000
03400000
03407E40
0340E6C0
0341C0C0
0341C0D0
034040D0
028001C0
01D00680
007FFE00
00055000
00000000
00018000
0000D000
00007000
00002800
00001800
ENDCHAR
STARTCHAR uni0923094D
ENCODING -1
SWIDTH 454 0
DWIDTH 13 0
BBX 14 14 -1 4
BITMAP
7FFFFFF0
16955E50
02800D00
02800D00
02800D00
02800D00
02800D00
02800D00
02800D00
02800D00
02C01D00
01E06C00
007FE000
00010000
ENDCHAR
STARTCHAR uni0924094D
ENCODING -1
SWIDTH 263 0
DWIDTH 7 0
BBX 12 18 -1 0
BITMAP
7FFFFD
155554
000000
000000
000000
000000
007FFD
02D554
034000
034000
034000
034000
034000
034000
034000
034000
02D000
00BE00
ENDCHAR
STARTCHAR uni0925094D
ENCODING -1
SWIDTH 359 0
DWIDTH 10 0
BBX 13 16 1 2
BITMAP
06F80000
0E5E0000
1C070000
28034000
28034000
00034000
00070000
001E0000
7FF80000
75400000
70000000
70000000
34000240
2D001B00
07FFF800
00154000
ENDCHAR
STARTCHAR uni0926094D
ENCODING -1
SWIDTH 489 0
DWIDTH 14 0
BBX 15 23 -1 -5
BITMAP
7FFFFFFC
15555754
00000740
00000740
00000740
007FFF00
01E55400
03800000
03400000
03400000
03400000
03400280
03800280
02D00780
00BFFA80
00054280
00000280
00000280
00028000
0000D000
00007000
00002800
00000400
ENDCHAR
STARTCHAR uni0927094D
ENCODING -1
SWIDTH 321 0
DWIDTH 9 0
BBX 14 16 -1 2
BITMAP
7FFE1FE0
16D40540
02800000
03400000
03400000
03800000
01D00000
00BF8000
01D50000
03800000
03400000
03400000
03800040
02D002D0
00BFFF40
00015000
ENDCHAR
STARTCHAR uni0928094D
ENCODING -1
SWIDTH 233 0
DWIDTH 7 0
BBX 11 12 -1 6
BITMAP
7FFFF4
155550
000000
000000
000000
000000
000000
02FFF4
0B5550
0D0000
0D0000
0A0000
ENDCHAR
STARTCHAR uni092A094D
ENCODING -1
SWIDTH 269 0
DWIDTH 8 0
BBX 12 14 -1 4
BITMAP
7FFFFF
169555
028000
028000
028000
028000
028000
028000
028000
028000
02C002
00E01A
007FF8
000140
ENDCHAR
STARTCHAR uni092B094D
ENCODING -1
SWIDTH 530 0
DWIDTH 15 0
BBX 20 19 -1 -1
BITMAP
7FFFFFFFFE
1695575554
0280034000
0280034000
0280036FE4
028003E56D
0280038009
0280034000
0280074000
02C0074000
01E01F4000
007FF74000
0001034000
0000034000
0000034000
0000034000
0000034000
0000034000
0000010000
ENDCHAR
STARTCHAR uni092C094D
ENCODING -1
SWIDTH 265 0
DWIDTH 7 0
BBX 12 16 -1 2
BITMAP
7FFFFF
155555
000000
000000
007F80
01E500
03D000
077400
070D00
070340
0700D2
070037
03400F
02D01D
00BFF8
000540
ENDCHAR
STARTCHAR uni092D094D
ENCODING -1
SWIDTH 261 0
DWIDTH 7 0
BBX 12 13 -1 5
BITMAP
7900FD
1B0054
034000
028000
028000
028000
028000
028000
02FFFD
029554
028000
028000
024000
ENDCHAR
STARTCHAR uni092E094D
ENCODING -1
SWIDTH 261 0
DWIDTH 7 0
BBX 12 13 -1 5
BITMAP
7FFFFD
179554
028000
028000
028000
028000
028000
028000
02FFFD
029554
028000
028000
024000
ENDCHAR
STARTCHAR uni092F094D
ENCODING -1
SWIDTH 323 0
DWIDTH 9 0
BBX 14 16 -1 2
BITMAP
7FFFFF80
155A5500
00034000
00034000
00034000
00034000
000B0000
03FD0000
03400000
03400000
03400000
03400000
02800050
01E406D0
007FFE40
00015000
ENDCHAR
STARTCHAR uni0930094D
ENCODING -1
SWIDTH 337 0
DWIDTH 9 0
BBX 11 24 -1 -6
BITMAP
7FFFF8
155754
000740
000740
000740
000740
000700
000700
001E00
0FF800
0F4000
074000
01C000
00A000
003400
001C00
000A00
000340
000000
002000
002800
000D00
000740
000240
ENDCHAR
STARTCHAR uni0932094D
ENCODING -1
SWIDTH 431 0
DWIDTH 12 0
BBX 17 18 -1 0
BITMAP
7FFFFFFF80
1555555500
0000000000
0000000000
0000000000
006F82FD00
01E5BB5780
02802C0000
03402C0000
0340180000
0340180000
0340180000
0340040000
0340000000
0280000000
01D0000000
00BF800000
0005000000
ENDCHAR
STARTCHAR uni0933094D
ENCODING -1
SWIDTH 677 0
DWIDTH 19 0
BBX 21 18 -1 0
BITMAP
7FFFFFFFFF40
155555555500
000000000000
000000000000
000000000000
007F91FE4000
01E5BB56C000
03802D00E000
03401C00A000
03401C006000
03401C006000
03401C006000
03401C006000
03401C00A000
03402D00A000
02D07B42D000
00BFD2FF4000
000400100000
ENDCHAR
STARTCHAR uni0935094D
ENCODING -1
SWIDTH 255 0
DWIDTH 7 0
BBX 12 16 -1 2
BITMAP
7FFFFF
155555
000000
000000
007F80
01E500
034000
074000
070000
070000
070002
070003
034007
02D01D
00BFF8
000540
ENDCHAR
STARTCHAR uni0936094D
ENCODING -1
SWIDTH 378 0
DWIDTH 11 0
BBX 9 18 1 0
BITMAP
06F800
1D5A00
280340
340340
340340
140340
000340
000740
001B00
BFF800
B54000
380000
1D0000
0B0000
038000
01D000
00B000
003800
ENDCHAR
STARTCHAR uni0937094D
ENCODING -1
SWIDTH 282 0
DWIDTH 8 0
BBX 13 14 -1 4
BITMAP
7FFFFF40
16D55500
02E00000
02A40000
028D0000
02874000
0281C000
0280A000
02802800
02800E00
02C00780
00E01E00
007FF800
00014000
ENDCHAR
STARTCHAR uni0938094D
ENCODING -1
SWIDTH 338 0
DWIDTH 9 0
BBX 14 19 -1 -1
BITMAP
7FFFFFE0
155E5540
000A0000
000A0000
000A0000
000A0000
000A0000
000D0000
002C0000
0FFFFFE0
0B555540
07400000
02C00000
00D00000
00700000
00380000
001D0000
000A0000
00010000
ENDCHAR
STARTCHAR uni0939094D
ENCODING -1
SWIDTH 457 0
DWIDTH 13 0
BBX 17 20 -1 -2
BITMAP
7FFFFFF800
15555B5000
0000070000
0000070000
007FFF0000
01E5540000
0280000000
0280000000
0280000000
01D0000000
007FFFFF80
00E5555500
0280000000
0380000000
0340000000
0340000000
0280000000
01E0000000
007FFF0000
0001550000
ENDCHAR
STARTCHAR uni0915093C094D
ENCODING -1
SWIDTH 519 0
DWIDTH 15 0
BBX 19 19 -1 -1
BITMAP
7FFFFFFFFC
15555B5554
00000A0000
00000A0000
007F4A7FE0
02E50BD578
03400B4008
07000B0000
07000A0000
07000A0000
07000A0000
07000A0000
03400A0000
02D02E0000
00BFEA0000
00050A0000
00000A0000
00000A0000
00A0000000
ENDCHAR
STARTCHAR uni0916093C094D
ENCODING -1
SWIDTH 463 0
DWIDTH 13 0
BBX 18 20 -1 -2
BITMAP
7FFFFFFFC0
1557555540
0007400000
0007400000
0007400000
000741F800
0007079000
00070A0000
001E0D0000
0FF80D0000
0B400D0000
03400E0000
01C00741D0
00A002FF40
0034001000
001D000000
000A000000
0003400000
0340000000
0100000000
ENDCHAR
STARTCHAR uni0917093C094D
ENCODING -1
SWIDTH 264 0
DWIDTH 7 0
BBX 9 19 -1 -1
BITMAP
7FFF80
157500
007000
007000
007000
007000
007000
007000
007000
01E000
1F8000
040000
000000
000000
000000
000000
000000
00D000
004000
ENDCHAR
STARTCHAR uni091C093C094D
ENCODING -1
SWIDTH 314 0
DWIDTH 9 0
BBX 13 21 -1 -3
BITMAP
7FFFFF80
15555500
00000000
00000000
00000000
00000000
03FFFF80
015B5500
00038000
00028000
00028000
00028000
00028000
00028000
000B4000
0FFD0000
05400000
00000000
00000000
01C00000
00400000
ENDCHAR
STARTCHAR uni0928093C094D
ENCODING -1
SWIDTH 241 0
DWIDTH 7 0
BBX 10 19 0 -1
BITMAP
FFFFE0
555540
000000
000000
000000
000000
000000
0BFFE0
1D5540
280000
280000
1C0000
040000
000000
000000
000000
000000
01C000
004000
ENDCHAR
STARTCHAR uni092B093C094D
ENCODING -1
SWIDTH 530 0
DWIDTH 15 0
BBX 20 20 -1 -2
BITMAP
7FFFFFFFFE
1695575554
0280034000
0280034000
0280036FE4
028003E56D
0280038009
0280034000
0280074000
02C0074000
01E01F4000
007FF74000
0001034000
0000034000
0000034000
0000034000
0000034000
0000034000
0034010000
0010000000
ENDCHAR
STARTCHAR uni092F093C094D
ENCODING -1
SWIDTH 325 0
DWIDTH 9 0
BBX 14 19 -1 -1
BITMAP
7FFFFF80
155A5500
00034000
00034000
00034000
00034000
000B0000
03FD0000
03400000
03400000
03400000
03400000
02800050
01E406D0
007FFE40
00015000
00000000
00000000
00380000
ENDCHAR
STARTCHAR uni09080902
ENCODING -1
SWIDTH 478 0
DWIDTH 13 0
BBX 15 26 -1 -1
BITMAP
00001BE0
00007940
0000A000
0000D1C0
0000D000
0000D000
0000A000
7FFFFFF8
15555B50
00000A00
00000A00
00BFFE00
02D55400
03400000
03400000
03400000
02D00000
00BFFD00
00055B40
00000280
03400280
03400280
03D00740
03BFFE00
03454000
03400000
ENDCHAR
STARTCHAR uni09300941
ENCODING -1
SWIDTH 533 0
DWIDTH 15 0
BBX 17 18 -1 0
BITMAP
7FFFFFFF40
1557555500
0007400000
0007400000
0007400000
0007FF8000
000755E000
0007007000
001E003000
0FF8007000
0B40007000
074000A000
01C002D000
00A01F4000
0074180000
001C000000
000A000000
0003400000
ENDCHAR
STARTCHAR uni09300942
ENCODING -1
SWIDTH 645 0
DWIDTH 18 0
BBX 20 18 -1 0
BITMAP
7FFFFFFFFD
1557555554
0007400000
0007400000
0007400000
000741FE00
0007075680
00070A00C0
001E0900D0
0FF80900D0
0B400000C0
03400001C0
01C0000B40
00A0007D00
003402E000
001C000000
000A000000
0003400000
ENDCHAR
STARTCHAR uni09390941
ENCODING -1
SWIDTH 495 0
DWIDTH 14 0
BBX 16 25 -1 -7
BITMAP
7FFFFFFD
15555B54
00000700
00000700
007FFF00
01E55400
02800000
02800000
02800000
01D00000
007FF900
00E55B00
02800340
03800340
03400240
03400000
02800000
01E00000
007FFE00
00015780
010001C0
074001C0
02D001C0
00B95780
001BF900
ENDCHAR
STARTCHAR uni09390942
ENCODING -1
SWIDTH 492 0
DWIDTH 14 0
BBX 15 25 -1 -7
BITMAP
7FFFFFF8
15555B54
00000700
00000700
00000700
007FFF00
01D55400
02800000
02800000
01D00000
007FF800
00E55B00
02C00340
03800340
03400340
03800000
02800000
01E00000
00BFE400
00E56E00
01C00740
01C00280
01C000D0
00E500A0
006F4010
ENDCHAR
STARTCHAR uni09260943
ENCODING -1
SWIDTH 390 0
DWIDTH 11 0
BBX 13 17 -1 1
BITMAP
7FFFFF40
1555A500
0000A000
0000A000
00BFE000
02D54000
02800000
03400000
02D00000
00BF8000
01D50000
02800000
03400000
02800000
02D00000
00BFF800
00055000
ENDCHAR
STARTCHAR uni09390943
ENCODING -1
SWIDTH 519 0
DWIDTH 15 0
BBX 16 22 -1 -4
BITMAP
7FFFFFFF
15555B55
00000700
00000700
00BFFF00
02D55400
03800000
03400000
03400000
02D00000
00BFFFD0
01D5D5B0
03428034
03428010
07028000
0701D000
0700BFE0
03400540
03400000
02D00000
00BFFF00
00055500
ENDCHAR
STARTCHAR uni094D0930
ENCODING -1
SWIDTH 0 0
DWIDTH 0 0
BBX 8 6 -11 -5
BITMAP
0140
07D0
0DB0
2828
B01D
D007
ENDCHAR
STARTCHAR uni0930094D.1
ENCODING -1
SWIDTH 192 0
DWIDTH 5 0
BBX 10 9 -2 9
BITMAP
1FFE00
055400
000000
000000
000000
400010
B401B0
2FFF80
015400
ENDCHAR
STARTCHAR uni0930094D.2
ENCODING -1
SWIDTH 0 0
DWIDTH 0 0
BBX 5 8 -4 17
BITMAP
1F80
7500
A000
D000
D000
D000
D000
9000
ENDCHAR
STARTCHAR uni0930094D0902
ENCODING -1
SWIDTH 0 0
DWIDTH 0 0
BBX 5 9 -4 16
BITMAP
1F80
7900
A000
D000
D340
D100
D000
E000
4000
ENDCHAR
STARTCHAR uni093E0930094D
ENCODING -1
SWIDTH 231 0
DWIDTH 6 0
BBX 8 26 -1 -1
BITMAP
002F
00E5
01C0
01C0
01C0
01C0
01C0
7FFF
16D5
01C0
01C0
01C0
01C0
01C0
01C0
01C0
01C0
01C0
01C0
01C0
01C0
01C0
01C0
01C0
01C0
0040
ENDCHAR
STARTCHAR uni093E0930094D0902
ENCODING -1
SWIDTH 231 0
DWIDTH 6 0
BBX 8 26 -1 -1
BITMAP
006F
00E5
01C0
01C3
01C1
01C0
01C0
7FFF
16D5
01C0
01C0
01C0
01C0
01C0
01C0
01C0
01C0
01C0
01C0
01C0
01C0
01C0
01C0
01C0
01C0
0040
ENDCHAR
STARTCHAR uni0930094D.aMatraI
ENCODING -1
SWIDTH 0 0
DWIDTH 0 0
BBX 5 6 -2 18
BITMAP
0BC0
2940
7400
7000
7000
7000
ENDCHAR
STARTCHAR uni0902.aMatraI
ENCODING -1
SWIDTH 0 0
DWIDTH 0 0
BBX 2 1 1 22
BITMAP
E0
ENDCHAR
STARTCHAR uni0930094D0902.aMatraI
ENCODING -1
SWIDTH 0 0
DWIDTH 0 0
BBX 5 6 -2 18
BITMAP
0BC0
2940
7400
71C0
7000
7000
ENDCHAR
STARTCHAR uni09400930094D
ENCODING -1
SWIDTH 231 0
DWIDTH 6 0
BBX 12 26 -4 -1
BITMAP
1BE4BD
796E94
A00B00
D00700
D00700
000700
000700
01FFFC
005B54
000700
000700
000700
000700
000700
000700
000700
000700
000700
000700
000700
000700
000700
000700
000700
000700
000100
ENDCHAR
STARTCHAR uni09400902
ENCODING -1
SWIDTH 231 0
DWIDTH 6 0
BBX 11 26 -4 -1
BITMAP
1BE400
796D00
E00A2C
D00704
900700
000700
000700
01FFFC
005B54
000700
000700
000700
000700
000700
000700
000700
000700
000700
000700
000700
000700
000700
000700
000700
000700
000100
ENDCHAR
STARTCHAR uni09400930094D0902
ENCODING -1
SWIDTH 231 0
DWIDTH 6 0
BBX 12 26 -4 -1
BITMAP
1BE4BD
796F94
E00B00
D0070D
900704
000700
000700
01FFFC
005B54
000700
000700
000700
000700
000700
000700
000700
000700
000700
000700
000700
000700
000700
000700
000700
000700
000100
ENDCHAR
STARTCHAR uni0940.aLong
ENCODING -1
SWIDTH 231 0
DWIDTH 6 0
BBX 18 26 -11 -1
BITMAP
1BFFFF9000
795555B400
A000002800
A000001C00
E000001C00
0000001C00
0000001C00
000007FFF0
0000016D50
0000001C00
0000001C00
0000001C00
0000001C00
0000001C00
0000001C00
0000001C00
0000001C00
0000001C00
0000001C00
0000001C00
0000001C00
0000001C00
0000001C00
0000001C00
0000001C00
0000000400
ENDCHAR
STARTCHAR uni09400930094D.aLong
ENCODING -1
SWIDTH 231 0
DWIDTH 6 0
BBX 18 26 -11 -1
BITMAP
1BFFFF92F0
795555BE50
A000002C00
A000001C00
E000001C00
0000001C00
0000001C00
000007FFF0
0000016D50
0000001C00
0000001C00
0000001C00
0000001C00
0000001C00
0000001C00
0000001C00
0000001C00
0000001C00
0000001C00
0000001C00
0000001C00
0000001C00
0000001C00
0000001C00
0000001C00
0000000400
ENDCHAR
STARTCHAR uni09400902.aLong
ENCODING -1
SWIDTH 231 0
DWIDTH 6 0
BBX 19 26 -11 -1
BITMAP
1BFFFF9000
795555B400
A000002800
A000001C34
E000001C10
0000001C00
0000001C00
000007FFF0
0000016D50
0000001C00
0000001C00
0000001C00
0000001C00
0000001C00
0000001C00
0000001C00
0000001C00
0000001C00
0000001C00
0000001C00
0000001C00
0000001C00
0000001C00
0000001C00
0000001C00
0000000400
ENDCHAR
STARTCHAR uni09400930094D0902.aLong
ENCODING -1
SWIDTH 231 0
DWIDTH 6 0
BBX 19 26 -11 -1
BITMAP
1BFFFF92F0
795555BE50
A000002C00
E000001C34
5000001C10
0000001C00
0000001C00
000007FFF0
0000016D50
0000001C00
0000001C00
0000001C00
0000001C00
0000001C00
0000001C00
0000001C00
0000001C00
0000001C00
0000001C00
0000001C00
0000001C00
0000001C00
0000001C00
0000001C00
0000001C00
0000000400
ENDCHAR
STARTCHAR uni09470930094D
ENCODING -1
SWIDTH 0 0
DWIDTH 0 0
BBX 10 8 -9 17
BITMAP
7407E0
381D40
1D2800
0B2400
02A400
00F400
007400
001400
ENDCHAR
STARTCHAR uni09470902
ENCODING -1
SWIDTH 0 0
DWIDTH 0 0
BBX 9 9 -9 16
BITMAP
B00000
380000
1D0000
0B0280
038000
01D000
00B000
003C00
000400
ENDCHAR
STARTCHAR uni09470901
ENCODING -1
SWIDTH 0 0
DWIDTH 0 0
BBX 15 9 -9 16
BITMAP
70002800
38180014
1D1C0034
0B1C0034
038E00B0
01D7FFD0
00B01500
002C0000
00040000
ENDCHAR
STARTCHAR uni09470930094D0902
ENCODING -1
SWIDTH 0 0
DWIDTH 0 0
BBX 10 8 -9 17
BITMAP
7407E0
381D40
1D2800
0B2400
02A4D0
00F440
007400
001400
ENDCHAR
STARTCHAR uni09480930094D
ENCODING -1
SWIDTH 0 0
DWIDTH 0 0
BBX 10 8 -9 17
BITMAP
D0E2E0
70EA40
28EC00
1DA800
067400
02B400
00F400
007800
ENDCHAR
STARTCHAR uni09480902
ENCODING -1
SWIDTH 0 0
DWIDTH 0 0
BBX 10 8 -9 17
BITMAP
A03400
743400
2C3400
0E34E0
076400
01E400
00B400
002800
ENDCHAR
STARTCHAR uni09480901
ENCODING -1
SWIDTH 0 0
DWIDTH 0 0
BBX 17 8 -9 17
BITMAP
A03401C000
7434804140
2C34C00280
0E34E00740
07647FFE00
01E4015000
00B4000000
0028000000
ENDCHAR
STARTCHAR uni09480930094D0902
ENCODING -1
SWIDTH 0 0
DWIDTH 0 0
BBX 10 8 -9 17
BITMAP
D0E2E0
70EA40
28EC00
1DA800
0674D0
02B440
00F400
007800
ENDCHAR
STARTCHAR uni094B0930094D
ENCODING -1
SWIDTH 231 0
DWIDTH 6 0
BBX 9 26 -2 -1
BITMAP
E00BC0
743940
2C7000
0E7000
077000
02F000
00B000
1FFFC0
05B540
007000
007000
007000
007000
007000
007000
007000
007000
007000
007000
007000
007000
007000
007000
007000
007000
001000
ENDCHAR
STARTCHAR uni094B0902
ENCODING -1
SWIDTH 231 0
DWIDTH 6 0
BBX 9 26 -2 -1
BITMAP
E00000
740000
2C0A00
0E0000
074000
028000
00A000
1FFFC0
05B540
007000
007000
007000
007000
007000
007000
007000
007000
007000
007000
007000
007000
007000
007000
007000
007000
001000
ENDCHAR
STARTCHAR uni094B0930094D0902
ENCODING -1
SWIDTH 231 0
DWIDTH 6 0
BBX 10 26 -2 -1
BITMAP
E01BC0
743940
2D7000
0F70D0
07F040
02F000
00B000
1FFFC0
05B540
007000
007000
007000
007000
007000
007000
007000
007000
007000
007000
007000
007000
007000
007000
007000
007000
001000
ENDCHAR
STARTCHAR uni094C0930094D
ENCODING -1
SWIDTH 231 0
DWIDTH 6 0
BBX 11 26 -3 -1
BITMAP
B071F4
387750
1D7900
0B7800
02B800
00EC00
007C00
07FFF0
016D50
001C00
001C00
001C00
001C00
001C00
001C00
001C00
001C00
001C00
001C00
001C00
001C00
001C00
001C00
001C00
001C00
000400
ENDCHAR
STARTCHAR uni094C0902
ENCODING -1
SWIDTH 231 0
DWIDTH 6 0
BBX 10 26 -3 -1
BITMAP
741C00
2C1C00
0E1CB0
075C10
01DC00
00AC00
002C00
07FFF0
016D50
001C00
001C00
001C00
001C00
001C00
001C00
001C00
001C00
001C00
001C00
001C00
001C00
001C00
001C00
001C00
001C00
000400
ENDCHAR
STARTCHAR uni094C0930094D0902
ENCODING -1
SWIDTH 231 0
DWIDTH 6 0
BBX 11 26 -3 -1
BITMAP
B071F4
387750
1D7900
0B7830
02B810
00EC00
007C00
07FFF0
016D50
001C00
001C00
001C00
001C00
001C00
001C00
001C00
001C00
001C00
001C00
001C00
001C00
001C00
001C00
001C00
001C00
000400
ENDCHAR
STARTCHAR uni0915094D0937
ENCODING -1
SWIDTH 656 0
DWIDTH 18 0
BBX 18 18 1 0
BITMAP
01BE402FE0
0396D02940
0B00A02800
0A00702800
0A00702800
0A00A02800
0381D02800
0BFFFFF800
2D55556800
3400002800
7400002800
7400A02800
7400A02800
3400A02800
2901E02800
0BFFA02800
0050A02800
0000A01400
ENDCHAR
STARTCHAR uni0915094D0937094D
ENCODING -1
SWIDTH 429 0
DWIDTH 12 0
BBX 15 18 1 0
BITMAP
01BE4000
0396D000
0B00A000
0A007000
0A007000
0A00A000
0381D000
0BFFFFF4
2D555550
34000000
74000000
7400A000
7400A000
3400A000
2901E000
0BFFA000
0050A000
0000A000
ENDCHAR
STARTCHAR uni0915094D0937094D092E
ENCODING -1
SWIDTH 933 0
DWIDTH 26 0
BBX 26 18 1 0
BITMAP
01BE40FFFFFFE0
0396D06D557940
0B00A01C002800
0A00701C002800
0A00701C002800
0A00A01C002800
0381D01C002800
0BFFFFFC002800
2800001FFFF800
3400001D556800
7400001C002800
7400A01C002800
7400A01C002800
3400A000002800
2901E000002800
0BFFA000002800
0050A000002800
0000A000002400
ENDCHAR
STARTCHAR uni0915094D0937094D092E094D
ENCODING -1
SWIDTH 717 0
DWIDTH 20 0
BBX 23 18 1 0
BITMAP
01BE40FFFFF4
0396D06D5550
0B00A01C0000
0A00701C0000
0A00701C0000
0A00A01C0000
0381D01C0000
0BFFFFFC0000
2800001FFFF4
3400001D5550
7400001C0000
7400A01C0000
7400A01C0000
3400A0000000
2901E0000000
0BFFA0000000
0050A0000000
0000A0000000
ENDCHAR
STARTCHAR uni0915094D0937094D092E094D092F
ENCODING -1
SWIDTH 1283 0
DWIDTH 36 0
BBX 36 18 1 0
BITMAP
01BE40FFFFFFFFFFFD
0396D06D5555B55794
0B00A01C0000340340
0A00701C0000380340
0A00701C0000280340
0A00A01C0000340340
0381D01C0000B00340
0BFFFFFC003F800340
2800001FFFF4000340
3400001D5574000340
7400001C0034000340
7400A01C0034000340
7400A01C0028000740
3400A000000E401F40
2901E0000002FFF740
0BFFA0000000150340
0050A0000000000340
0000A0000000000240
ENDCHAR
STARTCHAR uni0915094D0937094D092F
ENCODING -1
SWIDTH 989 0
DWIDTH 28 0
BBX 27 18 1 0
BITMAP
01BE40FFFFFFFC
0396D055E55754
0B00A000700700
0A007000340700
0A007000340700
0A00A000340700
0381D001B00700
0BFFFFFF900700
2D555574000700
34000070000700
74000070000700
7400A034000700
7400A038000B00
3400A01E006F00
2901E007FFE700
0BFFA000150700
0050A000000700
0000A000000200
ENDCHAR
STARTCHAR uni0915094D0937094D0935
ENCODING -1
SWIDTH 936 0
DWIDTH 26 0
BBX 26 18 1 0
BITMAP
01BE40FFFFFFE0
0396D055556940
0B00A000002800
0A007000002800
0A007002FD2800
0A00A00B542800
0381D01D002800
0BFFFFFC002800
2D555568002800
34000028002800
74000028002800
7400A02C002800
7400A01C003800
3400A00E41B800
2901E006FFA800
0BFFA000142800
0050A000002800
0000A000001400
ENDCHAR
STARTCHAR uni091C094D091E
ENCODING -1
SWIDTH 629 0
DWIDTH 18 0
BBX 19 20 -1 -2
BITMAP
7FFFFFFFFC
1555555B54
0000000700
0000000700
0000000700
00BFFFFF00
02D5555B00
0380000700
0340000700
02D0000700
00BFF90700
00055B0700
0000034700
0340034700
0340034700
03D00B0700
03BFFD0700
0345400700
0340000000
0340000000
ENDCHAR
STARTCHAR uni091C094D091E094D
ENCODING -1
SWIDTH 398 0
DWIDTH 11 0
BBX 15 20 -1 -2
BITMAP
7FFFFFFC
15555554
00000000
00000000
00000000
00BFFFFC
02D55554
03800000
03400000
02D00000
00BFF900
00055B00
00000340
03400340
03400340
03D00B00
03BFFD00
03454000
03400000
03400000
ENDCHAR
STARTCHAR uni091C094D091E094D092F
ENCODING -1
SWIDTH 975 0
DWIDTH 27 0
BBX 29 20 -1 -2
BITMAP
7FFFFFFFFFFFFF80
155555556D55A500
000000000A00A000
000000000700A000
000000000700A000
00BFFFF80A00A000
02D5555E1E00A000
0380000BF800A000
0340000A4000A000
02D0000A0000A000
00BFF90A0000A000
00055B0A0000A000
000003474000E000
03400342D007E000
03400340BFFEA000
03D00B000550A000
03BFFD000000A000
034540000000A000
0340000000000000
0340000000000000
ENDCHAR
STARTCHAR uni0915094D0928
ENCODING -1
SWIDTH 1003 0
DWIDTH 28 0
BBX 30 18 -1 0
BITMAP
7FFFFFFFFFFFFFD0
15555B5555557940
00000A0000002800
00000A0000002800
007F4A7FE0002800
02E50BD578002800
03400B400D003800
07000B000FFFF800
07000A002D557800
07000A0038002800
07000A0028002800
07000A0028002800
03400A0004002800
02D02E0000002800
00BFEA0000002800
00050A0000002800
00000A0000002800
00000A0000002800
ENDCHAR
STARTCHAR uni0916094D0928
ENCODING -1
SWIDTH 958 0
DWIDTH 27 0
BBX 29 19 -1 -1
BITMAP
7FFFFFFFFFFFFF40
155755555555D500
000740000000D000
000740000000D000
000740000000D000
000741FE4000D000
00070796D000D000
00070E00A000D000
001E0D00BFFFD000
0FF80D00E555D000
0B400E00D000D000
07400740D000D000
01C002FFD000D000
00A00015A000D000
003400001000D000
001C00000000D000
000A00000000D000
000340000000D000
0000000000004000
ENDCHAR
STARTCHAR uni0917094D0928
ENCODING -1
SWIDTH 736 0
DWIDTH 21 0
BBX 22 19 -1 -1
BITMAP
7FFFFFFFFFF0
157555556D50
007000001C00
007000001C00
007000001C00
007000001C00
007000001C00
007007FFFC00
00700E555C00
01E01C001C00
1F801C001C00
04000D001C00
000000001C00
000000001C00
000000001C00
000000001C00
000000001C00
000000001C00
000000000400
ENDCHAR
STARTCHAR uni0918094D0928
ENCODING -1
SWIDTH 814 0
DWIDTH 23 0
BBX 24 19 -1 -1
BITMAP
7FFFFFFFFFFF
16D5555555D5
0380000000D0
0340000000D0
0340000000D0
02D0000000D0
00BF800001D0
01E5006FFFD0
028000A555D0
034000D000D0
034000D000D0
028001D000D0
01D007D000D0
00BFFEA000D0
0005500000D0
0000000000D0
0000000000D0
0000000000D0
000000000040
ENDCHAR
STARTCHAR uni091A094D0928
ENCODING -1
SWIDTH 829 0
DWIDTH 23 0
BBX 25 18 -1 0
BITMAP
7FFFFFFFFFFF80
1555555555A500
0000000000A000
0000000000A000
0000000000A000
1FFFF00000A000
0579500000A000
00A0002FFFE000
00D0007555A000
00D000A000A000
00D000A000A000
00A000A000A000
007402F000A000
001FFF7000A000
0001501000A000
0000000000A000
0000000000A000
0000000000A000
ENDCHAR
STARTCHAR uni091B094D0928
ENCODING -1
SWIDTH 977 0
DWIDTH 27 0
BBX 29 18 -1 0
BITMAP
7FFFFFFFFFFFFF80
15E555555555B500
028000000000A000
038000000000A000
03800BE00000A000
038001780000A000
0280001C0000A000
01D0000D2FFFE000
007F400D7555A000
01E5000DA000A000
0280000DA000A000
0380000D7000A000
0380000D2000A000
0280001D0000A000
0280001C0000A000
01D000780000A000
007FFFE00000A000
000555000000A000
ENDCHAR
STARTCHAR uni091C094D0928
ENCODING -1
SWIDTH 831 0
DWIDTH 23 0
BBX 25 18 -1 0
BITMAP
7FFFFFFFFFFF80
1555555555A500
0000000000A000
0000000000A000
0000000000A000
0000000000A000
0000000000A000
03FFFFFFFFE000
015B55B555A000
000380A000A000
000280A000A000
0002807000A000
0002801000A000
0002800000A000
0002800000A000
000B400000A000
0FFD000000A000
0550000000A000
ENDCHAR
STARTCHAR uni091D094D0928
ENCODING -1
SWIDTH 935 0
DWIDTH 26 0
BBX 28 19 -1 -1
BITMAP
7FFFFFFFFFFFFE
15556D55555694
00002800000280
00002800000280
00BFF800000280
02D55000000280
03400000000280
03400000BFFF80
02D00002D55680
00BFFFFF800280
00055D56800280
00000A02800280
03400A00400280
03400A00000280
03901D00000280
03BFF800000280
03450000000280
03400000000240
03400000000000
ENDCHAR
STARTCHAR uni091F094D0928
ENCODING -1
SWIDTH 494 0
DWIDTH 14 0
BBX 16 25 -1 -7
BITMAP
7FFFFFFD
15555B54
00000A00
00000A00
00000A00
00000A00
007FFE00
01E55400
03800000
03400000
034000D0
034000D0
034001D0
02D00680
00BFFF00
00055B00
00000700
00000B00
00BFFF00
02955B00
03400700
03400700
02800700
00400700
00000700
ENDCHAR
STARTCHAR uni0920094D0928
ENCODING -1
SWIDTH 516 0
DWIDTH 14 0
BBX 16 25 -1 -7
BITMAP
7FFFFFFF
15555755
00000700
00000700
00000A00
006FFD00
01E55740
038001C0
034000D0
034000D0
034000D0
034000D0
038001C0
02D00780
00BFFF00
00055700
00000700
00000B00
00BFFF00
02955B00
03400700
03400700
02800700
00400700
00000700
ENDCHAR
STARTCHAR uni0921094D0928
ENCODING -1
SWIDTH 481 0
DWIDTH 13 0
BBX 15 25 -1 -7
BITMAP
7FFFFFF8
15555B54
00000700
00000700
00BFFF00
02D55400
02800000
03400000
02D00000
00BFFD00
00055B40
01000280
03400280
03400280
02D00740
00BFFF00
00055B00
00000700
00BFFF00
02D55B00
03400700
03400700
02800700
01400700
00000700
ENDCHAR
STARTCHAR uni0924094D0928
ENCODING -1
SWIDTH 756 0
DWIDTH 21 0
BBX 23 18 -1 0
BITMAP
7FFFFFFFFFF8
155555555E50
000000000A00
000000000A00
000000000A00
000000000A00
007FFD000A00
02D007FFFE00
03400B555A00
03400A000A00
03400A000A00
03400A000A00
034001000A00
034000000A00
034000000A00
034000000A00
02D000000A00
00BE00000A00
ENDCHAR
STARTCHAR uni0925094D0928
ENCODING -1
SWIDTH 855 0
DWIDTH 24 0
BBX 24 19 1 -1
BITMAP
06F80FFFFFFD
0E5E05555794
1C0700000340
280340000340
180340000340
000700000340
001E00000340
7FF800BFFF40
754002D55740
700003400340
700003400340
340003400340
1D001F800340
07FFF9800340
001540000340
000000000340
000000000340
000000000340
000000000100
ENDCHAR
STARTCHAR uni0926094D0928
ENCODING -1
SWIDTH 955 0
DWIDTH 27 0
BBX 28 24 -1 -6
BITMAP
7FFFFFFFFFFFFF
155557555555D5
000007400001D0
000007400001D0
000007400001D0
007FFF000001D0
01E554000001D0
038000007FFFD0
03400000E555D0
03400001D001D0
03400001C001D0
03400280D001D0
038002805001D0
02D007800001D0
00BFFA800001D0
000542800001D0
000002800001D0
000002800000C0
00000000000000
00000140000000
000001D0000000
00000070000000
00000028000000
00000018000000
ENDCHAR
STARTCHAR uni0927094D0928
ENCODING -1
SWIDTH 814 0
DWIDTH 23 0
BBX 24 19 -1 -1
BITMAP
7FFF02FFFFFF
16D5005555D5
0380000000D0
0340000000D0
0340000000D0
02D0000000D0
00BF800001D0
01E5006FFFD0
028000A555D0
034000D000D0
034000D000D0
028001D000D0
01D007E000D0
00BFFE6000D0
0005500000D0
0000000000D0
0000000000D0
0000000000D0
000000000040
ENDCHAR
STARTCHAR uni0928094D0928
ENCODING -1
SWIDTH 738 0
DWIDTH 21 0
BBX 22 19 -1 -1
BITMAP
7FFFFFFFFFF0
155555555D50
000000001C00
000000001C00
000000001C00
000000001C00
000000001C00
02FFFFFFFC00
07555E555C00
0A001C001C00
0A001C001C00
07000D001C00
010004001C00
000000001C00
000000001C00
000000001C00
000000001C00
000000001C00
000000000400
ENDCHAR
STARTCHAR uni092A094D0928
ENCODING -1
SWIDTH 782 0
DWIDTH 22 0
BBX 24 19 -1 -1
BITMAP
7FFFFFFFFFFD
169555555794
028000000340
028000000340
028000000340
028000000340
028000000340
028000BFFF40
028002955740
02C003400340
00E01F400340
007FFB400340
000141400340
000000000340
000000000340
000000000340
000000000340
000000000340
000000000100
ENDCHAR
STARTCHAR uni092B094D0928
ENCODING -1
SWIDTH 1013 0
DWIDTH 28 0
BBX 30 19 -1 -1
BITMAP
7FFFFFFFFFFFFFE0
1695575555556D40
0280034000002800
0280034000002800
0280036FE0002800
028003E578002800
028003800D002800
028003400FFFF800
028007401D556800
02C0074028002800
01E01F401C002800
007FF7401C002800
0001034000002800
0000034000002800
0000034000002800
0000034000002800
0000034000002800
0000034000002800
0000010000000000
ENDCHAR
STARTCHAR uni092C094D0928
ENCODING -1
SWIDTH 810 0
DWIDTH 23 0
BBX 24 19 -1 -1
BITMAP
7FFFFFFFFFFF
1555555555D5
0000000001C0
0000000001C0
007F800001C0
01E5000001C0
03E0000001C0
0768007FFFC0
070A00E555C0
070281C001C0
0700D1C001C0
070034D001C0
03400D0001C0
02D01D0001C0
00BFF40001C0
0005000001C0
0000000001C0
0000000001C0
000000000040
ENDCHAR
STARTCHAR uni092D094D0928
ENCODING -1
SWIDTH 757 0
DWIDTH 21 0
BBX 23 18 -1 0
BITMAP
7900FFFFFFF8
1B0055555A50
034000000A00
028000000A00
028000000A00
028000000A00
028000000A00
028002FFFE00
02FFFF555A00
02955A000A00
02800A000A00
028006000A00
024001000A00
000000000A00
000000000A00
000000000A00
000000000A00
000000000A00
ENDCHAR
STARTCHAR uni092E094D0928
ENCODING -1
SWIDTH 757 0
DWIDTH 21 0
BBX 23 18 -1 0
BITMAP
7FFFFFFFFFF8
179555555A50
028000000A00
028000000A00
028000000A00
028000000A00
028000000A00
028002FFFE00
02FFFF555A00
02955A000A00
02800A000A00
028006000A00
024001000A00
000000000A00
000000000A00
000000000A00
000000000A00
000000000A00
ENDCHAR
STARTCHAR uni092F094D0928
ENCODING -1
SWIDTH 829 0
DWIDTH 23 0
BBX 25 18 -1 0
BITMAP
7FFFFFFFFFFF80
155A555555A500
0007400000A000
0003400000A000
0003400000A000
0003400000A000
000B000000A000
03FD002FFFE000
0340007555A000
034000A000A000
034000A000A000
028000E000A000
01E007F000A000
007FFE7000A000
0001500000A000
0000000000A000
0000000000A000
0000000000A000
ENDCHAR
STARTCHAR uni0935094D0928
ENCODING -1
SWIDTH 798 0
DWIDTH 22 0
BBX 24 18 -1 0
BITMAP
7FFFFFFFFFFE
1555555556D4
000000000280
000000000280
007F80000280
01E500000280
034000000280
074000BFFF80
070001D55680
070002800280
070002800280
070001C00280
034005000280
02D01D000280
00BFF4000280
000500000280
000000000280
000000000280
ENDCHAR
STARTCHAR uni0936094D0928
ENCODING -1
SWIDTH 845 0
DWIDTH 24 0
BBX 23 19 1 -1
BITMAP
06F807FFFFFC
1D5A01555754
280340000700
340340000700
340340000700
100340000700
000340000700
000741FFFF00
001B03955700
BFF807000700
B54007000700
380003400700
1D0001000700
0B0000000700
038000000700
01D000000700
00B000000700
003800000700
000000000100
ENDCHAR
STARTCHAR uni0938094D0928
ENCODING -1
SWIDTH 831 0
DWIDTH 23 0
BBX 25 19 -1 -1
BITMAP
7FFFFFFFFFFF80
155E555555A500
000A000000A000
000A000000A000
000A000000A000
000A000000A000
000A000000A000
000D001FFFE000
002C007555A000
0FFFFFE000A000
0B5555A000A000
074000B000A000
02C0002000A000
00D0000000A000
0070000000A000
0038000000A000
001D000000A000
000A000000A000
00010000000000
ENDCHAR
STARTCHAR uni0939094D0928
ENCODING -1
SWIDTH 500 0
DWIDTH 14 0
BBX 16 21 -1 -3
BITMAP
7FFFFFFD
15555694
00000280
00000280
007FFF80
01E55500
02800000
02800000
02800000
01D00000
007FFFD0
01E557E0
02801DA0
0340B4A0
0341D0A0
0341C0A0
0340D050
02805000
01E00000
007FFF00
00015500
ENDCHAR
STARTCHAR uni0915094D0930
ENCODING -1
SWIDTH 725 0
DWIDTH 20 0
BBX 22 20 -1 -2
BITMAP
7FFFFFFFFFE0
15555B555540
00000A000000
00000A000000
007F4A7FE000
02E50BD57800
03400B400D00
07000B000E00
07000A000A00
07000A000A00
07000A000A00
07000A000A00
03400A000D00
02D02E006C00
00BFFA0FE400
0006DA050000
00074A000000
001D0A000000
007400000000
004000000000
ENDCHAR
STARTCHAR uni0916094D0930
ENCODING -1
SWIDTH 698 0
DWIDTH 20 0
BBX 21 19 -1 -1
BITMAP
7FFFFFFFFFC0
15575555B540
000740007000
000740007000
000740007000
000741F87000
000707907000
00070A007000
001E0D007000
0FF80D007000
0B400D007000
07400E00B000
01C00741F000
00A002FFB000
0034001D7000
001D00287000
000A00A07000
000342C07000
000007400000
ENDCHAR
STARTCHAR uni0917094D0930
ENCODING -1
SWIDTH 494 0
DWIDTH 14 0
BBX 16 19 -1 -1
BITMAP
7FFFFFFD
15755754
00700340
00700340
00700340
00700340
00700340
00700340
00700340
01E00B40
1F801F40
04007740
0000D340
00028340
000B0340
001D0340
00740340
00E00340
00400100
ENDCHAR
STARTCHAR uni0918094D0930
ENCODING -1
SWIDTH 559 0
DWIDTH 16 0
BBX 17 20 -1 -2
BITMAP
7FFFFFFFC0
16D5557540
0280007000
0340007000
0340007000
0380007000
01D0007000
00BF807000
01D5007000
0280007000
0340007000
0340007000
038000B000
02D001F000
00BFFF7000
0001787000
0001E07000
0007806000
002D000000
0010000000
ENDCHAR
STARTCHAR uni0919094D0930
ENCODING -1
SWIDTH 505 0
DWIDTH 14 0
BBX 16 22 -1 -4
BITMAP
7FFFFFFE
15555A54
00000A00
00000A00
00000A00
00BFFE00
02D55400
03800000
03400074
02D00010
00BFF900
00055B00
00000340
00000280
03400280
03400340
02900B40
00BFFD00
001EE000
00287400
00B02C00
01D00A00
ENDCHAR
STARTCHAR uni091A094D0930
ENCODING -1
SWIDTH 563 0
DWIDTH 16 0
BBX 17 19 -1 -1
BITMAP
7FFFFFFFC0
1555557540
0000003400
0000003400
0000003400
0000003400
1FFFF03400
0579503400
00A0003400
00D0003400
00D0003400
00D0007400
00E0007400
007401F400
002FFF7400
00016D3400
0001A03400
0007803400
0019000000
ENDCHAR
STARTCHAR uni091B094D0930
ENCODING -1
SWIDTH 581 0
DWIDTH 16 0
BBX 18 21 -1 -3
BITMAP
7FFFFFFFE0
15E5557940
0280003400
0380003400
0380003400
0380003400
02800BF400
01D0017800
007F401C00
01E5000D00
0280000D00
0380000D00
0380000D00
0380000D00
0280001C00
01D0007800
007FFFE000
0002ED0000
00074A0000
001D038000
0024009000
ENDCHAR
STARTCHAR uni091C094D0930
ENCODING -1
SWIDTH 547 0
DWIDTH 15 0
BBX 17 19 -1 -1
BITMAP
7FFFFFFF80
155555A500
000000A000
000000A000
000000A000
000000A000
03FFFFE000
015B55A000
000280A000
000280A000
000280A000
000280A000
000280E000
000742E000
0FFD0AA000
05402CA000
0000B0A000
0002D0A000
0006400000
ENDCHAR
STARTCHAR uni091D094D0930
ENCODING -1
SWIDTH 684 0
DWIDTH 19 0
BBX 21 19 -1 -1
BITMAP
7FFFFFFFFF80
15556D55A500
00002800A000
00002800A000
00BFF800A000
02D55000A000
03400000A000
03400000A000
02D00000A000
00BFFFFFE000
00055D55A000
00000A00A000
03400A00E000
03400A02E000
03901D0AA000
03BFF82CA000
034500B0A000
034001D0A000
034007400000
ENDCHAR
STARTCHAR uni091E094D0930
ENCODING -1
SWIDTH 598 0
DWIDTH 17 0
BBX 18 19 -1 -1
BITMAP
7FFFFFFFF0
1555555D50
0000000D00
0000000D00
0000000D00
07FE000D00
0157800D00
0001C00D00
0000D01D00
0000FFFD00
0000D55D00
0000C01D00
0001C03D00
000780ED00
0BFE028D00
01500B0D00
00002C0D00
0000B40D00
0000900000
ENDCHAR
STARTCHAR uni091F094D0930
ENCODING -1
SWIDTH 485 0
DWIDTH 14 0
BBX 15 21 -1 -3
BITMAP
7FFFFFFC
15555A54
00000A00
00000A00
00000A00
006FFE00
01E55400
02800000
03400000
03400000
03400000
034000C0
034000D0
034001C0
038002C0
01D00740
00BFFD00
000BB000
001D2800
00380E00
00E00740
ENDCHAR
STARTCHAR uni0920094D0930
ENCODING -1
SWIDTH 512 0
DWIDTH 14 0
BBX 16 21 -1 -3
BITMAP
7FFFFFFE
15555B54
00000700
00000700
00001A00
006FFD00
01E55B40
038002C0
034001C0
034000D0
034000D0
034000D0
034000D0
034001C0
038001C0
01D00780
00BFFE00
000BB400
001D2C00
00740A00
00900240
ENDCHAR
STARTCHAR uni0921094D0930
ENCODING -1
SWIDTH 475 0
DWIDTH 13 0
BBX 15 22 -1 -4
BITMAP
7FFFFFF8
15555A50
00000A00
00000A00
00000A00
00BFFE00
02D55400
03800000
03400000
02D00000
00BFF900
00055B00
00000340
00000280
03400280
03400340
02900B40
00BFFD00
000EE000
002C3400
00741D00
01D00B00
ENDCHAR
STARTCHAR uni0922094D0930
ENCODING -1
SWIDTH 485 0
DWIDTH 14 0
BBX 15 22 -1 -4
BITMAP
7FFFFFFC
15555B54
00000A00
00000A00
00000A00
006FFE00
01E55400
02800000
03400000
03407E40
0340E6C0
0341C0C0
0341C0D0
034040D0
038001C0
01D00680
00BFFE00
000BB400
001D2800
00380E00
00B00740
00400100
ENDCHAR
STARTCHAR uni0923094D0930
ENCODING -1
SWIDTH 681 0
DWIDTH 19 0
BBX 21 19 -1 -1
BITMAP
7FFFFFFFFF40
16955E55E500
02800D00A000
02800D00A000
02800D00A000
02800D00A000
02800D00A000
02800D00A000
02800D00A000
02800D00E000
02C01D01E000
01E06C07E000
007FE01DA000
00010038A000
000000E0A000
00000280A000
00000B00A000
00002C00A000
000010000000
ENDCHAR
STARTCHAR uni0924094D0930
ENCODING -1
SWIDTH 493 0
DWIDTH 14 0
BBX 16 19 -1 -1
BITMAP
7FFFFFFD
15555754
00000340
00000340
00000340
00000340
007FE740
02D55F40
03400740
07400740
07000340
02000740
00001F40
0000BB40
0002D340
001E0340
00780340
02D00340
01000100
ENDCHAR
STARTCHAR uni0925094D0930
ENCODING -1
SWIDTH 593 0
DWIDTH 17 0
BBX 16 20 1 -2
BITMAP
06F801FF
0E5E01D5
1C0701C0
280341C0
280341C0
000341C0
000701C0
001E01C0
7FF801C0
754001C0
700001C0
700001C0
340002C0
2D001BC0
0BFFF9C0
0015E1C0
000B41C0
002D01C0
01E00040
00400000
ENDCHAR
STARTCHAR uni0926094D0930
ENCODING -1
SWIDTH 489 0
DWIDTH 14 0
BBX 15 19 -1 -1
BITMAP
7FFFFFFC
15555754
00000740
00000740
00000740
007FFF00
01E55400
03800000
03400000
03400000
03400000
03400280
03800280
02D00780
00BFFE80
0005F280
0002D280
000B4280
00090000
ENDCHAR
STARTCHAR uni0927094D0930
ENCODING -1
SWIDTH 560 0
DWIDTH 16 0
BBX 17 20 -1 -2
BITMAP
7FFD0FFFC0
16D4057540
0280007000
0340007000
0340007000
0380007000
01D0007000
00BF807000
01D5007000
0280007000
0340007000
0340007000
038000B000
01D001F000
00BFFFB000
00016D7000
0000B47000
0002D07000
000B000000
0004000000
ENDCHAR
STARTCHAR uni0928094D0930
ENCODING -1
SWIDTH 473 0
DWIDTH 13 0
BBX 15 19 -1 -1
BITMAP
7FFFFFF8
15555A50
00000A00
00000A00
00000A00
00000A00
00000A00
02FFFE00
07555A00
0A000E00
0A002E00
0700BA00
0102DA00
00074A00
001E0A00
00380A00
00A00A00
02C00A00
01000000
ENDCHAR
STARTCHAR uni092A094D0930
ENCODING -1
SWIDTH 503 0
DWIDTH 14 0
BBX 16 19 -1 -1
BITMAP
7FFFFFFD
16955794
02800280
02800280
02800280
02800280
02800280
02800280
02800280
02800380
02C00380
00E01B80
007FFB80
0001A280
00028280
000B0280
002C0280
00B40280
00900000
ENDCHAR
STARTCHAR uni092B094D0930
ENCODING -1
SWIDTH 741 0
DWIDTH 21 0
BBX 22 19 -1 -1
BITMAP
7FFFFFFFFFF0
169557555550
028003400000
028003400000
0280036FE400
028003E56D00
028003800A00
028003400700
028003400700
02C007400700
01E01F400700
007FFB400700
0001E3400A00
000283401D00
000B034BF400
002C03410000
007403400000
01D003400000
004000000000
ENDCHAR
STARTCHAR uni092C094D0930
ENCODING -1
SWIDTH 491 0
DWIDTH 14 0
BBX 15 20 -1 -2
BITMAP
7FFFFFFC
15555754
00000740
00000740
007F8740
01E50740
03E00740
03680740
070A0740
07024740
0700D740
07003B40
03400F40
02D01F40
00BFF740
0005D740
00074740
001D0300
00740000
00100000
ENDCHAR
STARTCHAR uni092D094D0930
ENCODING -1
SWIDTH 491 0
DWIDTH 14 0
BBX 15 19 -1 -1
BITMAP
7900FFFC
1B005754
03400740
02800740
02800740
02800740
02800740
02800740
02FFFF40
02955B40
02801F40
02803B40
0240A740
0002C740
00074740
001D0740
00340740
00A00740
00400100
ENDCHAR
STARTCHAR uni092E094D0930
ENCODING -1
SWIDTH 490 0
DWIDTH 14 0
BBX 15 19 -1 -1
BITMAP
7FFFFFFC
17955754
02800700
02800700
02800700
02800700
02800700
02800700
02FFFF00
02955B00
02801F00
02803B00
0240E700
00028700
000B0700
001D0700
00740700
00E00700
00400100
ENDCHAR
STARTCHAR uni092F094D0930
ENCODING -1
SWIDTH 564 0
DWIDTH 16 0
BBX 17 20 -1 -2
BITMAP
7FFFFFFFC0
155A557540
0003403400
0003403400
0003403400
0003403400
000B003400
03FD003400
0340003400
0340003400
0340003400
0340007400
028000B400
01E402F400
007FFF7400
0001783400
0001E03400
0007803400
002D001000
0010000000
ENDCHAR
STARTCHAR uni0935094D0930
ENCODING -1
SWIDTH 484 0
DWIDTH 14 0
BBX 15 19 -1 -1
BITMAP
7FFFFFFC
15555B54
00000700
00000700
007F8700
01E50700
03800700
07400700
07000700
07000700
07000700
07400700
03400B00
02D01F00
00BFFB00
0006D700
000B0700
002C0600
00600000
ENDCHAR
STARTCHAR uni0936094D0930
ENCODING -1
SWIDTH 558 0
DWIDTH 16 0
BBX 15 19 1 -1
BITMAP
0BF807FC
2D5B0754
34034700
34034700
34034700
38070700
1D0E0700
0BAC0700
02F40700
1B6D0700
B8079B00
D000FF00
0002D700
001F4700
00B80700
02D00700
01000700
00000700
00000100
ENDCHAR
STARTCHAR uni0938094D0930
ENCODING -1
SWIDTH 604 0
DWIDTH 17 0
BBX 19 19 -1 -1
BITMAP
7FFFFFFFF4
155E555E50
000A000D00
000A000D00
000A000D00
000A000D00
000A000D00
000D000D00
002C000D00
0FFFFFFD00
0B5555BD00
074001DD00
02C0074D00
00D00E0D00
0070280D00
0038100D00
001D000D00
000A000D00
0001000400
ENDCHAR
STARTCHAR uni0939094D0930
ENCODING -1
SWIDTH 505 0
DWIDTH 14 0
BBX 16 21 -1 -3
BITMAP
7FFFFFFE
15555794
00000340
00000340
00BFFF40
02D55500
03400000
03400000
03400000
02D00000
00BFFFD0
01D55BD0
03802DD0
034074D0
0701D0D0
070380D0
07410080
03400000
02D00000
00BFFF00
00055500
ENDCHAR
STARTCHAR uni0915093C094D0930
ENCODING -1
SWIDTH 725 0
DWIDTH 20 0
BBX 22 22 -1 -4
BITMAP
7FFFFFFFFFE0
15555B555540
00000A000000
00000A000000
007F4A7FE000
02E50BD57800
03400B400D00
07000B000E00
07000A000A00
07000A000A00
07000A000A00
07000A000A00
03400A000D00
02D02E006C00
00BFFA0FE400
0006DA050000
00074A000000
001D0A000000
007401000000
005000000000
000340000000
000100000000
ENDCHAR
STARTCHAR uni0916093C094D0930
ENCODING -1
SWIDTH 698 0
DWIDTH 20 0
BBX 21 22 -1 -4
BITMAP
7FFFFFFFFFC0
15575555B540
000740007000
000740007000
000740007000
000741F87000
000707907000
00070A007000
001E0D007000
0FF80D007000
0F400D007000
07400E00B000
02C00741F000
00E002FFB000
0074001D7000
002C00287000
000E00B07000
000741D07000
000143801000
000006000000
000000380000
000000100000
ENDCHAR
STARTCHAR uni0917093C094D0930
ENCODING -1
SWIDTH 494 0
DWIDTH 14 0
BBX 16 21 -1 -3
BITMAP
7FFFFFFD
15755754
00700340
00700340
00700340
00700340
00700340
00700340
00700340
01E00B40
1F801F40
04007740
0001D340
00038340
000A0340
00280340
00B00340
00900200
00000000
00034000
00010000
ENDCHAR
STARTCHAR uni091C093C094D0930
ENCODING -1
SWIDTH 547 0
DWIDTH 15 0
BBX 17 20 -1 -2
BITMAP
7FFFFFFF80
155555A500
000000A000
000000A000
000000A000
000000A000
03FFFFE000
015B55A000
000380A000
000280A000
000280A000
000280A000
000280A000
000281E000
000B47E000
0FFD1DA000
055074A000
0001D0A000
1D02400000
0400000000
ENDCHAR
STARTCHAR uni0921093C094D0930
ENCODING -1
SWIDTH 475 0
DWIDTH 13 0
BBX 15 22 -1 -4
BITMAP
7FFFFFF8
15555A50
00000A00
00000A00
00000A00
00BFFE00
02D55400
03800000
03400000
02D00000
00BFF900
00055B00
00000340
00000280
03400280
03400340
02900B40
00BFFD00
000EE000
282C7400
00741D00
01D00B00
ENDCHAR
STARTCHAR uni0922093C094D0930
ENCODING -1
SWIDTH 485 0
DWIDTH 14 0
BBX 15 22 -1 -4
BITMAP
7FFFFFFC
15555B54
00000A00
00000A00
00000A00
006FFE00
01E55400
02800000
03400000
03407E40
0340E6C0
0341C0C0
0341C0D0
034040D0
028001C0
01D00680
006FFE00
380B7400
001D2C00
00380E00
00B00740
00400000
ENDCHAR
STARTCHAR uni0928093C094D0930
ENCODING -1
SWIDTH 473 0
DWIDTH 13 0
BBX 15 22 -1 -4
BITMAP
7FFFFFF8
15555A50
00000A00
00000A00
00000A00
00000A00
00000A00
02FFFE00
07555A00
0A000E00
0A002E00
0A00BA00
0101DA00
00074A00
000E0A00
002C0A00
00B00A00
01D00A00
01400500
00000000
001D0000
00040000
ENDCHAR
STARTCHAR uni092B093C094D0930
ENCODING -1
SWIDTH 741 0
DWIDTH 21 0
BBX 22 21 -1 -3
BITMAP
7FFFFFFFFFF0
169557555550
028003400000
028003400000
0280036FE400
028003E56D00
028003800A00
028003400700
028003400700
02C007400700
01E01F400700
007FFB400700
0001E3400A00
000283401D00
000B034BF400
002C03410000
007403400000
01D003400000
004000000000
000740000000
000100000000
ENDCHAR
STARTCHAR uni092F093C094D0930
ENCODING -1
SWIDTH 564 0
DWIDTH 16 0
BBX 17 21 -1 -3
BITMAP
7FFFFFFFC0
155A557540
0003403400
0003403400
0003403400
0003403400
000B003400
03FD003400
0340003400
0340003400
0340003400
0340007400
028000B400
01E402F400
007FFF7400
0001783400
0001D03400
000B403400
0028000000
0000700000
0000100000
ENDCHAR
STARTCHAR uni0915094D0930094D
ENCODING -1
SWIDTH 518 0
DWIDTH 15 0
BBX 19 20 -1 -2
BITMAP
7FFFFFFFFC
15555B5554
00000A0000
00000A0000
007F4A7FE0
02E50BD578
03400B4008
07000B0000
07000A0000
07000A0000
07000A0000
07000A0000
03400A0000
02D02E0000
00BFFA0000
0006DA0000
00074A0000
001D0A0000
0074000000
0040000000
ENDCHAR
STARTCHAR uni0916094D0930094D
ENCODING -1
SWIDTH 469 0
DWIDTH 13 0
BBX 18 19 -1 -1
BITMAP
7FFFFFFFC0
1557555540
0007400000
0007400000
0007400000
000741F800
0007079000
00070A0000
001E0D0000
0FF80D0000
0B400D0000
07400E0090
01C00742C0
00A002FF40
0034001D00
001D002800
000A00A000
000342C000
0000074000
ENDCHAR
STARTCHAR uni0917094D0930094D
ENCODING -1
SWIDTH 264 0
DWIDTH 7 0
BBX 12 19 -1 -1
BITMAP
7FFF80
157500
007000
007000
007000
007000
007000
007000
007001
01E00A
1F801D
040074
0000E0
000280
000B00
001D00
007400
00E000
004000
ENDCHAR
STARTCHAR uni0918094D0930094D
ENCODING -1
SWIDTH 319 0
DWIDTH 9 0
BBX 14 20 -1 -2
BITMAP
7FFFFFC0
16D55540
02800000
03400000
03400000
03800000
01D00000
00BF8000
01D50000
02800000
03400000
03400000
03800050
02D006D0
00BFFF40
00017D00
0001E000
00078000
002D0000
00100000
ENDCHAR
STARTCHAR uni091A094D0930094D
ENCODING -1
SWIDTH 331 0
DWIDTH 9 0
BBX 14 19 -1 -1
BITMAP
7FFFFF80
15555500
00000000
00000000
00000000
00000000
1FFFF000
05795000
00A00000
00D00000
00D00000
00D00000
00E00050
007401D0
002FFF40
00016D00
0001A000
00078000
00190000
ENDCHAR
STARTCHAR uni091C094D0930094D
ENCODING -1
SWIDTH 312 0
DWIDTH 9 0
BBX 14 19 -1 -1
BITMAP
7FFFFF80
15555500
00000000
00000000
00000000
00000000
03FFFF80
015B5500
00038000
00028000
00028000
00028000
00028050
000281D0
000B4740
0FFD1D00
05507400
0001D000
00024000
ENDCHAR
STARTCHAR uni091D094D0930094D
ENCODING -1
SWIDTH 441 0
DWIDTH 12 0
BBX 17 19 -1 -1
BITMAP
7FFFFFFF40
15556D5500
0000280000
0000280000
00BFF80000
02D5500000
0340000000
0340000000
02D0000000
00BFFFFF80
00055D5680
00000A0180
03400A0180
03400A0340
03901D0A00
03BFF82800
034500B000
034001D000
0340074000
ENDCHAR
STARTCHAR uni091E094D0930094D
ENCODING -1
SWIDTH 374 0
DWIDTH 10 0
BBX 15 19 -1 -1
BITMAP
7FFFFFF0
15555550
00000000
00000000
00000000
07FE0000
01578000
0001C000
0000D000
0000FFFC
0000D55C
0000C01C
0001C028
000780B4
0BFE01D0
01500740
00001E00
00007800
0000A000
ENDCHAR
STARTCHAR uni091F094D0930094D
ENCODING -1
SWIDTH 485 0
DWIDTH 14 0
BBX 15 26 -1 -8
BITMAP
7FFFFFFC
15555A54
00000A00
00000A00
00000A00
006FFE00
01E55400
02800000
03400000
03400000
03400000
034000C0
034000D0
034001C0
038002C0
01D00740
00BFFE00
000BB000
001D2800
00740E00
00E00740
00018000
0000A000
00007400
00002C00
00000900
ENDCHAR
STARTCHAR uni0920094D0930094D
ENCODING -1
SWIDTH 512 0
DWIDTH 14 0
BBX 16 26 -1 -8
BITMAP
7FFFFFFE
15555B54
00000700
00000700
00001A00
006FFD00
01E55B40
038002C0
034001C0
034000D0
034000D0
034000D0
034000D0
034001C0
038001C0
01D00740
00BFFE00
000BB000
001D2800
00380E00
00B00740
00418100
0000A000
00003400
00001C00
00000900
ENDCHAR
STARTCHAR uni0921094D0930094D
ENCODING -1
SWIDTH 475 0
DWIDTH 13 0
BBX 15 28 -1 -10
BITMAP
7FFFFFF8
15555A50
00000A00
00000A00
00000A00
00BFFE00
02D55400
03800000
03400000
02D00000
00BFF900
00055B00
00000340
00000280
03400280
03400340
02900B40
00BFFE00
000EE000
002C7400
00741D00
01D00B00
00018000
0001D000
0000B000
00003800
00001C00
00000400
ENDCHAR
STARTCHAR uni0922094D0930094D
ENCODING -1
SWIDTH 485 0
DWIDTH 14 0
BBX 15 26 -1 -8
BITMAP
7FFFFFFC
15555B54
00000A00
00000A00
00000A00
006FFE00
01E55400
02800000
03400000
03407E40
0340E6C0
0341C0C0
0341C0D0
034040D0
028001C0
01D00680
007FFE00
000BB400
001D2800
00380E00
00B00740
00008000
0000A000
00003400
00001C00
00000900
ENDCHAR
STARTCHAR uni0923094D0930094D
ENCODING -1
SWIDTH 457 0
DWIDTH 13 0
BBX 17 19 -1 -1
BITMAP
7FFFFFF000
16955E5000
02800D0000
02800D0000
02800D0000
02800D0000
02800D0000
02800D0000
02800D0000
02800D0040
02C01D02C0
01E06C0740
007FE01D00
0001007400
000000E000
0000028000
00000B0000
00002C0000
0000100000
ENDCHAR
STARTCHAR uni0924094D0930094D
ENCODING -1
SWIDTH 268 0
DWIDTH 8 0
BBX 13 19 -1 -1
BITMAP
7FFFFF80
15555500
00000000
00000000
00000000
00000000
007FE400
02D55D00
03400600
07400700
07000300
02000700
00001E00
0000B400
0002D000
001E0000
00780000
02D00000
01000000
ENDCHAR
STARTCHAR uni0925094D0930094D
ENCODING -1
SWIDTH 358 0
DWIDTH 10 0
BBX 12 20 1 -2
BITMAP
06F800
0E5E00
1C0700
280340
280340
000340
000700
001E00
7FF800
754000
700000
700000
340002
2D001B
0BFFF8
0015E0
000B40
002D00
01E000
004000
ENDCHAR
STARTCHAR uni0926094D0930094D
ENCODING -1
SWIDTH 489 0
DWIDTH 14 0
BBX 15 24 -1 -6
BITMAP
7FFFFFFC
15555754
00000740
00000740
00000740
007FFF00
01E55400
03800000
03400000
03400000
03400000
03400280
03800280
02D00780
00BFFE80
0005F280
0002D280
00074280
000D0000
00003400
00002C00
00000E00
00000740
00000280
ENDCHAR
STARTCHAR uni0927094D0930094D
ENCODING -1
SWIDTH 322 0
DWIDTH 9 0
BBX 14 20 -1 -2
BITMAP
7FFD0F80
16D40500
03800000
03400000
03400000
03800000
01D00000
00BF8000
01D50000
02800000
03400000
03400000
03800050
02D002D0
00BFFF40
00016D00
0000B400
0002D000
000B0000
00040000
ENDCHAR
STARTCHAR uni0928094D0930094D
ENCODING -1
SWIDTH 247 0
DWIDTH 7 0
BBX 12 19 -1 -1
BITMAP
7FFFFE
155554
000000
000000
000000
000000
000000
02FFFE
07555A
0A0009
0A001C
070074
0101D0
000380
000E00
002800
00B000
02C000
010000
ENDCHAR
STARTCHAR uni092A094D0930094D
ENCODING -1
SWIDTH 270 0
DWIDTH 8 0
BBX 12 19 -1 -1
BITMAP
7FFFF4
169550
028000
028000
028000
028000
028000
028000
028000
028000
02C002
00E01E
007FF8
0001A0
0002C0
000B00
002C00
00B400
009000
ENDCHAR
STARTCHAR uni092B094D0930094D
ENCODING -1
SWIDTH 523 0
DWIDTH 15 0
BBX 19 19 -1 -1
BITMAP
BFFFFFFFFC
17555B5554
0340070000
0340070000
0340077FE0
034007D56C
0340074008
0340070000
0340070000
03800B0000
01D02F0000
00BFFB0000
0005D70000
0007470000
000E070000
0038070000
00B0070000
02C0060000
0100000000
ENDCHAR
STARTCHAR uni092C094D0930094D
ENCODING -1
SWIDTH 267 0
DWIDTH 7 0
BBX 12 20 -1 -2
BITMAP
7FFFFE
155555
000000
000000
007F80
01E500
03E000
036800
070A00
070240
0700D0
070037
03400E
02D01D
00BFF8
0005E0
000780
001E00
007800
001000
ENDCHAR
STARTCHAR uni092D094D0930094D
ENCODING -1
SWIDTH 257 0
DWIDTH 7 0
BBX 12 19 -1 -1
BITMAP
7900FE
1B0054
034000
028000
028000
028000
028000
028000
02FFFE
02955A
02801D
028074
0240E0
000280
000B00
001D00
007400
00E000
004000
ENDCHAR
STARTCHAR uni092E094D0930094D
ENCODING -1
SWIDTH 261 0
DWIDTH 7 0
BBX 12 19 -1 -1
BITMAP
7FFFFE
179554
028000
028000
028000
028000
028000
028000
02FFFE
02955A
02801D
028074
0240E0
000280
000B00
001D00
007400
00E000
004000
ENDCHAR
STARTCHAR uni092F094D0930094D
ENCODING -1
SWIDTH 323 0
DWIDTH 9 0
BBX 14 20 -1 -2
BITMAP
7FFFFF00
155A5500
00034000
00034000
00034000
00034000
000B0000
03FD0000
03400000
03400000
03400000
03400000
02800050
01E406D0
007FFF00
00017800
0001E000
00078000
002D0000
00100000
ENDCHAR
STARTCHAR uni0935094D0930094D
ENCODING -1
SWIDTH 255 0
DWIDTH 7 0
BBX 12 19 -1 -1
BITMAP
7FFFF0
155550
000000
000000
007F80
01E500
038000
074000
070000
070000
070000
074000
034005
02D02D
00BFF4
0006D0
000B40
002C00
006000
ENDCHAR
STARTCHAR uni0938094D0930094D
ENCODING -1
SWIDTH 347 0
DWIDTH 10 0
BBX 14 19 -1 -1
BITMAP
7FFFFFC0
155E5540
000A0000
000A0000
000A0000
000A0000
000A0000
000D0000
002C0000
0FFFFFF0
0B5555A0
074002C0
02C00740
00D01D00
00707800
00385000
001D0000
000A0000
00010000
ENDCHAR
STARTCHAR uni0915093C094D0930094D
ENCODING -1
SWIDTH 518 0
DWIDTH 15 0
BBX 19 22 -1 -4
BITMAP
7FFFFFFFFC
15555B5554
00000A0000
00000A0000
007F4A7FE0
02E50BD578
03400B4008
07000B0000
07000A0000
07000A0000
07000A0000
07000A0000
03400A0000
02D02E0000
00BFFA0000
0005DA0000
00074A0000
001D0A0000
0038050000
00A0000000
0003400000
0001000000
ENDCHAR
STARTCHAR uni0916093C094D0930094D
ENCODING -1
SWIDTH 466 0
DWIDTH 13 0
BBX 18 20 -1 -2
BITMAP
7FFFFFFFC0
1557555540
0007400000
0007400000
0007400000
000741F800
0007079000
00070A0000
001E0D0000
0FF80D0000
0B400D0000
03400E0090
01D00742C0
00B002FF40
0038001D00
001D002800
000B00A000
0002428000
0000060000
0000002800
ENDCHAR
STARTCHAR uni0917093C094D0930094D
ENCODING -1
SWIDTH 264 0
DWIDTH 7 0
BBX 12 21 -1 -3
BITMAP
7FFF80
157500
007000
007000
007000
007000
007000
007000
007001
01E00A
1F801C
040074
0001D0
000380
000A00
002C00
00B000
009000
000000
000380
000100
ENDCHAR
STARTCHAR uni091C093C094D0930094D
ENCODING -1
SWIDTH 320 0
DWIDTH 9 0
BBX 14 21 -1 -3
BITMAP
7FFFFF80
15555500
00000000
00000000
00000000
00000000
03FFFF80
015B5500
00038000
00028000
00028000
00028000
00028050
000281D0
000B4740
0FFD1D00
05507400
0001D000
00034000
1D000000
04000000
ENDCHAR
STARTCHAR uni0928093C094D0930094D
ENCODING -1
SWIDTH 247 0
DWIDTH 7 0
BBX 12 20 -1 -2
BITMAP
7FFFFE
155554
000000
000000
000000
000000
000000
02FFFE
07555A
0A0009
0A001C
070074
0101D0
000780
000E00
002800
00B000
02C000
000000
000E00
ENDCHAR
STARTCHAR uni092B093C094D0930094D
ENCODING -1
SWIDTH 523 0
DWIDTH 15 0
BBX 19 20 -1 -2
BITMAP
BFFFFFFFFC
17555B5554
0340070000
0340070000
0340077FE0
034007D56C
0340074008
0340070000
0340070000
03800B0000
01D02F0000
00BFFB0000
0005D70000
0007470000
000E070000
0038070000
00B0070000
02C0060000
0100000000
000E000000
ENDCHAR
STARTCHAR uni092F093C094D0930094D
ENCODING -1
SWIDTH 323 0
DWIDTH 9 0
BBX 14 21 -1 -3
BITMAP
7FFFFF00
155A5500
00034000
00034000
00034000
00034000
000B0000
03FD0000
03400000
03400000
03400000
03400000
02800050
01E406C0
007FFE00
00017800
0001D000
000B4000
00280000
00007400
00001000
ENDCHAR
STARTCHAR uni0915094D0915
ENCODING -1
SWIDTH 1255 0
DWIDTH 35 0
BBX 37 18 -1 0
BITMAP
7FFFFFFFFFFFFFFFFF80
15555B55555569555500
00000A00000028000000
00000A00000028000000
007F4A7FE2FD29FF8000
02E50BD57F542E55E000
03400B401D002C007400
07000B001C0028003400
07000A001C0028003400
07000A001C0028003400
07000A001C0028003400
07000A001C0028003400
03400A001D0038007400
02D02E000B41B801E000
00BFEA0002FFA87F8000
00050A00001428140000
00000A00000028000000
00000A00000028000000
ENDCHAR
STARTCHAR uni0915094D0916
ENCODING -1
SWIDTH 1256 0
DWIDTH 35 0
BBX 37 19 -1 -1
BITMAP
7FFFFFFFFFFFFFFFFF80
15555B55555B5555A500
00000A00000B0000A000
00000A00000B0000A000
007F4A7F900B0000A000
02E50BD5B00B02F4A000
03400B40280A0B50A000
07000B00180A1D00A000
07000A001C1D1C00A000
07000A001FF81C00A000
07000A001E401C00A000
07000A0007000D00E000
03400A0002800A46E000
02D02E0000D002FDA000
00BFEA0000700000A000
00050A0000280000A000
00000A00000D0000A000
00000A0000070000A000
00000000000100000000
ENDCHAR
STARTCHAR uni0915094D091A
ENCODING -1
SWIDTH 1086 0
DWIDTH 30 0
BBX 32 18 -1 0
BITMAP
7FFFFFFFFFFFFFFE
15555B55555556D4
00000A0000000280
00000A0000000280
007F4A7F40000280
02E50BD5D0000280
03400B407FFF8280
07000B0016D50280
07000A0003400280
07000A0007000280
07000A0007000280
07000A0007000280
03400A0007400280
02D02E0002D00B80
00BFEA0000BFFA80
00050A0000054280
00000A0000000280
00000A0000000280
ENDCHAR
STARTCHAR uni0915094D091C
ENCODING -1
SWIDTH 1071 0
DWIDTH 30 0
BBX 32 19 -1 -1
BITMAP
7FFFFFFFFFFFFFFD
15555B5555555794
00000A0000000340
00000A0000000340
007F4A0000000340
02D00A7F8BFFFF40
03400BD501795740
07000B40001D0340
07000B00000D0340
07000A00000D0340
07000A00000D0340
07000A00000D0340
03400A00000D0340
02D02E00001D0340
00BFEA00006C0340
00050A007FF40340
00000A0015000340
00000A0000000340
0000000000000100
ENDCHAR
STARTCHAR uni0915094D091F
ENCODING -1
SWIDTH 984 0
DWIDTH 28 0
BBX 29 18 -1 0
BITMAP
7FFFFFFFFFFFFFC0
15555B555555E540
00000A000000A000
00000A000000A000
007F4A7FE000A000
02E50BD57AFFE000
03400B401E554000
07000B0038000000
07000A0034000000
07000A0034000000
07000A0034000000
07000A0034000C00
03400A0034000C00
02D02E0034001C00
00BFEA0038002C00
00050A001D007400
00000A000BFFE000
00000A0000550000
ENDCHAR
STARTCHAR uni0915094D0923
ENCODING -1
SWIDTH 1183 0
DWIDTH 33 0
BBX 35 18 -1 0
BITMAP
7FFFFFFFFFFFFFFFF8
15555B556955E55A50
00000A002800D00A00
00000A002800D00A00
007F4A002800D00A00
02E50A7FF800D00A00
03400BD56800D00A00
07000B002800D00A00
07000B002800D00A00
07000A002800D00A00
07000A001C00D00A00
07000A000E06C00A00
03400A0007FE400A00
02D02E000010000A00
00BFEA000000000A00
00050A000000000A00
00000A000000000A00
00000A000000000A00
ENDCHAR
STARTCHAR uni0915094D0924
ENCODING -1
SWIDTH 761 0
DWIDTH 21 0
BBX 23 19 -1 -1
BITMAP
7FFFFFFFFFF8
155556D55550
000001C00000
000001C00000
000001C00000
000001C00000
07FFFFDFF800
017956F55E00
00A001D00340
00E001C00380
00D001C00280
00D001C00280
00E001C00280
00A001C00340
007801C01B00
001FD1C2F900
000041C04000
000001C00000
000000400000
ENDCHAR
STARTCHAR uni0915094D0925
ENCODING -1
SWIDTH 1118 0
DWIDTH 31 0
BBX 33 18 -1 0
BITMAP
7FFFFFFF01FD007F80
15555B55075740A500
00000A000A0280A000
00000A000D01C0A000
007F4A000501C0A000
02E50A00000280A000
03400A00000740A000
07000A7FFFFE00A000
07000BD5695000A000
07000B00280000A000
07000B00280000A000
07000A002C0000A000
03400A001D0000E000
02D02E000B4007E000
00BFEA0002FFFEA000
00050A00001550A000
00000A00000000A000
00000A00000000A000
ENDCHAR
STARTCHAR uni0915094D0926
ENCODING -1
SWIDTH 1009 0
DWIDTH 28 0
BBX 30 18 -1 0
BITMAP
7FFFFFFFFFFFFFE0
15555B5555556940
00000A0000002800
00000A0000002800
007F4A7FE0002800
02E50BD57AFFF800
03400B001F555000
07000B001D000000
07000A001C000000
07000A0028000000
07000A0028000000
07000A002C000C00
03400A001C001C00
02D02E000E406C00
00BFEA0006FFEC00
00050A0000150C00
00000A0000000C00
0000060000000C00
ENDCHAR
STARTCHAR uni0915094D092A
ENCODING -1
SWIDTH 1007 0
DWIDTH 28 0
BBX 30 18 -1 0
BITMAP
7FFFFFFFFFFFFFE0
15555B5569556940
00000A0028002800
00000A0028002800
007F4A0028002800
02E50A7FF8002800
03400BD568002800
07000B0028002800
07000B0028002800
07000A0028002800
07000A001C003800
07000A000E41B800
03400A0006FFA800
02D02E0000142800
00BFEA0000002800
00050A0000002800
00000A0000002800
00000A0000002800
ENDCHAR
STARTCHAR uni0915094D092B
ENCODING -1
SWIDTH 1242 0
DWIDTH 35 0
BBX 36 19 -1 -1
BITMAP
7FFFFFFFFFFFFFFFFF
15555B556955755555
00000A002800340000
00000A002800340000
007F4A00280036FE40
02E50A7FF8003E56D0
03400BD568003800A0
07000B002800340070
07000B002800340070
07000A001C00740070
07000A000E41F40070
07000A0006FF740070
03400A0000143400B0
02D02E0000003401D0
00BFEA00000034BF40
00050A000000341400
00000A000000340000
00000A000000340000
000000000000100000
ENDCHAR
STARTCHAR uni0915094D092E
ENCODING -1
SWIDTH 994 0
DWIDTH 28 0
BBX 30 19 -1 -1
BITMAP
7FFFFFFFFFFFFFD0
15555B5569557540
00000A0028003400
00000A0028003400
007F4A0028003400
02E50A7FF8003400
03400BD568003400
07000B0028003400
07000B002FFFF400
07000A0029557400
07000A0028003400
07000A0028003400
03400A0028003400
02D02E0000003400
00BFEA0000003400
00050A0000003400
00000A0000003400
00000A0000003400
0000000000001000
ENDCHAR
STARTCHAR uni0915094D092F
ENCODING -1
SWIDTH 1076 0
DWIDTH 30 0
BBX 32 18 -1 0
BITMAP
7FFFFFFFFFFFFFFD
15555B5555B55794
00000A0000280280
00000A0000280280
007F4A0000280280
02E50A0000740280
03400A7FFFE00280
07000BD568000280
07000B4028000280
07000B0028000280
07000A0028000280
07000A0028000380
03400A001C000780
02D02E000B401F80
00BFEA0002FFF680
00050A0000150280
00000A0000000280
00000A0000000280
ENDCHAR
STARTCHAR uni0915094D0932
ENCODING -1
SWIDTH 1178 0
DWIDTH 33 0
BBX 35 19 -1 -1
BITMAP
7FFFFFFFFFFFFFFFF4
15555B555555555E50
00000A000000000D00
00000A000000000D00
007F4A7FE000000D00
02E50BD57EF92FDD00
03400B401E5BB57D00
07000B002802D01D00
07000A003402C00D00
07000A003401C00D00
07000A003401C00D00
07000A003401C00D00
03400A003400000D00
02D02E003400000D00
00BFEA002800000D00
00050A001D00000D00
00000A0007F8000D00
00000A000010000D00
000000000000000400
ENDCHAR
STARTCHAR uni0915094D0935
ENCODING -1
SWIDTH 1013 0
DWIDTH 28 0
BBX 30 18 -1 0
BITMAP
7FFFFFFFFFFFFFE0
15555B5555556D40
00000A0000002800
00000A0000002800
007F4A7FE2FD2800
02E50BD57F542800
03400B401D002800
07000B001C002800
07000A001C002800
07000A001C002800
07000A001C002800
07000A001C002800
03400A001D002800
02D02E000B40B800
00BFEA0002FFA800
00050A0000142800
00000A0000002800
00000A0000002800
ENDCHAR
STARTCHAR uni0915094D0936
ENCODING -1
SWIDTH 1194 0
DWIDTH 33 0
BBX 35 19 -1 -1
BITMAP
7FFFFFFFC06F9007F8
15555B5540E5B00750
00000A0002C0340700
00000A000280280700
007F4A000280280700
02E50A7FE000280700
03400BD57800280700
07000B001C00340700
07000B000D00B00700
07000A000FFFD00700
07000A000B54000700
07000A000380000700
03400A0001D0000700
02D02E0000B0000700
00BFEA000038000700
00050A00001D000700
00000A00000B000700
00000A000002800700
000000000000400000
ENDCHAR
STARTCHAR uni0915094D0938
ENCODING -1
SWIDTH 1143 0
DWIDTH 32 0
BBX 34 19 -1 -1
BITMAP
7FFFFFFFFFFFFFFFD0
15555B55555E557940
00000A00000D003400
00000A00000D003400
007F4A7FD00D003400
02E50BD5B40D003400
03400B40280D003400
07000B001C0D003400
07000A000C2C003400
07000A000FFFFFF400
07000A000E55557400
07000A000740003400
03400A000280003400
02D02E0000D0003400
00BFEA0000B0003400
00050A000038003400
00000A00001C003400
00000A00000A003400
000000000001001000
ENDCHAR
STARTCHAR uni0916094D0916
ENCODING -1
SWIDTH 1223 0
DWIDTH 34 0
BBX 36 19 -1 -1
BITMAP
7FFFFFFFFFFFFFFFFE
15575555556D555694
00074000001C000280
00074000001C000280
00074000001C000280
000741F8001C0BD280
00070790001C2D4280
00070A000028340280
001E0D000074700280
0FF80D007FE0700280
0B400D003900700280
07400E002D00340380
01C00741AB002D0B80
00A002FF83800BFA80
0034001401D0004280
001C000000B0000280
000A00000038000280
00034000001D000280
000000000004000000
ENDCHAR
STARTCHAR uni0916094D0924
ENCODING -1
SWIDTH 984 0
DWIDTH 28 0
BBX 29 19 -1 -1
BITMAP
7FFFFFFFFFFFFFC0
155755555555B540
0007400000007000
0007400000007000
0007400000007000
000741F800007000
000707900BFFF000
00070A002D55B000
001E0D0074007000
0FF80D0070007000
0B400D0070007000
07400E0070007000
01C00740B0007000
00A002FFF0007000
00340015B0007000
001D000070007000
000A000039007000
000340000BD07000
0000000000401000
ENDCHAR
STARTCHAR uni0916094D092E
ENCODING -1
SWIDTH 965 0
DWIDTH 27 0
BBX 29 19 -1 -1
BITMAP
7FFFFFFFFFFFFF40
15575555B555E500
000740007000D000
000740007000D000
000740007000D000
000741F87000D000
000707907000D000
00070E007000D000
001E0D007FFFD000
0FF80D007555D000
0B400D007000D000
07400E00A000D000
01C00741D000D000
00A002FF8000D000
003400100000D000
001C00000000D000
000A00000000D000
000340000000D000
0000000000004000
ENDCHAR
STARTCHAR uni0916094D092F
ENCODING -1
SWIDTH 1047 0
DWIDTH 29 0
BBX 31 18 -1 0
BITMAP
7FFFFFFFFFFFFFF8
1557555556D55B50
0007400000A00A00
0007400000700A00
0007400000700A00
000741F800A00A00
0007079001D00A00
00070A00BF800A00
001E0D00B4000A00
0FF80D00A0000A00
0B400D00A0000A00
07400E00B0000A00
01C00741F4000E00
00A002FF6D007E00
003400100BFFEA00
001C000000150A00
000A000000000A00
0003400000000A00
ENDCHAR
STARTCHAR uni0916094D0935
ENCODING -1
SWIDTH 975 0
DWIDTH 27 0
BBX 29 18 -1 0
BITMAP
7FFFFFFFFFFFFF80
155755555555A500
000740000000A000
000740000000A000
000740000BF4A000
000741F82D50A000
000707907400A000
00070E007000A000
001E0D007000A000
0FF80D007000A000
0B400D007000A000
07400D00B000A000
01C00B41F000E000
00A002FF6906E000
003400100BFEA000
001C00000050A000
000A00000000A000
000340000000A000
ENDCHAR
STARTCHAR uni0916094D0936
ENCODING -1
SWIDTH 1123 0
DWIDTH 31 0
BBX 33 19 -1 -1
BITMAP
7FFFFFFD06F9007F80
155755540E5B007540
000740002C03407000
000740002802807000
000740002802807000
000741F81402807000
000707900002807000
00070A000003407000
001E0D00000B007000
0FF80D01FFFD007000
0B400D01D540007000
03400E00B000007000
01C00741F800007000
00A002FF5D00007000
003400100B00007000
001C00000380007000
000A000001D0007000
0003400000B0007000
000000000010000000
ENDCHAR
STARTCHAR uni0917094D0917
ENCODING -1
SWIDTH 744 0
DWIDTH 21 0
BBX 23 19 -1 -1
BITMAP
7FFFFFFFFFF4
157555D55D50
007001C00D00
007001C00D00
007001C00D00
007001C00D00
007001C00D00
007001C00D00
007001C00D00
01E007800D00
1F807E000D00
040010000D00
000000000D00
000000000D00
000000000D00
000000000D00
000000000D00
000000000D00
000000000400
ENDCHAR
STARTCHAR uni0917094D0918
ENCODING -1
SWIDTH 823 0
DWIDTH 23 0
BBX 25 18 -1 0
BITMAP
7FFFFFFFFFFF40
1575579555E500
0070070000E000
00700A0000E000
00700A0000E000
0070070000E000
0070038000E000
007001FF00E000
0070039500E000
01E0070000E000
1F800A0000E000
04000A0000E000
0000070001E000
0000038007E000
000001FFFDE000
0000000550E000
0000000000E000
0000000000D000
ENDCHAR
STARTCHAR uni0917094D091C
ENCODING -1
SWIDTH 801 0
DWIDTH 22 0
BBX 24 18 -1 0
BITMAP
7FFFFFFFFFFE
1575555556D4
0070000001C0
0070000001C0
0070000001C0
0070000002C0
00700FFFFFC0
0070016D56C0
0070000A01C0
01E0000B01C0
1F80000701C0
0400000701C0
0000000B01C0
0000000A01C0
0000001D01C0
00003FF401C0
0000150001C0
0000000001C0
ENDCHAR
STARTCHAR uni0917094D0923
ENCODING -1
SWIDTH 945 0
DWIDTH 26 0
BBX 28 18 -1 0
BITMAP
7FFFFFFFFFFFFE
15755B556956D5
007007002801C0
007007002801C0
007007002801C0
007007002801C0
007007002801C0
007007002801C0
007007002801C0
01E007002801C0
1F8007402801C0
04000290B401C0
000000BFD001C0
000000040001C0
000000000001C0
000000000001C0
000000000001C0
000000000001C0
ENDCHAR
STARTCHAR uni0917094D0926
ENCODING -1
SWIDTH 748 0
DWIDTH 21 0
BBX 23 18 -1 0
BITMAP
7FFFFFFFFFF4
157555555E50
007000000D00
007000000D00
007000000D00
007001BFFD00
007007955400
00700B000000
00700A000000
01E00E000000
1F800E000000
04000A000600
00000A000B00
000007801F00
000001FFFB00
000000054700
000000000700
000000000600
ENDCHAR
STARTCHAR uni0917094D0927
ENCODING -1
SWIDTH 823 0
DWIDTH 23 0
BBX 25 18 -1 0
BITMAP
7FFFFFFC2FFF40
1575579405E500
0070070000E000
00700A0000E000
00700A0000E000
0070070000E000
0070038000E000
007001FF00E000
0070039500E000
01E0070000E000
1F800A0000E000
04000A0000E000
00000A0000E000
0000070001E000
0000039007E000
000001FFFDE000
0000000550E000
0000000000D000
ENDCHAR
STARTCHAR uni0917094D092C
ENCODING -1
SWIDTH 755 0
DWIDTH 21 0
BBX 23 18 -1 0
BITMAP
7FFFFFFFFFF8
157555555A50
007000000A00
007000000A00
007001BF0A00
007003950A00
00700BC00A00
00700A700A00
00700A1C0A00
01E00A074A00
1F800A01DA00
04000A007E00
00000A001E00
000007806E00
000001FFEA00
000000050A00
000000000A00
000000000A00
ENDCHAR
STARTCHAR uni0917094D092D
ENCODING -1
SWIDTH 755 0
DWIDTH 21 0
BBX 23 18 -1 0
BITMAP
7FFFF402FFF8
15755D005E50
00700B000A00
007007000A00
007007000A00
007007000A00
007007000A00
007007000A00
007007FFFE00
01E007555E00
1F8007000A00
040007000A00
000006000A00
000000000A00
000000000A00
000000000A00
000000000A00
000000000A00
ENDCHAR
STARTCHAR uni0917094D092E
ENCODING -1
SWIDTH 754 0
DWIDTH 21 0
BBX 23 18 -1 0
BITMAP
7FFFFFFFFFF4
15755B555E50
007007000A00
007007000A00
007007000A00
007007000A00
007007000A00
007007000E00
007007FFFE00
01E007555E00
1F8007000A00
040007000A00
000006000A00
000000000A00
000000000A00
000000000A00
000000000A00
000000000A00
ENDCHAR
STARTCHAR uni0917094D092F
ENCODING -1
SWIDTH 828 0
DWIDTH 23 0
BBX 25 18 -1 0
BITMAP
7FFFFFFFFFFF80
1575556D55A500
0070000A00A000
0070000A00A000
0070000A00A000
0070000A00A000
0070001D00A000
00700BF800A000
00700A0000A000
01E00A0000A000
1F800A0000A000
04000A0000E000
0000070001E000
0000039007E000
000000BFFDA000
0000000540A000
0000000000A000
0000000000A000
ENDCHAR
STARTCHAR uni0917094D0932
ENCODING -1
SWIDTH 924 0
DWIDTH 26 0
BBX 28 19 -1 -1
BITMAP
7FFFFFFFFFFFFD
15755555555794
00700000000340
00700000000340
00700000000340
007001FE0BF740
00700796E95F40
00700A00B00740
00700D00A00340
01E00D00A00340
1F800D00A00340
04000D00600340
00000D00000340
00000D00000340
00000E00000340
00000740000340
000002FE000340
00000014000340
00000000000100
ENDCHAR
STARTCHAR uni0917094D0935
ENCODING -1
SWIDTH 747 0
DWIDTH 21 0
BBX 23 19 -1 -1
BITMAP
7FFFFFFFFFF4
157555555E50
007000000D00
007000000D00
007001BF0D00
007003950D00
00700B000D00
00700A000D00
00700E000D00
01E00E000D00
1F800E000D00
04000A000D00
00000A001D00
000007807D00
000001FFDD00
000000050D00
000000000D00
000000000D00
000000000400
ENDCHAR
STARTCHAR uni0917094D0938
ENCODING -1
SWIDTH 839 0
DWIDTH 23 0
BBX 25 19 -1 -1
BITMAP
7FFFFFFFFFFFC0
1575556D55B540
0070001C007000
0070001C007000
0070001C007000
0070001C007000
0070001C007000
00700028007000
00700074007000
01E02FFFFFF000
1F801D00007000
04000A00007000
00000340007000
000002C0007000
000000E0007000
00000070007000
00000038007000
0000001D007000
00000004001000
ENDCHAR
STARTCHAR uni0918094D092E
ENCODING -1
SWIDTH 818 0
DWIDTH 23 0
BBX 25 19 -1 -1
BITMAP
7FFFFFFFFFFF40
16D555A555E500
038000A000D000
034000A000D000
034000A000D000
038000A000D000
01D000A000D000
00BF80A000D000
01D500BFFFD000
038000A555D000
034000A000D000
034000A000D000
038000A000D000
01D002D000D000
00BFFF4000D000
0001500000D000
0000000000D000
0000000000D000
00000000004000
ENDCHAR
STARTCHAR uni0918094D092F
ENCODING -1
SWIDTH 867 0
DWIDTH 24 0
BBX 26 18 -1 0
BITMAP
7FFFFFFFFFFFE0
16D5555B556940
02800002802800
03400001C02800
03400001C02800
03800002802800
02D00007402800
00BF82FE002800
01D50280002800
02800280002800
03400280002800
034002C0002800
038001D0003800
02D001F401F800
00BFFF5FFFA800
00015001542800
00000000002800
00000000002800
ENDCHAR
STARTCHAR uni091A094D091A
ENCODING -1
SWIDTH 868 0
DWIDTH 24 0
BBX 26 18 -1 0
BITMAP
7FFFFFFFFFFFE0
15555555556940
00000000002800
00000000002800
00000000002800
00000000002800
1FFFC3FFF82800
0579016D502800
00A00074002800
00D00070002800
00D000A0002800
00D00070002800
00E00070003800
007401F901B800
002FFF4BFFA800
00015000542800
00000000002800
00000000002800
ENDCHAR
STARTCHAR uni091A094D091B
ENCODING -1
SWIDTH 922 0
DWIDTH 26 0
BBX 28 18 -1 0
BITMAP
7FFFFFFFFFFFFD
1555556D555B54
00000034000700
00000070000700
00000070000700
00000070000700
1FFFF07400FE00
05795029005B40
00A0000FE00280
00D0002D400280
00D00034000280
00D00070000280
00E00070000280
007401F0000280
002FFFB4000280
00015029000B40
0000000BFFFD00
00000000554000
ENDCHAR
STARTCHAR uni091A094D092E
ENCODING -1
SWIDTH 830 0
DWIDTH 23 0
BBX 25 18 -1 0
BITMAP
7FFFFFFFFFFF80
1555557555A500
0000007000A000
0000007000A000
0000007000A000
1FFFF07000A000
0579507000A000
00A0007000A000
00D0007FFFE000
00D0007555A000
00D0007000A000
00E000B000A000
007401E000A000
001FFF8000A000
0001500000A000
0000000000A000
0000000000A000
0000000000A000
ENDCHAR
STARTCHAR uni091A094D092F
ENCODING -1
SWIDTH 904 0
DWIDTH 25 0
BBX 27 18 -1 0
BITMAP
7FFFFFFFFFFFF8
15555556D55A50
00000000A00A00
00000000700A00
00000000700A00
00000000A00A00
1FFFF001D00A00
057950BF800A00
00A000A4000A00
00D000A0000A00
00D000A0000A00
00D000B0000A00
00E00074000E00
007401FD007E00
002FFF4BFFEA00
00015000550A00
00000000000A00
00000000000A00
ENDCHAR
STARTCHAR uni091B094D092F
ENCODING -1
SWIDTH 1068 0
DWIDTH 30 0
BBX 32 19 -1 -1
BITMAP
7FFFFFFFFFFFFFFD
15E5555555555794
0280000000000340
0380000000000340
03800BFFFFE00340
0380017D55680340
0280001C000D0340
01D0000D000D0340
007F400D000D0340
01E5000D002C0340
0280000D0FF40340
0380000D0D000340
0380000D0D000B40
0380001D0B402F40
0280001C02FFF740
01D0007800050340
007FFFE000000340
0001550000000340
0000000000000100
ENDCHAR
STARTCHAR uni091B094D0935
ENCODING -1
SWIDTH 581 0
DWIDTH 16 0
BBX 18 22 -1 -4
BITMAP
7FFFFFFFE0
15E5557940
0280003400
0380003400
0380003400
02800BF400
01D0017800
007F401C00
01E5000D00
0280000D00
0380000D00
0380000C00
0280001C00
01D0007400
00BFFFF400
00B5553400
00D0003400
00D0003400
00D0007400
00B401E000
002FFF8000
0001540000
ENDCHAR
STARTCHAR uni091C094D0915
ENCODING -1
SWIDTH 1054 0
DWIDTH 30 0
BBX 31 19 -1 -1
BITMAP
7FFFFFFFFFFFFFFC
1555555555D55554
0000000001C00000
0000000001C00000
0000001BE1DBF900
0000007941F55B00
03FFFFE001D00380
015B55D001C00280
000380D001C00280
000280D001C00280
000280D001C00280
000280D001C00280
000280E002C00380
0002807407C00B40
000B402FFDC3FD00
0FFD000141C04000
0540000001C00000
0000000001C00000
0000000000400000
ENDCHAR
STARTCHAR uni091C094D091C
ENCODING -1
SWIDTH 903 0
DWIDTH 25 0
BBX 27 18 -1 0
BITMAP
7FFFFFFFFFFFF8
15555555555A50
00000000000A00
00000000000A00
00000000000A00
00000000000A00
03FFFE1FFFFE00
015B5405B55A00
00038000380A00
00028000280A00
00028000280A00
00028000280A00
00028000280A00
00028000280A00
000B4000B40A00
0FFD01FFD00A00
05400054000A00
00000000000A00
ENDCHAR
STARTCHAR uni091C094D091D
ENCODING -1
SWIDTH 990 0
DWIDTH 28 0
BBX 29 19 -1 -1
BITMAP
7FFFFFFFFFFFFFC0
155555555B557540
0000000007007000
0000000007007000
0000001FFF007000
0000007554007000
03FFFFE000007000
015B55E000007000
000380A000007000
0002807400007000
0002802FFFFFF000
0002800057957000
0002800002807000
000280D002807000
000B40D002807000
0FFD00F407407000
054000EFFE007000
000000D150007000
000000D000001000
ENDCHAR
STARTCHAR uni091C094D091F
ENCODING -1
SWIDTH 815 0
DWIDTH 23 0
BBX 25 18 -1 0
BITMAP
7FFFFFFFFFFF40
1555555556D500
0000000001C000
0000000001C000
0000000002C000
0000001BFF8000
07FFFFF9550000
015B55F0000000
000340A0000000
000280D0000000
000280D0000000
000280D0002400
000280D0003400
000340E0003400
000B00A0007400
1FFD007801E000
0540001FFF8000
00000000540000
ENDCHAR
STARTCHAR uni091C094D0921
ENCODING -1
SWIDTH 797 0
DWIDTH 22 0
BBX 24 19 -1 -1
BITMAP
7FFFFFFFFFFE
155555555694
000000000280
000000000280
000000000280
0000002FFF80
07FFFFF55500
015B55E00000
000340D00000
000280B40000
0002802FFE40
0002800156C0
0002800000D0
0003400000A0
000B00D000A0
1FFD00D000D0
054000A402D0
0000002FFF40
000000015000
ENDCHAR
STARTCHAR uni091C094D0924
ENCODING -1
SWIDTH 830 0
DWIDTH 23 0
BBX 25 18 -1 0
BITMAP
7FFFFFFFFFFF80
1555555555A500
0000000000A000
0000000000A000
0000000000A000
0000000000A000
07FFFF9BFFE000
015B55B955A000
000340A000A000
000280A000A000
000280A000A000
000280A000A000
000280A000A000
000340A000A000
000B00A000A000
1FFD00A000A000
0540007800A000
0000001FC0A000
ENDCHAR
STARTCHAR uni091C094D0926
ENCODING -1
SWIDTH 817 0
DWIDTH 23 0
BBX 25 18 -1 0
BITMAP
7FFFFFFFFFFF40
1555555555E500
0000000000D000
0000000000D000
0000000000D000
0000001BFFD000
03FFFFF9554000
015B55A0000000
000380D0000000
000280D0000000
000280D0000000
000280D0006000
000280A000A000
0002807401E000
000B401FFFA000
0FFD000054A000
0540000000A000
00000000006000
ENDCHAR
STARTCHAR uni091C094D092C
ENCODING -1
SWIDTH 820 0
DWIDTH 23 0
BBX 25 19 -1 -1
BITMAP
7FFFFFFFFFFF40
1555555555E500
0000000000D000
0000000000D000
0000001BF0D000
0000007940D000
03FFFFF800D000
015B55DA00D000
000380D280D000
000280D0A0D000
000280D028D000
000280D00AD000
000280E002D000
0002807407D000
000B401FFDD000
0FFD000150D000
0540000000D000
0000000000D000
00000000004000
ENDCHAR
STARTCHAR uni091C094D092E
ENCODING -1
SWIDTH 813 0
DWIDTH 23 0
BBX 24 19 -1 -1
BITMAP
7FFFFFFFFFFF
155555A555D5
000000A000D0
000000A000D0
000000A000D0
000000A000D0
03FFFFE000D0
015B55A001D0
000380BFFFD0
000280A555D0
000280A000D0
000280A000D0
000280A000D0
0002800000D0
000B400000D0
0FFD000000D0
0540000000D0
0000000000D0
000000000040
ENDCHAR
STARTCHAR uni091C094D092F
ENCODING -1
SWIDTH 893 0
DWIDTH 25 0
BBX 27 19 -1 -1
BITMAP
7FFFFFFFFFFFF4
15555556D55E50
00000000D00D00
00000000A00D00
00000000A00D00
07FFFF80E00D00
015A55D2D00D00
000340FF400D00
000280E0000D00
000280D0000D00
000280D0000D00
000280A0000D00
00028070001D00
00034039007D00
000B000BFFDD00
1FFD0000540D00
05400000000D00
00000000000D00
00000000000400
ENDCHAR
STARTCHAR uni091C094D0935
ENCODING -1
SWIDTH 813 0
DWIDTH 23 0
BBX 24 19 -1 -1
BITMAP
7FFFFFFFFFFF
1555555555D5
0000000000D0
0000000000D0
0000001BE0D0
0000007940D0
03FFFFE000D0
015B55D000D0
000380D000D0
000280D000D0
000280D000D0
000280D001D0
000280E001D0
0002807407D0
000B401FFDD0
0FFD000040D0
0540000000D0
0000000000D0
000000000040
ENDCHAR
STARTCHAR uni091D094D092E
ENCODING -1
SWIDTH 936 0
DWIDTH 26 0
BBX 28 19 -1 -1
BITMAP
7FFFFFFFFFFFFE
15556D55D55694
00002801C00280
00002801C00280
00BFF801C00280
02D55001C00280
03400001C00280
03400001C00280
02D00001FFFF80
00BFFFFFD55680
00055D55C00280
00000A01C00280
03400A01800280
03400A00000280
03901D00000280
03BFF800000280
03450000000280
03400000000140
03400000000000
ENDCHAR
STARTCHAR uni091D094D092F
ENCODING -1
SWIDTH 1000 0
DWIDTH 28 0
BBX 30 19 -1 -1
BITMAP
7FFFFFFFFFFFFFD0
15556D555B557940
0000280003403400
0000280002803400
00BFF80002803400
02D5500003803400
034000000B403400
03400003FD003400
02D0000380003400
00BFFFFF40003400
00055D5740003400
00000A0280003400
03400A01C0007400
03400A00A401F400
03901D002FFE7400
03BFF80000003400
0345000000003400
0340000000002400
0340000000000000
ENDCHAR
STARTCHAR uni091E094D091B
ENCODING -1
SWIDTH 913 0
DWIDTH 26 0
BBX 27 18 -1 0
BITMAP
7FFFFFFFFFFFFC
15555579555B54
00000070000A00
000000A0000A00
07FD00A0000A00
015740A0000A00
000280B001FE00
0001C078005B00
0001C01FE00340
0001FFF9400280
0001D5B0000280
0001C0B0000280
000780A0000280
0FFE00B0000340
01500070000340
00000038001B00
0000001FFFF800
00000000554000
ENDCHAR
STARTCHAR uni091E094D091C
ENCODING -1
SWIDTH 932 0
DWIDTH 26 0
BBX 28 18 -1 0
BITMAP
7FFFFFFFFFFFFD
15555555555794
00000000000280
00000000000280
00000000000280
00000000000380
07FD001FFFFF80
01574005695780
0001C0000D0280
0000C0000A0280
0000FF800A0280
0000D5000A0280
0001C0000A0280
000780000D0280
0BFE00002C0280
0150007FF40280
00000015000280
00000000000280
ENDCHAR
STARTCHAR uni091E094D0936
ENCODING -1
SWIDTH 975 0
DWIDTH 27 0
BBX 29 19 -1 -1
BITMAP
7FFFFC06F800BF80
1555541E5B00A500
000000280340A000
000000280340A000
07FD00280340A000
015740000340A000
0001C0000340A000
0001C0000340A000
0000D0001B00A000
0000FFFFF900A000
0000D5754000A000
0000C0280000A000
0001C00D0000A000
000780070000A000
0BFE00028000A000
01500000D000A000
000000007000A000
000000002800A000
0000000004000000
ENDCHAR
STARTCHAR uni091F094D091F
ENCODING -1
SWIDTH 494 0
DWIDTH 14 0
BBX 16 27 -1 -9
BITMAP
7FFFFFFD
15555E54
00000A00
00000A00
007FFE00
01E55400
03800000
07400000
07000000
070000C0
074001C0
034001C0
02D00780
00BFFE00
00054A00
00000A00
007FFE00
01E55400
03800000
07400000
07000000
070000C0
074001C0
034001C0
02D00740
00BFFE00
00055000
ENDCHAR
STARTCHAR uni091F094D0920
ENCODING -1
SWIDTH 495 0
DWIDTH 14 0
BBX 16 27 -1 -9
BITMAP
7FFFFFFD
15555E54
00000A00
00000A00
007FFE00
01E55400
03800000
07400000
07000000
070000C0
074001C0
034001C0
02D00780
00BFFF00
00055B00
00000A00
006FFD00
01E55B40
038002C0
034001C0
034000D0
034000D0
034001C0
038001C0
01D00780
00BFFE00
00055000
ENDCHAR
STARTCHAR uni091F094D092F
ENCODING -1
SWIDTH 990 0
DWIDTH 28 0
BBX 30 19 -1 -1
BITMAP
7FFFFFFFFFFFFFD0
15555A5555557540
00000A0000003400
00000A0000003400
00000A0000003400
006FFFFFFE003400
01E5555556803400
0280000001C03400
0340000000D03400
0340000001C03400
0340000002803400
03400041FE403400
034000D1D0007400
034001C0D000B400
038001C0B402F400
01D007802FFF7400
007FFE0000503400
0005500000003400
0000000000001000
ENDCHAR
STARTCHAR uni091F094D0935
ENCODING -1
SWIDTH 501 0
DWIDTH 14 0
BBX 16 22 -1 -4
BITMAP
7FFFFFFD
15555B54
00000A00
00000A00
00000A00
006FFE00
01E55400
03800000
03400000
03400040
034000D0
034000D0
038001C0
01D007C0
00BFFFC0
01E551C0
028001C0
02800280
02800280
01D00B40
00BFFD00
00014000
ENDCHAR
STARTCHAR uni0920094D092F
ENCODING -1
SWIDTH 998 0
DWIDTH 28 0
BBX 30 19 -1 -1
BITMAP
7FFFFFFFFFFFFFD0
15555B5555557940
0000070000003400
00000B0000003400
00001E0000003400
006FFD1FFE003400
01E55BB556C03400
038002E000D03400
034001D000D03400
034000D000D03400
034000D002C03400
034000D0FF403400
034000D0D0003400
034001D0E0007400
038001C07401F400
01D007802FFF7400
00BFFE0000503400
0005500000003400
0000000000001000
ENDCHAR
STARTCHAR uni0921094D0921
ENCODING -1
SWIDTH 493 0
DWIDTH 14 0
BBX 16 27 -1 -9
BITMAP
7FFFFFFD
15555B54
00000700
00000B00
00BFFE00
02D55400
02800000
03400000
02D00000
00BFFD00
00055B40
00000280
03400280
03400280
02900740
00FFFE00
02D54000
03800000
03400000
02D00000
00BFFD00
00055740
01000280
03400280
02800740
01BFFE00
00054000
ENDCHAR
STARTCHAR uni0921094D0922
ENCODING -1
SWIDTH 493 0
DWIDTH 14 0
BBX 16 25 -1 -7
BITMAP
7FFFFFFD
15555B54
00000700
00000B00
00BFFE00
02D55400
02800000
03400000
02D00000
00BFFD00
00055B40
00000280
03400280
03400280
02900740
00FFFE00
01E54000
02800000
03407F40
0340E6C0
0341C0D0
034180D0
028001C0
01E55780
006FFE00
ENDCHAR
STARTCHAR uni0921094D092F
ENCODING -1
SWIDTH 973 0
DWIDTH 27 0
BBX 29 19 -1 -1
BITMAP
7FFFFFFFFFFFFF80
15555A555555A500
00000A000000A000
00000A000000A000
00000A000000A000
00BFFFFFFD00A000
02D555555740A000
038000000280A000
034000000280A000
02D000000740A000
00BFF902FE00A000
00055B028000A000
000003428000A000
00000281C001E000
03400280E407E000
034003406FFDA000
02900B400140A000
00BFFD000000A000
0005400000000000
ENDCHAR
STARTCHAR uni0921094D0935
ENCODING -1
SWIDTH 493 0
DWIDTH 14 0
BBX 16 23 -1 -5
BITMAP
7FFFFFFD
15555B54
00000700
00000B00
00BFFE00
02D55400
02800000
03400000
02D00000
00BFFD00
00055B40
00000280
03400280
03400280
02900780
00FFFF80
00E54280
02800280
02800280
02800380
01D00B00
007FFD00
00014000
ENDCHAR
STARTCHAR uni0922094D092F
ENCODING -1
SWIDTH 981 0
DWIDTH 27 0
BBX 29 19 -1 -1
BITMAP
7FFFFFFFFFFFFF80
15555B555555B540
00000A0000007000
00000A0000007000
00000A0000007000
006FFFFFFD007000
01E5555557407000
0280000002807000
0340000001C07000
03407E4002807000
0340E6C007407000
0341C0C2FE007000
0341C0D2C000B000
034040D1C000F000
028001C0E406F000
01D006806FFE7000
007FFE0001507000
0005500000007000
0000000000001000
ENDCHAR
STARTCHAR uni0923094D091F
ENCODING -1
SWIDTH 908 0
DWIDTH 25 0
BBX 27 18 -1 0
BITMAP
7FFFFFFFFFFFF8
16955E55555E50
02800D00000D00
02800D00000D00
02800D00000D00
02800D007FFD00
02800D01E55400
02800D03800000
02800D07400000
02800D07000000
02C01D07000000
01E06807000040
007FE0070001C0
000100070001C0
000000034002C0
00000002D00740
00000000BFFD00
00000000054000
ENDCHAR
STARTCHAR uni0923094D0920
ENCODING -1
SWIDTH 936 0
DWIDTH 26 0
BBX 28 18 -1 0
BITMAP
7FFFFFFFFFFFFE
16955E55555B54
02800D00000B00
02800D00000A00
02800D00001E00
02800D007FFD00
02800D01E55B40
02800D03800280
02800D074001C0
02800D070001C0
02C01D070001C0
01E068070001C0
007FE0070001C0
000100070001C0
000000034002C0
00000002D00740
00000000BFFD00
00000000055000
ENDCHAR
STARTCHAR uni0923094D0921
ENCODING -1
SWIDTH 892 0
DWIDTH 25 0
BBX 27 19 -1 -1
BITMAP
7FFFFFFFFFFFF4
16955E55555E50
02800D00000D00
02800D00000D00
02800D00000D00
02800D01BFFD00
02800D03955400
02800D07000000
02800D07000000
02800D03800000
02C01D01FFF800
01E06800055E00
007FE000000700
00010000000340
00000006000340
00000007000700
00000003801B00
00000001FFF900
00000000054000
ENDCHAR
STARTCHAR uni0923094D0922
ENCODING -1
SWIDTH 908 0
DWIDTH 25 0
BBX 27 18 -1 0
BITMAP
7FFFFFFFFFFFF8
16955E55555A54
02800D00000A00
02800D00000A00
02800D00000A00
02800D007FFE00
02800D01E55400
02800D03800000
02800D03400000
02800D07007E00
02C01D0700D680
01E0680701C1C0
007FE0070181C0
000100070181C0
000000034001C0
00000002D00780
00000000BFFE00
00000000055000
ENDCHAR
STARTCHAR uni0923094D0923
ENCODING -1
SWIDTH 1127 0
DWIDTH 32 0
BBX 33 19 -1 -1
BITMAP
7FFFFFFFFFFFFFFFC0
16955E55D55B55B540
02800D01C007007000
02800D01C007007000
02800D01C007007000
02800D01C007007000
02800D01C007007000
02800D01C007007000
02800D01C007007000
02800D01C00A007000
02C01D00D00A007000
01E06C00B41D007000
007FE0002FF4007000
000100000100007000
000000000000007000
000000000000007000
000000000000007000
000000000000007000
000000000000001000
ENDCHAR
STARTCHAR uni0923094D092E
ENCODING -1
SWIDTH 932 0
DWIDTH 26 0
BBX 28 18 -1 0
BITMAP
7FFFFFFFFFFFFD
16955E56D55794
02800D01C00280
02800D01C00280
02800D01C00280
02800D01C00280
02800D01C00280
02800D01C00380
02800D01FFFF80
02800D01D55780
02C01D01C00280
01E06801C00280
007FE001C00280
00010000000280
00000000000280
00000000000280
00000000000280
00000000000280
ENDCHAR
STARTCHAR uni0923094D092F
ENCODING -1
SWIDTH 998 0
DWIDTH 28 0
BBX 30 19 -1 -1
BITMAP
7FFFFFFFFFFFFFD0
16955E555B557940
02800D0003403400
02800D0002803400
02800D0002803400
02800D0003403400
02800D000B003400
02800D03FD003400
02800D0380003400
02800D0340003400
02C01D0340003400
01E06C0380003400
007FE00280007400
00010000E401F400
000000006FFF7400
0000000001503400
0000000000003400
0000000000003400
0000000000001000
ENDCHAR
STARTCHAR uni0923094D0935
ENCODING -1
SWIDTH 923 0
DWIDTH 26 0
BBX 28 19 -1 -1
BITMAP
7FFFFFFFFFFFFD
16955E55555754
02800D00000340
02800D00000340
02800D006FC340
02800D01E50340
02800D02800340
02800D03800340
02800D03400340
02800D03400340
02C01D03400340
01E06803400340
007FE002800740
00010001D01F40
000000007FF740
00000000014340
00000000000340
00000000000340
00000000000100
ENDCHAR
STARTCHAR uni0924094D0915
ENCODING -1
SWIDTH 992 0
DWIDTH 28 0
BBX 30 19 -1 -1
BITMAP
7FFFFFFFFFFFFFD0
155555555D555540
000000000D000000
000000000D000000
000000BF0DBF9000
000003940F95B400
007FFF000E002800
02D55A000D001C00
03400A000D001C00
03400A000D001C00
03400A000D001C00
03400A000D001C00
03400A001D002C00
034007807D007400
034001FFDD2FE000
034000050D050000
02D000000D000000
00BE00000D000000
0000000004000000
ENDCHAR
STARTCHAR uni0924094D0916
ENCODING -1
SWIDTH 1014 0
DWIDTH 28 0
BBX 30 18 -1 0
BITMAP
7FFFFFFFFFFFFFE0
15555555D5556D40
00000001C0002800
00000001C0002800
00000001C0002800
00000001C07D2800
007FF801C1D42800
02D55A01C3802800
0340070783402800
074003FE03402800
0700039003402800
070001D003402800
070000B002D0B800
0700003800BFA800
0740001D00042800
0340000B00002800
02D0000280002800
00BE0001D0001800
ENDCHAR
STARTCHAR uni0924094D0924
ENCODING -1
SWIDTH 542 0
DWIDTH 15 0
BBX 17 18 -1 0
BITMAP
7FFFFFFF80
155555E500
000000A000
000000A000
000000A000
000000A000
0FFFFFE000
057955A000
00A000A000
00A000A000
00D000A000
00D000A000
00D000A000
00D000A000
00A000A000
00A000A000
007800A000
001FC0A000
ENDCHAR
STARTCHAR uni0924094D0925
ENCODING -1
SWIDTH 869 0
DWIDTH 24 0
BBX 26 19 -1 -1
BITMAP
7FFFC07F401FE0
155541D5D02940
00000280A02800
00000340702800
00000140702800
00000000A02800
00000001D02800
007FFFFF802800
02D55A50002800
03400A00002800
07400A00002800
07000B00002800
07000740003800
070002D001F800
074000BFFFA800
03400005542800
02D00000002800
00BE0000002800
00040000000000
ENDCHAR
STARTCHAR uni0924094D092A
ENCODING -1
SWIDTH 757 0
DWIDTH 21 0
BBX 23 18 -1 0
BITMAP
7FFFFFFFFFF8
15555A555A50
00000A000A00
00000A000A00
00000A000A00
00000A000A00
007FFE000A00
02D55A000A00
03400A000A00
07400A000A00
070007000E00
070003906E00
070001BFEA00
070000050A00
074000000A00
034000000A00
02D000000A00
00BE00000A00
ENDCHAR
STARTCHAR uni0924094D092B
ENCODING -1
SWIDTH 992 0
DWIDTH 28 0
BBX 29 19 -1 -1
BITMAP
7FFFFFFFFFFFFFC0
15555A555D555540
00000A000D000000
00000A000D000000
00000A000DBF9000
00000A000F95B400
007FFE000E002800
02D55A000D001C00
03400A000D001C00
07400B001D001C00
070003907D001C00
070001FFDD001C00
070000050D002C00
070000000D007400
074000000D2FD000
034000000D050000
02D000000D000000
00BE00000D000000
0000000004000000
ENDCHAR
STARTCHAR uni0924094D092E
ENCODING -1
SWIDTH 764 0
DWIDTH 21 0
BBX 23 18 -1 0
BITMAP
7FFFFFFFFFF8
155557555B50
000003400A00
000003400A00
000003400A00
000003400A00
007FFF400A00
02E557400A00
038003FFFE00
034003555A00
034003400A00
034003400A00
034003400A00
034000000A00
034000000A00
034000000A00
02D000000A00
00BE00000A00
ENDCHAR
STARTCHAR uni0924094D092F
ENCODING -1
SWIDTH 830 0
DWIDTH 23 0
BBX 25 19 -1 -1
BITMAP
7FFFFFFFFFFF80
1555556D55A500
0000000A00A000
0000000700A000
0000000700A000
0000000A00A000
0000001D00A000
007FFFF800A000
02D55A0000A000
03400A0000A000
07400A0000A000
07000A0000A000
0700074001E000
070002D007E000
074000BFFDA000
0340000550A000
02D0000000A000
00BE000000A000
00040000000000
ENDCHAR
STARTCHAR uni0924094D0932
ENCODING -1
SWIDTH 957 0
DWIDTH 27 0
BBX 28 19 -1 -1
BITMAP
7FFFFFFFFFFFFF
155555555555D5
000000000000D0
000000000000D0
000000000000D0
007FF87F82FDD0
02D55EE5AA57D0
034007803C01D0
034007402801D0
070003402800D0
070003402800D0
070003402800D0
070003400000D0
070003400000D0
074003400000D0
034002D00000D0
02D000BF8000D0
00BE00050000D0
00040000000040
ENDCHAR
STARTCHAR uni0924094D0935
ENCODING -1
SWIDTH 751 0
DWIDTH 21 0
BBX 23 18 -1 0
BITMAP
7FFFFFFFFFF4
155555555E50
000000000D00
000000000D00
000000BF0D00
000002950D00
007FFF000D00
02D55A000D00
03400A000D00
03400A000D00
03400A000D00
03400A000D00
03400B000D00
034007806D00
034001FFED00
034000050D00
02D000000D00
00BE00000D00
ENDCHAR
STARTCHAR uni0924094D0938
ENCODING -1
SWIDTH 876 0
DWIDTH 25 0
BBX 26 19 -1 -1
BITMAP
7FFFFFFFFFFFF0
1555555B556D50
00000007001C00
00000007001C00
00000007001C00
00000007001C00
007FF407001C00
02D56C0B001C00
0340091D001C00
07400BFFFFFC00
07000755556C00
07000280001C00
070001D0001C00
070000B0001C00
07400034001C00
0340001C001C00
02D0000E001C00
00BE0007401C00
00000001000400
ENDCHAR
STARTCHAR uni0925094D092F
ENCODING -1
SWIDTH 931 0
DWIDTH 26 0
BBX 26 18 1 0
BITMAP
06F80BFFFFFFD0
0E5E015B557940
1C070003403400
28034002803400
28034002803400
00034002803400
00070007403400
001E02FD003400
7FF80380003400
75400380003400
70000380003400
70000280003400
340002C0007400
2D001BE401F400
07FFF86FFF7400
00154001503400
00000000003400
00000000003400
ENDCHAR
STARTCHAR uni0925094D0935
ENCODING -1
SWIDTH 862 0
DWIDTH 24 0
BBX 24 18 1 0
BITMAP
06F80BFFFFFE
0E5E01555694
1C0700000280
280340000280
1803402FC280
000340B54280
000701C00280
001E02800280
7FF802800280
754002800280
700002800280
700002800280
340002C00380
2D001BE41B80
07FFF87FFA80
001540014280
000000000280
000000000280
ENDCHAR
STARTCHAR uni0926094D0917
ENCODING -1
SWIDTH 489 0
DWIDTH 14 0
BBX 15 22 -1 -4
BITMAP
7FFFFFFC
15555754
00000740
00000740
00000740
007FFF00
01E55400
03800000
03400000
03400000
03400280
03400280
03800380
01D00B80
007FFA80
000D4280
000D0280
000D0280
001D0000
006C0000
07E00000
01000000
ENDCHAR
STARTCHAR uni0926094D0918
ENCODING -1
SWIDTH 686 0
DWIDTH 19 0
BBX 21 20 -1 -2
BITMAP
7FFFFFFFFF80
15555555A500
00000000A000
00000000A000
00000000A000
00000BFFE000
00003D554000
01BFF0000000
0795A0000000
0A00A0000000
0A00A0000000
0740A0003000
01FD70007000
03943901B000
07001FFFB000
0A000A547000
07000A007000
07401C003000
01FFF4000000
000500000000
ENDCHAR
STARTCHAR uni0926094D0926
ENCODING -1
SWIDTH 506 0
DWIDTH 14 0
BBX 16 20 -1 -2
BITMAP
7FFFFFFE
15555794
00000340
00000340
00000340
00BFFF40
01D55500
02800000
02800000
02D00000
00BFE000
01D54000
02800000
038000C0
028001C0
02D006C0
00BFFEC0
000150C0
000000C0
000000C0
ENDCHAR
STARTCHAR uni0926094D0927
ENCODING -1
SWIDTH 686 0
DWIDTH 19 0
BBX 21 20 -1 -2
BITMAP
7FFFFFFFFF80
15555555A500
00000000A000
00000000A000
00000000A000
00000BFFE000
00003D554000
01B870000000
0790A0000000
0B00A0000000
0A00A0000000
0740A0003000
01FD70007000
03943901B000
07001FFFB000
0A000A547000
07000A007000
07401C003000
01FFF4000000
000500000000
ENDCHAR
STARTCHAR uni0926094D092C
ENCODING -1
SWIDTH 481 0
DWIDTH 13 0
BBX 15 22 -1 -4
BITMAP
7FFFFFF8
15555754
00000740
00000740
00000740
007FFF00
01E55400
03800000
03400000
03400000
03400140
03400280
03800280
02D00B80
00BFFA80
01F94280
028A0280
0282C280
02807740
01D01F00
00BFF900
00014000
ENDCHAR
STARTCHAR uni0926094D092D
ENCODING -1
SWIDTH 499 0
DWIDTH 14 0
BBX 16 23 -1 -5
BITMAP
7FFFFFFD
15555794
00000340
00000340
006FFF40
01E55500
02800000
03400000
03400100
03400340
02800340
01E01B40
007FFB40
00014340
0F800340
01E00340
00700340
00700340
007FFF40
00755740
00700340
00100340
00000240
ENDCHAR
STARTCHAR uni0926094D092E
ENCODING -1
SWIDTH 706 0
DWIDTH 20 0
BBX 21 19 -1 -1
BITMAP
7FFFFFFFFFC0
15555E557540
00000D007000
00000D007000
00BFFD007000
02D554007000
074000007000
070000007000
070000007000
07000A007000
07400A007000
02D01E007000
00BFEA007000
00000BFFF000
00000A557000
00000A007000
00000A007000
000000007000
000000001000
ENDCHAR
STARTCHAR uni0926094D092F
ENCODING -1
SWIDTH 583 0
DWIDTH 16 0
BBX 18 18 -1 0
BITMAP
7FFFFFFFE0
1555E56940
0000D02800
0000D02800
00BFD02800
02D5402800
0280002800
0340002800
02D0002800
00BF402800
01D5002800
0280002800
0340002800
0280002800
02D000B800
00BFFFA800
0005542800
0000002800
ENDCHAR
STARTCHAR uni0926094D0935
ENCODING -1
SWIDTH 483 0
DWIDTH 14 0
BBX 15 22 -1 -4
BITMAP
7FFFFFF8
15555754
00000740
00000740
00000740
007FFF00
01E55400
03800000
03400000
03400000
03400140
03400280
03800280
02D00B80
00BFFA80
01E54280
02800280
02800280
02800340
01D01B00
00BFF900
00014000
ENDCHAR
STARTCHAR uni0927094D092E
ENCODING -1
SWIDTH 817 0
DWIDTH 23 0
BBX 25 19 -1 -1
BITMAP
7FFE07FFFFFF40
16D401B555E500
038000A000D000
034000A000D000
034000A000D000
038000A000D000
01D000A000D000
00BF80A000D000
01D000BFFFD000
034000B555D000
034000A000D000
034000A000D000
038000A000D000
01D002D000D000
00BFFF4000D000
0001500000D000
0000000000D000
0000000000D000
00000000004000
ENDCHAR
STARTCHAR uni0927094D092F
ENCODING -1
SWIDTH 886 0
DWIDTH 25 0
BBX 27 19 -1 -1
BITMAP
7FFE07FFFFFFF4
16D40156955D50
02800000D00D00
03400000D00D00
03400000D00D00
03800000D00D00
02D00002C00D00
00BF80FF400D00
01D500D0000D00
028000D0000D00
034000D0000D00
034000D0001D00
038000A0002D00
02D001B900BD00
00BFFF9BFFDD00
00015000540D00
00000000000D00
00000000000D00
00000000000400
ENDCHAR
STARTCHAR uni0927094D0935
ENCODING -1
SWIDTH 810 0
DWIDTH 23 0
BBX 24 19 -1 -1
BITMAP
7FFE07FFFFFF
16D4015555D5
0280000001C0
0340000001C0
0340001BE1C0
0380007941C0
01D000E001C0
00BF80D001C0
01D500D001C0
038000D001C0
034000D001C0
034000D001C0
038000E002C0
02D001F407C0
00BFFF5FFDC0
0001500141C0
0000000001C0
0000000001C0
000000000040
ENDCHAR
STARTCHAR uni0928094D0915
ENCODING -1
SWIDTH 973 0
DWIDTH 27 0
BBX 29 18 -1 0
BITMAP
7FFFFFFFFFFFFF80
1555555569555500
0000000028000000
0000000028000000
000001FD29FF8000
00000B542F55E000
00000D002C007400
02FFFC0028003400
0B556C0028002800
0D001C0028002800
0D001C0028002800
0A001C0028003400
01001D0038003400
00000B40B801B000
000002FFA83F8000
0000001428140000
0000000028000000
0000000028000000
ENDCHAR
STARTCHAR uni0928094D091A
ENCODING -1
SWIDTH 820 0
DWIDTH 23 0
BBX 25 19 -1 -1
BITMAP
7FFFFFFFFFFF40
1555555555E500
0000000000D000
0000000000D000
0000000000D000
00001FFFD0D000
000005E540D000
000002C000D000
0000028000D000
02FFE38000D000
0B55438000D000
0D00028000D000
0A00028001D000
0A0001E007D000
0000007FFDD000
0000000150D000
0000000000D000
0000000000D000
00000000004000
ENDCHAR
STARTCHAR uni0928094D091B
ENCODING -1
SWIDTH 781 0
DWIDTH 22 0
BBX 24 18 -1 0
BITMAP
7FFFFFFFFFFD
15556D555754
000034000700
000070000700
000070000700
000070000700
00007400FF00
000039005B40
02FFFFF00280
0B555D4002C0
0A00340001C0
0A00700001C0
0700700001C0
0000700002C0
000034000280
00002D000B40
00000BFFFD00
000000554000
ENDCHAR
STARTCHAR uni0928094D091F
ENCODING -1
SWIDTH 715 0
DWIDTH 20 0
BBX 22 18 -1 0
BITMAP
7FFFFFFFFFD0
155555557540
000000007000
000000007000
000000007000
000002FFF000
00000F554000
02FFFC000000
0B5568000000
0D0028000000
0D0028000000
0A0028000500
050028000A00
000028000A00
00001C000D00
00000E406C00
000006FFE000
000000150000
ENDCHAR
STARTCHAR uni0928094D0921
ENCODING -1
SWIDTH 705 0
DWIDTH 20 0
BBX 21 19 -1 -1
BITMAP
7FFFFFFFFFC0
155555557540
000000003400
000000003400
000000007400
000007FFF000
00001E554000
02FFFC000000
0B556C000000
0D001D000000
0D0007FFE000
0A0000157800
000000002C00
000000001C00
000028001C00
00002C001C00
00001D007800
000007FFE000
000000150000
ENDCHAR
STARTCHAR uni0928094D0924
ENCODING -1
SWIDTH 717 0
DWIDTH 20 0
BBX 22 19 -1 -1
BITMAP
7FFFFFFFFFD0
155555557940
000000003800
000000003800
000000003800
000000003800
000007FFF800
02FFFE557800
0B5578003800
0D0034003800
0D0034003800
0A0034003800
010034003800
000034003800
000034003800
000028003800
00001D003800
000007E03400
000000400000
ENDCHAR
STARTCHAR uni0928094D0925
ENCODING -1
SWIDTH 804 0
DWIDTH 23 0
BBX 24 19 -1 -1
BITMAP
7FFD06F801FF
15541E5E01D5
0000280701C0
0000280701C0
0000140701C0
0000000701C0
0000001E01C0
02FFFFF801C0
0B55B54001C0
0D00700001C0
0D00700001C0
0E00700002C0
0600340003C0
00001D001BC0
000007FFF9C0
0000001541C0
0000000001C0
0000000001C0
000000000040
ENDCHAR
STARTCHAR uni0928094D0926
ENCODING -1
SWIDTH 724 0
DWIDTH 20 0
BBX 22 18 -1 0
BITMAP
7FFFFFFFFFE0
155555556940
000000002800
000000002800
000000002800
000006FFF800
00000F555000
02FFFD000000
0B556C000000
0D0028000000
0D0028000000
0A001C000C00
05001C001D00
00000E406D00
000002FFED00
000000150D00
000000000D00
000000000C00
ENDCHAR
STARTCHAR uni0928094D0927
ENCODING -1
SWIDTH 753 0
DWIDTH 21 0
BBX 23 18 -1 0
BITMAP
7FFFFFC2FFF4
155579405E50
000070000A00
0000A0000A00
0000A0000A00
000070000A00
000038000A00
02FFFFF40A00
0B5579500A00
0D0070000A00
0D00B0000A00
0A00A0000A00
050070000E00
000070001E00
000039007E00
00001FFFDA00
000000550A00
000000000A00
ENDCHAR
STARTCHAR uni0928094D092A
ENCODING -1
SWIDTH 742 0
DWIDTH 21 0
BBX 23 19 -1 -1
BITMAP
7FFFFFFFFFF4
15555E555D50
00000D000D00
00000D000D00
00000D000D00
00000D000D00
00000D000D00
00000D000D00
02FFFD000D00
07555D001D00
0A000A001D00
0A0007407D00
070001FFDD00
010000140D00
000000000D00
000000000D00
000000000D00
000000000D00
000000000400
ENDCHAR
STARTCHAR uni0928094D092B
ENCODING -1
SWIDTH 970 0
DWIDTH 27 0
BBX 29 18 -1 0
BITMAP
7FFFFFFFFFFFFF80
15555D5569555500
00001C0028000000
00001C0028000000
00001C002AFF8000
00001C002E55E000
00001C002C007400
02FFFC0028003400
0B555C0028003400
0D000D0038003400
0D000B41B8003400
0A0002FFA8003400
0000001428007400
000000002801E000
00000000287F8000
0000000028140000
0000000028000000
0000000028000000
ENDCHAR
STARTCHAR uni0928094D092D
ENCODING -1
SWIDTH 739 0
DWIDTH 21 0
BBX 22 19 -1 -1
BITMAP
7FFFE403FFF0
15556C015D50
00000D001C00
00000A001C00
00000A001C00
00000A001C00
00000A001C00
00000A001C00
02FFFFFFFC00
0B555E555C00
0A000A001C00
0A000A001C00
060009001C00
000000001C00
000000001C00
000000001C00
000000001C00
000000001C00
000000000400
ENDCHAR
STARTCHAR uni0928094D092E
ENCODING -1
SWIDTH 735 0
DWIDTH 21 0
BBX 22 19 -1 -1
BITMAP
7FFFFFFFFFF0
15555E556D50
00000D001C00
00000D001C00
00000D001C00
00000D001C00
00000D001C00
00000D001C00
02FFFFFFFC00
0B555E555C00
0A000D001C00
0A000D001C00
060009001C00
000000001C00
000000001C00
000000001C00
000000001C00
000000001C00
000000000400
ENDCHAR
STARTCHAR uni0928094D092F
ENCODING -1
SWIDTH 801 0
DWIDTH 22 0
BBX 24 18 -1 0
BITMAP
7FFFFFFFFFFE
1555557556D4
0000002C01C0
0000001C01C0
0000001C01C0
0000001C01C0
0000007801C0
02FFFFE001C0
0B556D0001C0
0D001C0001C0
0D001C0001C0
0A001C0002C0
00000D0003C0
00000B401BC0
000002FFFAC0
0000001541C0
0000000001C0
0000000001C0
ENDCHAR
STARTCHAR uni0928094D0935
ENCODING -1
SWIDTH 732 0
DWIDTH 21 0
BBX 22 19 -1 -1
BITMAP
7FFFFFFFFFF0
155555556D50
000000001C00
000000001C00
000001FE1C00
00000B941C00
00000D001C00
02FFFC001C00
0B555C001C00
0D001C001C00
0D001C001C00
0A001C001C00
00000D002C00
00000B40BC00
000002FFAC00
000000141C00
000000001C00
000000001C00
000000000400
ENDCHAR
ENDFONT
